SplineFontDB: 3.0
FontName: Bristol-Semibold-Italic
FullName: Bristol Semibold Italic
FamilyName: Bristol
Weight: Semibold
Copyright: Copyright (c) 2011 by Pablo Impallari. www.impallari.com Igino Marini. www.ikern.com. All rights reserved.
Version: 1.006
DefaultBaseFilename: Bristol-600-Italic
ItalicAngle: 0
UnderlinePosition: -100
UnderlineWidth: 50
Ascent: 800
Descent: 200
InvalidEm: 0
sfntRevision: 0x00010189
LayerCount: 2
Layer: 0 1 "Back" 1
Layer: 1 1 "Fore" 0
XUID: [1021 805 -1179658985 2900169]
FSType: 0
OS2Version: 3
OS2_WeightWidthSlopeOnly: 0
OS2_UseTypoMetrics: 1
CreationTime: 1321858983
ModificationTime: 1431276864
PfmFamily: 17
TTFWeight: 600
TTFWidth: 5
LineGap: 0
VLineGap: 0
Panose: 2 11 7 3 5 2 2 2 0 4
OS2TypoAscent: 965
OS2TypoAOffset: 0
OS2TypoDescent: -250
OS2TypoDOffset: 0
OS2TypoLinegap: 0
OS2WinAscent: 965
OS2WinAOffset: 0
OS2WinDescent: 250
OS2WinDOffset: 0
HheadAscent: 965
HheadAOffset: 0
HheadDescent: -250
HheadDOffset: 0
OS2SubXSize: 700
OS2SubYSize: 650
OS2SubXOff: 0
OS2SubYOff: 140
OS2SupXSize: 700
OS2SupYSize: 650
OS2SupXOff: 0
OS2SupYOff: 477
OS2StrikeYSize: 50
OS2StrikeYPos: 250
OS2CapHeight: 700
OS2XHeight: 497
OS2FamilyClass: 2050
OS2Vendor: '    '
OS2CodePages: 00000001.00000000
OS2UnicodeRanges: 8000002f.0000000b.00000000.00000000
Lookup: 1 0 0 "'aalt' Access All Alternates in Latin lookup 0" { "'aalt' Access All Alternates in Latin lookup 0 subtable"  } ['aalt' ('latn' <'dflt' > ) ]
Lookup: 1 0 0 "'smcp' Lowercase to Small Capitals in Latin lookup 1" { "'smcp' Lowercase to Small Capitals in Latin lookup 1 subtable"  } ['smcp' ('latn' <'dflt' > ) ]

StartChar: .notdef
Encoding: 65536 -1 0
Width: 225
Flags: W
LayerCount: 2
Back
Fore
SplineSet
91 243 m 1,0,-1
 113 367 l 1,1,-1
 227 367 l 1,2,-1
 205 243 l 1,3,-1
 91 243 l 1,0,-1
EndSplineSet
EndChar

StartChar: exclam
Encoding: 33 33 2
Width: 245
Flags: W
LayerCount: 2
Back
Fore
SplineSet
146 200 m 1,0,-1
 68 200 l 1,1,-1
 148 750 l 1,2,-1
 260 750 l 1,3,-1
 146 200 l 1,0,-1
14 0 m 1,4,-1
 34 112 l 1,5,-1
 149 112 l 1,6,-1
 129 0 l 1,7,-1
 14 0 l 1,4,-1
EndSplineSet
EndChar

StartChar: quotedbl
Encoding: 34 34 3
Width: 384
Flags: W
LayerCount: 2
Back
Fore
SplineSet
340 450 m 1,0,-1
 262 450 l 1,1,-1
 297 750 l 1,2,-1
 411 750 l 1,3,-1
 340 450 l 1,0,-1
163 450 m 1,4,-1
 85 450 l 1,5,-1
 120 750 l 1,6,-1
 234 750 l 1,7,-1
 163 450 l 1,4,-1
EndSplineSet
EndChar

StartChar: numbersign
Encoding: 35 35 4
Width: 673
Flags: W
LayerCount: 2
Back
Fore
SplineSet
605 417 m 1,0,-1
 502 417 l 1,1,-1
 447 306 l 1,2,-1
 560 306 l 1,3,-1
 502 213 l 1,4,-1
 397 213 l 1,5,-1
 282 -11 l 1,6,-1
 196 -11 l 1,7,-1
 309 213 l 1,8,-1
 213 213 l 1,9,-1
 96 -11 l 1,10,-1
 10 -11 l 1,11,-1
 125 213 l 1,12,-1
 19 213 l 1,13,-1
 74 306 l 1,14,-1
 175 306 l 1,15,-1
 230 417 l 1,16,-1
 121 417 l 1,17,-1
 167 510 l 1,18,-1
 280 510 l 1,19,-1
 380 700 l 1,20,-1
 466 700 l 1,21,-1
 368 510 l 1,22,-1
 467 510 l 1,23,-1
 564 700 l 1,24,-1
 650 700 l 1,25,-1
 553 510 l 1,26,-1
 652 510 l 1,27,-1
 605 417 l 1,0,-1
318 417 m 1,28,-1
 261 306 l 1,29,-1
 360 306 l 1,30,-1
 417 417 l 1,31,-1
 318 417 l 1,28,-1
EndSplineSet
EndChar

StartChar: dollar
Encoding: 36 36 5
Width: 500
Flags: W
LayerCount: 2
Back
Fore
SplineSet
232 -32 m 1,0,-1
 135 -32 l 1,1,-1
 169 80 l 1,2,3
 117 83 117 83 77.5 94 c 128,-1,4
 38 105 38 105 19 119 c 1,5,-1
 56 240 l 1,6,7
 74 217 74 217 114.5 198 c 128,-1,8
 155 179 155 179 215 179 c 0,9,10
 265 179 265 179 290.5 193.5 c 128,-1,11
 316 208 316 208 316 243 c 0,12,13
 316 266 316 266 298 281 c 128,-1,14
 280 296 280 296 253 308 c 128,-1,15
 226 320 226 320 194 331 c 128,-1,16
 162 342 162 342 135 358 c 128,-1,17
 108 374 108 374 90 396.5 c 128,-1,18
 72 419 72 419 72 455 c 0,19,20
 72 480 72 480 82 508.5 c 128,-1,21
 92 537 92 537 115.5 562.5 c 128,-1,22
 139 588 139 588 176 607 c 128,-1,23
 213 626 213 626 267 632 c 1,24,-1
 273 748 l 1,25,-1
 370 748 l 1,26,-1
 335 632 l 1,27,28
 380 629 380 629 417.5 617.5 c 128,-1,29
 455 606 455 606 472 594 c 1,30,-1
 443 486 l 1,31,32
 408 507 408 507 369 522 c 128,-1,33
 330 537 330 537 297 537 c 0,34,35
 278 537 278 537 258.5 534.5 c 128,-1,36
 239 532 239 532 223 526 c 128,-1,37
 207 520 207 520 196.5 508.5 c 128,-1,38
 186 497 186 497 186 479 c 0,39,40
 186 457 186 457 205 444.5 c 128,-1,41
 224 432 224 432 252 421.5 c 128,-1,42
 280 411 280 411 313 400 c 128,-1,43
 346 389 346 389 374 372.5 c 128,-1,44
 402 356 402 356 421 329.5 c 128,-1,45
 440 303 440 303 440 262 c 0,46,47
 440 242 440 242 433.5 214 c 128,-1,48
 427 186 427 186 406 158.5 c 128,-1,49
 385 131 385 131 345 109 c 128,-1,50
 305 87 305 87 238 81 c 1,51,-1
 232 -32 l 1,0,-1
EndSplineSet
EndChar

StartChar: percent
Encoding: 37 37 6
Width: 802
Flags: W
LayerCount: 2
Back
Fore
SplineSet
180 -12 m 1,0,-1
 84 -12 l 1,1,-1
 589 700 l 1,2,-1
 685 700 l 1,3,-1
 180 -12 l 1,0,-1
179 334 m 0,4,5
 128 334 128 334 99.5 371.5 c 128,-1,6
 71 409 71 409 71 473 c 0,7,8
 71 525 71 525 85.5 567.5 c 128,-1,9
 100 610 100 610 125 640.5 c 128,-1,10
 150 671 150 671 182 687.5 c 128,-1,11
 214 704 214 704 249 704 c 0,12,13
 299 704 299 704 328 667.5 c 128,-1,14
 357 631 357 631 357 565 c 0,15,16
 357 515 357 515 343.5 472.5 c 128,-1,17
 330 430 330 430 306 399 c 128,-1,18
 282 368 282 368 249.5 351 c 128,-1,19
 217 334 217 334 179 334 c 0,4,5
237 639 m 0,20,21
 222 639 222 639 206 628.5 c 128,-1,22
 190 618 190 618 176.5 597.5 c 128,-1,23
 163 577 163 577 154.5 547.5 c 128,-1,24
 146 518 146 518 146 480 c 0,25,26
 146 441 146 441 158.5 420 c 128,-1,27
 171 399 171 399 192 399 c 0,28,29
 211 399 211 399 227.5 411.5 c 128,-1,30
 244 424 244 424 256.5 444 c 128,-1,31
 269 464 269 464 275.5 493 c 128,-1,32
 282 522 282 522 282 557 c 0,33,34
 282 598 282 598 269.5 618.5 c 128,-1,35
 257 639 257 639 237 639 c 0,20,21
542 -11 m 0,36,37
 490 -11 490 -11 461.5 26.5 c 128,-1,38
 433 64 433 64 433 128 c 0,39,40
 433 180 433 180 447.5 222.5 c 128,-1,41
 462 265 462 265 487 295.5 c 128,-1,42
 512 326 512 326 544 342.5 c 128,-1,43
 576 359 576 359 611 359 c 0,44,45
 661 359 661 359 690 322.5 c 128,-1,46
 719 286 719 286 719 220 c 0,47,48
 719 170 719 170 705.5 127.5 c 128,-1,49
 692 85 692 85 668.5 54 c 128,-1,50
 645 23 645 23 612.5 6 c 128,-1,51
 580 -11 580 -11 542 -11 c 0,36,37
599 294 m 0,52,53
 584 294 584 294 568 283.5 c 128,-1,54
 552 273 552 273 538.5 252.5 c 128,-1,55
 525 232 525 232 516.5 202.5 c 128,-1,56
 508 173 508 173 508 135 c 0,57,58
 508 96 508 96 521 75 c 128,-1,59
 534 54 534 54 554 54 c 0,60,61
 573 54 573 54 590 66.5 c 128,-1,62
 607 79 607 79 619.5 99 c 128,-1,63
 632 119 632 119 638 148 c 128,-1,64
 644 177 644 177 644 212 c 0,65,66
 644 253 644 253 631.5 273.5 c 128,-1,67
 619 294 619 294 599 294 c 0,52,53
EndSplineSet
EndChar

StartChar: ampersand
Encoding: 38 38 7
Width: 591
Flags: W
LayerCount: 2
Back
Fore
SplineSet
386 0 m 1,0,-1
 366 38 l 1,1,2
 331 7 331 7 288 -8.5 c 128,-1,3
 245 -24 245 -24 189 -24 c 0,4,5
 142 -24 142 -24 108 -11.5 c 128,-1,6
 74 1 74 1 52 23 c 128,-1,7
 30 45 30 45 20 74 c 128,-1,8
 10 103 10 103 10 135 c 0,9,10
 10 174 10 174 22.5 206.5 c 128,-1,11
 35 239 35 239 55.5 267 c 128,-1,12
 76 295 76 295 102.5 319.5 c 128,-1,13
 129 344 129 344 158 367 c 1,14,15
 143 402 143 402 130.5 439.5 c 128,-1,16
 118 477 118 477 118 513 c 0,17,18
 118 557 118 557 137 592.5 c 128,-1,19
 156 628 156 628 186.5 652.5 c 128,-1,20
 217 677 217 677 255.5 690 c 128,-1,21
 294 703 294 703 333 703 c 0,22,23
 393 703 393 703 424.5 671.5 c 128,-1,24
 456 640 456 640 456 590 c 0,25,26
 456 551 456 551 442 519.5 c 128,-1,27
 428 488 428 488 405 461 c 128,-1,28
 382 434 382 434 352.5 411 c 128,-1,29
 323 388 323 388 292 366 c 1,30,-1
 384 195 l 1,31,32
 389 211 389 211 394 232 c 128,-1,33
 399 253 399 253 403.5 274 c 128,-1,34
 408 295 408 295 412 315.5 c 128,-1,35
 416 336 416 336 419 352 c 1,36,-1
 529 352 l 1,37,38
 525 330 525 330 518.5 301.5 c 128,-1,39
 512 273 512 273 501.5 241.5 c 128,-1,40
 491 210 491 210 477 177 c 128,-1,41
 463 144 463 144 444 114 c 1,42,-1
 519 0 l 1,43,-1
 386 0 l 1,0,-1
312 613 m 0,44,45
 278 613 278 613 254.5 588 c 128,-1,46
 231 563 231 563 231 516 c 0,47,48
 231 496 231 496 237 473 c 128,-1,49
 243 450 243 450 254 424 c 1,50,51
 275 442 275 442 293 458 c 128,-1,52
 311 474 311 474 324 490.5 c 128,-1,53
 337 507 337 507 344.5 525.5 c 128,-1,54
 352 544 352 544 352 567 c 0,55,56
 352 613 352 613 312 613 c 0,44,45
202 304 m 1,57,58
 170 272 170 272 150.5 233 c 128,-1,59
 131 194 131 194 131 148 c 0,60,61
 131 131 131 131 135.5 115.5 c 128,-1,62
 140 100 140 100 150.5 88.5 c 128,-1,63
 161 77 161 77 178 70 c 128,-1,64
 195 63 195 63 221 63 c 0,65,66
 252 63 252 63 276 74 c 128,-1,67
 300 85 300 85 319 105 c 1,68,-1
 202 304 l 1,57,58
EndSplineSet
EndChar

StartChar: quotesingle
Encoding: 39 39 8
Width: 195
Flags: W
LayerCount: 2
Back
Fore
SplineSet
162 450 m 1,0,-1
 85 450 l 1,1,-1
 120 750 l 1,2,-1
 233 750 l 1,3,-1
 162 450 l 1,0,-1
EndSplineSet
EndChar

StartChar: parenleft
Encoding: 40 40 9
Width: 273
Flags: W
LayerCount: 2
Back
Fore
SplineSet
63 -136 m 1,0,1
 47 -88 47 -88 38 -22 c 128,-1,2
 29 44 29 44 29 122 c 0,3,4
 29 198 29 198 38 275.5 c 128,-1,5
 47 353 47 353 69 432 c 128,-1,6
 91 511 91 511 127.5 590.5 c 128,-1,7
 164 670 164 670 219 750 c 1,8,-1
 323 750 l 1,9,10
 284 692 284 692 248.5 628 c 128,-1,11
 213 564 213 564 186 490.5 c 128,-1,12
 159 417 159 417 143 333.5 c 128,-1,13
 127 250 127 250 127 153 c 0,14,15
 127 68 127 68 138.5 -7 c 128,-1,16
 150 -82 150 -82 167 -136 c 1,17,-1
 63 -136 l 1,0,1
EndSplineSet
EndChar

StartChar: parenright
Encoding: 41 41 10
Width: 273
Flags: W
LayerCount: 2
Back
Fore
SplineSet
-51 -136 m 1,0,1
 -12 -78 -12 -78 23.5 -14 c 128,-1,2
 59 50 59 50 86 123.5 c 128,-1,3
 113 197 113 197 129 280.5 c 128,-1,4
 145 364 145 364 145 461 c 0,5,6
 145 546 145 546 133.5 621 c 128,-1,7
 122 696 122 696 105 750 c 1,8,-1
 209 750 l 1,9,10
 226 702 226 702 234.5 636 c 128,-1,11
 243 570 243 570 243 492 c 0,12,13
 243 416 243 416 234 338.5 c 128,-1,14
 225 261 225 261 203 182 c 128,-1,15
 181 103 181 103 144.5 23.5 c 128,-1,16
 108 -56 108 -56 53 -136 c 1,17,-1
 -51 -136 l 1,0,1
EndSplineSet
EndChar

StartChar: asterisk
Encoding: 42 42 11
Width: 428
Flags: W
LayerCount: 2
Back
Fore
SplineSet
254 552 m 1,0,-1
 153 414 l 1,1,-1
 100 468 l 1,2,-1
 227 567 l 1,3,-1
 91 624 l 1,4,-1
 147 693 l 1,5,-1
 243 592 l 1,6,-1
 243 749 l 1,7,-1
 331 749 l 1,8,-1
 269 592 l 1,9,-1
 407 693 l 1,10,-1
 439 623 l 1,11,-1
 286 569 l 1,12,-1
 377 471 l 1,13,-1
 305 417 l 1,14,-1
 254 552 l 1,0,-1
EndSplineSet
EndChar

StartChar: plus
Encoding: 43 43 12
Width: 439
Flags: W
LayerCount: 2
Back
Fore
SplineSet
243 232 m 1,0,-1
 220 102 l 1,1,-1
 134 102 l 1,2,-1
 157 232 l 1,3,-1
 34 232 l 1,4,-1
 50 324 l 1,5,-1
 173 324 l 1,6,-1
 196 452 l 1,7,-1
 282 452 l 1,8,-1
 259 324 l 1,9,-1
 383 324 l 1,10,-1
 367 232 l 1,11,-1
 243 232 l 1,0,-1
EndSplineSet
EndChar

StartChar: comma
Encoding: 44 44 13
Width: 228
Flags: W
LayerCount: 2
Back
Fore
SplineSet
9 -110 m 1,0,-1
 -12 -96 l 1,1,-1
 32 -10 l 1,2,-1
 5 0 l 1,3,-1
 25 116 l 1,4,-1
 138 116 l 1,5,-1
 118 0 l 1,6,-1
 9 -110 l 1,0,-1
EndSplineSet
EndChar

StartChar: hyphen
Encoding: 45 45 14
Width: 405
Flags: W
LayerCount: 2
Back
Fore
SplineSet
45 232 m 1,0,-1
 62 324 l 1,1,-1
 341 324 l 1,2,-1
 324 232 l 1,3,-1
 45 232 l 1,0,-1
EndSplineSet
EndChar

StartChar: period
Encoding: 46 46 15
Width: 228
Flags: W
LayerCount: 2
Back
Fore
SplineSet
6 0 m 1,0,-1
 27 116 l 1,1,-1
 141 116 l 1,2,-1
 121 0 l 1,3,-1
 6 0 l 1,0,-1
EndSplineSet
EndChar

StartChar: slash
Encoding: 47 47 16
Width: 524
Flags: W
LayerCount: 2
Back
Fore
SplineSet
78 -85 m 1,0,-1
 -46 -85 l 1,1,-1
 420 700 l 1,2,-1
 544 700 l 1,3,-1
 78 -85 l 1,0,-1
EndSplineSet
EndChar

StartChar: zero
Encoding: 48 48 17
Width: 684
Flags: W
LayerCount: 2
Back
Fore
SplineSet
270 -14 m 0,0,1
 221 -14 221 -14 183 5.5 c 128,-1,2
 145 25 145 25 118.5 60 c 128,-1,3
 92 95 92 95 78 145 c 128,-1,4
 64 195 64 195 64 257 c 0,5,6
 64 355 64 355 93 439 c 128,-1,7
 122 523 122 523 170 584 c 128,-1,8
 218 645 218 645 280 679.5 c 128,-1,9
 342 714 342 714 409 714 c 0,10,11
 456 714 456 714 494 693.5 c 128,-1,12
 532 673 532 673 558.5 636.5 c 128,-1,13
 585 600 585 600 599.5 548.5 c 128,-1,14
 614 497 614 497 614 435 c 0,15,16
 614 340 614 340 587.5 258 c 128,-1,17
 561 176 561 176 515 115.5 c 128,-1,18
 469 55 469 55 406 20.5 c 128,-1,19
 343 -14 343 -14 270 -14 c 0,0,1
390 609 m 0,20,21
 355 609 355 609 318 586.5 c 128,-1,22
 281 564 281 564 251 520 c 128,-1,23
 221 476 221 476 201.5 411.5 c 128,-1,24
 182 347 182 347 182 263 c 0,25,26
 182 175 182 175 212 133.5 c 128,-1,27
 242 92 242 92 290 92 c 0,28,29
 333 92 333 92 371 114.5 c 128,-1,30
 409 137 409 137 437.5 180 c 128,-1,31
 466 223 466 223 482.5 285.5 c 128,-1,32
 499 348 499 348 499 428 c 0,33,34
 499 519 499 519 467 564 c 128,-1,35
 435 609 435 609 390 609 c 0,20,21
EndSplineSet
EndChar

StartChar: one
Encoding: 49 49 18
Width: 359
Flags: W
LayerCount: 2
Back
Fore
SplineSet
90 0 m 1,0,-1
 185 533 l 1,1,2
 165 515 165 515 143.5 504.5 c 128,-1,3
 122 494 122 494 99 489 c 1,4,-1
 107 591 l 1,5,6
 122 595 122 595 141.5 606 c 128,-1,7
 161 617 161 617 180 632 c 128,-1,8
 199 647 199 647 215.5 664.5 c 128,-1,9
 232 682 232 682 242 700 c 1,10,-1
 331 700 l 1,11,-1
 208 0 l 1,12,-1
 90 0 l 1,0,-1
EndSplineSet
EndChar

StartChar: two
Encoding: 50 50 19
Width: 512
Flags: W
LayerCount: 2
Back
Fore
SplineSet
-2 0 m 1,0,1
 73 94 73 94 128 164.5 c 128,-1,2
 183 235 183 235 221 288 c 128,-1,3
 259 341 259 341 283.5 378.5 c 128,-1,4
 308 416 308 416 321 444 c 128,-1,5
 334 472 334 472 339 493 c 128,-1,6
 344 514 344 514 344 533 c 0,7,8
 344 571 344 571 326 592 c 128,-1,9
 308 613 308 613 274 613 c 0,10,11
 245 613 245 613 219 601.5 c 128,-1,12
 193 590 193 590 172 574 c 128,-1,13
 151 558 151 558 135.5 540.5 c 128,-1,14
 120 523 120 523 111 510 c 1,15,-1
 115 616 l 1,16,17
 124 627 124 627 142 644 c 128,-1,18
 160 661 160 661 185.5 676.5 c 128,-1,19
 211 692 211 692 244 703 c 128,-1,20
 277 714 277 714 316 714 c 0,21,22
 357 714 357 714 384.5 700.5 c 128,-1,23
 412 687 412 687 428.5 665.5 c 128,-1,24
 445 644 445 644 452 616.5 c 128,-1,25
 459 589 459 589 459 562 c 0,26,27
 459 524 459 524 446.5 482.5 c 128,-1,28
 434 441 434 441 405.5 388.5 c 128,-1,29
 377 336 377 336 331.5 268.5 c 128,-1,30
 286 201 286 201 220 112 c 1,31,-1
 404 112 l 1,32,-1
 385 0 l 1,33,-1
 -2 0 l 1,0,1
EndSplineSet
EndChar

StartChar: three
Encoding: 51 51 20
Width: 524
Flags: W
LayerCount: 2
Back
Fore
SplineSet
156 -14 m 0,0,1
 126 -14 126 -14 98.5 -8 c 128,-1,2
 71 -2 71 -2 49.5 6.5 c 128,-1,3
 28 15 28 15 14 24.5 c 128,-1,4
 0 34 0 34 -4 40 c 1,5,-1
 44 148 l 1,6,7
 51 137 51 137 64 127.5 c 128,-1,8
 77 118 77 118 94 111.5 c 128,-1,9
 111 105 111 105 130.5 101 c 128,-1,10
 150 97 150 97 170 97 c 0,11,12
 198 97 198 97 224 104 c 128,-1,13
 250 111 250 111 270.5 128 c 128,-1,14
 291 145 291 145 303 173 c 128,-1,15
 315 201 315 201 315 244 c 0,16,17
 315 262 315 262 310.5 278.5 c 128,-1,18
 306 295 306 295 295.5 307.5 c 128,-1,19
 285 320 285 320 266.5 327.5 c 128,-1,20
 248 335 248 335 221 335 c 2,21,-1
 138 335 l 1,22,-1
 164 427 l 1,23,-1
 207 427 l 2,24,25
 249 427 249 427 275.5 437.5 c 128,-1,26
 302 448 302 448 317 464.5 c 128,-1,27
 332 481 332 481 337.5 502.5 c 128,-1,28
 343 524 343 524 343 545 c 0,29,30
 343 577 343 577 325 595 c 128,-1,31
 307 613 307 613 265 613 c 0,32,33
 236 613 236 613 203 603.5 c 128,-1,34
 170 594 170 594 149 577 c 1,35,-1
 146 668 l 1,36,37
 155 675 155 675 170 683 c 128,-1,38
 185 691 185 691 205 698 c 128,-1,39
 225 705 225 705 248 709.5 c 128,-1,40
 271 714 271 714 296 714 c 0,41,42
 346 714 346 714 378.5 700 c 128,-1,43
 411 686 411 686 429.5 664.5 c 128,-1,44
 448 643 448 643 455.5 616.5 c 128,-1,45
 463 590 463 590 463 565 c 0,46,47
 463 509 463 509 441 466.5 c 128,-1,48
 419 424 419 424 376 388 c 1,49,50
 402 368 402 368 416.5 332 c 128,-1,51
 431 296 431 296 431 253 c 0,52,53
 431 187 431 187 406.5 137 c 128,-1,54
 382 87 382 87 342.5 53.5 c 128,-1,55
 303 20 303 20 254 3 c 128,-1,56
 205 -14 205 -14 156 -14 c 0,0,1
EndSplineSet
EndChar

StartChar: four
Encoding: 52 52 21
Width: 557
Flags: W
LayerCount: 2
Back
Fore
SplineSet
386 190 m 1,0,-1
 352 0 l 1,1,-1
 234 0 l 1,2,-1
 268 190 l 1,3,-1
 -3 190 l 1,4,-1
 377 700 l 1,5,-1
 476 700 l 1,6,-1
 403 288 l 1,7,-1
 480 288 l 1,8,-1
 462 190 l 1,9,-1
 386 190 l 1,0,-1
325 512 m 1,10,-1
 173 288 l 1,11,-1
 285 288 l 1,12,-1
 325 512 l 1,10,-1
EndSplineSet
EndChar

StartChar: five
Encoding: 53 53 22
Width: 524
Flags: W
LayerCount: 2
Back
Fore
SplineSet
167 -13 m 0,0,1
 136 -13 136 -13 107.5 -7.5 c 128,-1,2
 79 -2 79 -2 57.5 6 c 128,-1,3
 36 14 36 14 23 22.5 c 128,-1,4
 10 31 10 31 10 37 c 2,5,-1
 56 145 l 1,6,7
 73 125 73 125 106.5 110.5 c 128,-1,8
 140 96 140 96 182 96 c 0,9,10
 208 96 208 96 234 105.5 c 128,-1,11
 260 115 260 115 281 135 c 128,-1,12
 302 155 302 155 315 184.5 c 128,-1,13
 328 214 328 214 328 255 c 0,14,15
 328 274 328 274 322 289.5 c 128,-1,16
 316 305 316 305 300.5 316 c 128,-1,17
 285 327 285 327 259 333 c 128,-1,18
 233 339 233 339 193 339 c 2,19,-1
 95 339 l 1,20,-1
 199 700 l 1,21,-1
 488 700 l 1,22,-1
 456 588 l 1,23,-1
 267 588 l 1,24,-1
 226 439 l 1,25,26
 338 437 338 437 390.5 398 c 128,-1,27
 443 359 443 359 443 277 c 0,28,29
 443 207 443 207 418 153 c 128,-1,30
 393 99 393 99 353.5 62 c 128,-1,31
 314 25 314 25 265 6 c 128,-1,32
 216 -13 216 -13 167 -13 c 0,0,1
EndSplineSet
EndChar

StartChar: six
Encoding: 54 54 23
Width: 545
Flags: W
LayerCount: 2
Back
Fore
SplineSet
206 -14 m 0,0,1
 172 -14 172 -14 143 -2.5 c 128,-1,2
 114 9 114 9 93 33 c 128,-1,3
 72 57 72 57 60 94 c 128,-1,4
 48 131 48 131 48 182 c 0,5,6
 48 251 48 251 68 316.5 c 128,-1,7
 88 382 88 382 120.5 439.5 c 128,-1,8
 153 497 153 497 193 545 c 128,-1,9
 233 593 233 593 273 627 c 128,-1,10
 313 661 313 661 348 680.5 c 128,-1,11
 383 700 383 700 406 700 c 1,12,-1
 475 654 l 1,13,14
 462 649 462 649 439 635 c 128,-1,15
 416 621 416 621 388.5 601 c 128,-1,16
 361 581 361 581 331.5 555 c 128,-1,17
 302 529 302 529 276.5 499.5 c 128,-1,18
 251 470 251 470 231 438 c 128,-1,19
 211 406 211 406 202 374 c 1,20,21
 213 388 213 388 228 397 c 128,-1,22
 243 406 243 406 258.5 411.5 c 128,-1,23
 274 417 274 417 288 419 c 128,-1,24
 302 421 302 421 313 421 c 0,25,26
 347 421 347 421 376 410.5 c 128,-1,27
 405 400 405 400 426 379 c 128,-1,28
 447 358 447 358 459 327.5 c 128,-1,29
 471 297 471 297 471 257 c 0,30,31
 471 203 471 203 451 154 c 128,-1,32
 431 105 431 105 396 67.5 c 128,-1,33
 361 30 361 30 312.5 8 c 128,-1,34
 264 -14 264 -14 206 -14 c 0,0,1
288 324 m 0,35,36
 262 324 262 324 238.5 314 c 128,-1,37
 215 304 215 304 197.5 285.5 c 128,-1,38
 180 267 180 267 169.5 241 c 128,-1,39
 159 215 159 215 159 183 c 0,40,41
 159 160 159 160 166 143 c 128,-1,42
 173 126 173 126 184 114 c 128,-1,43
 195 102 195 102 209 96 c 128,-1,44
 223 90 223 90 237 90 c 0,45,46
 263 90 263 90 286 103 c 128,-1,47
 309 116 309 116 326 137 c 128,-1,48
 343 158 343 158 352.5 185 c 128,-1,49
 362 212 362 212 362 241 c 0,50,51
 362 274 362 274 344.5 299 c 128,-1,52
 327 324 327 324 288 324 c 0,35,36
EndSplineSet
EndChar

StartChar: seven
Encoding: 55 55 24
Width: 493
Flags: W
LayerCount: 2
Back
Fore
SplineSet
148 0 m 1,0,-1
 25 0 l 1,1,-1
 343 588 l 1,2,-1
 99 588 l 1,3,-1
 119 700 l 1,4,-1
 534 700 l 1,5,-1
 148 0 l 1,0,-1
EndSplineSet
EndChar

StartChar: eight
Encoding: 56 56 25
Width: 581
Flags: W
LayerCount: 2
Back
Fore
SplineSet
217 -14 m 0,0,1
 169 -14 169 -14 135 0 c 128,-1,2
 101 14 101 14 79.5 37.5 c 128,-1,3
 58 61 58 61 47.5 91 c 128,-1,4
 37 121 37 121 37 154 c 0,5,6
 37 205 37 205 65.5 263.5 c 128,-1,7
 94 322 94 322 169 377 c 1,8,9
 150 401 150 401 141.5 434 c 128,-1,10
 133 467 133 467 133 499 c 0,11,12
 133 536 133 536 144 574.5 c 128,-1,13
 155 613 155 613 181.5 644 c 128,-1,14
 208 675 208 675 251 694.5 c 128,-1,15
 294 714 294 714 358 714 c 0,16,17
 402 714 402 714 432 703 c 128,-1,18
 462 692 462 692 481 673.5 c 128,-1,19
 500 655 500 655 508 631 c 128,-1,20
 516 607 516 607 516 581 c 0,21,22
 516 551 516 551 509 525.5 c 128,-1,23
 502 500 502 500 488.5 477 c 128,-1,24
 475 454 475 454 455 432 c 128,-1,25
 435 410 435 410 408 386 c 1,26,27
 443 364 443 364 465.5 325.5 c 128,-1,28
 488 287 488 287 488 234 c 0,29,30
 488 193 488 193 471 149.5 c 128,-1,31
 454 106 454 106 420.5 69.5 c 128,-1,32
 387 33 387 33 336 9.5 c 128,-1,33
 285 -14 285 -14 217 -14 c 0,0,1
337 618 m 0,34,35
 287 618 287 618 261.5 588.5 c 128,-1,36
 236 559 236 559 236 505 c 0,37,38
 236 481 236 481 249.5 458.5 c 128,-1,39
 263 436 263 436 298 424 c 1,40,41
 352 441 352 441 377.5 474.5 c 128,-1,42
 403 508 403 508 403 555 c 0,43,44
 403 582 403 582 388 600 c 128,-1,45
 373 618 373 618 337 618 c 0,34,35
290 334 m 1,46,47
 266 329 266 329 241.5 316.5 c 128,-1,48
 217 304 217 304 196.5 283.5 c 128,-1,49
 176 263 176 263 163.5 234.5 c 128,-1,50
 151 206 151 206 151 170 c 0,51,52
 151 128 151 128 173.5 105.5 c 128,-1,53
 196 83 196 83 238 83 c 0,54,55
 269 83 269 83 294 93.5 c 128,-1,56
 319 104 319 104 336 123 c 128,-1,57
 353 142 353 142 362 167.5 c 128,-1,58
 371 193 371 193 371 222 c 0,59,60
 371 267 371 267 347.5 295 c 128,-1,61
 324 323 324 323 290 334 c 1,46,47
EndSplineSet
EndChar

StartChar: nine
Encoding: 57 57 26
Width: 549
Flags: W
LayerCount: 2
Back
Fore
SplineSet
340 714 m 0,0,1
 374 714 374 714 403.5 703.5 c 128,-1,2
 433 693 433 693 454 670 c 128,-1,3
 475 647 475 647 487 611 c 128,-1,4
 499 575 499 575 499 523 c 0,5,6
 499 449 499 449 481.5 381.5 c 128,-1,7
 464 314 464 314 435 256 c 128,-1,8
 406 198 406 198 368.5 150.5 c 128,-1,9
 331 103 331 103 291 69.5 c 128,-1,10
 251 36 251 36 211.5 18 c 128,-1,11
 172 0 172 0 139 0 c 1,12,-1
 74 46 l 1,13,14
 95 51 95 51 136 73.5 c 128,-1,15
 177 96 177 96 220 132 c 128,-1,16
 263 168 263 168 300 216.5 c 128,-1,17
 337 265 337 265 349 323 c 1,18,19
 338 311 338 311 319.5 302.5 c 128,-1,20
 301 294 301 294 283 289 c 128,-1,21
 265 284 265 284 251 281.5 c 128,-1,22
 237 279 237 279 233 279 c 0,23,24
 161 279 161 279 117.5 319 c 128,-1,25
 74 359 74 359 74 438 c 0,26,27
 74 493 74 493 94 543 c 128,-1,28
 114 593 114 593 149.5 631 c 128,-1,29
 185 669 185 669 233.5 691.5 c 128,-1,30
 282 714 282 714 340 714 c 0,0,1
261 376 m 0,31,32
 286 376 286 376 309.5 386 c 128,-1,33
 333 396 333 396 351 414.5 c 128,-1,34
 369 433 369 433 380 460 c 128,-1,35
 391 487 391 487 391 521 c 0,36,37
 391 545 391 545 384 562 c 128,-1,38
 377 579 377 579 366 589.5 c 128,-1,39
 355 600 355 600 341.5 605 c 128,-1,40
 328 610 328 610 315 610 c 0,41,42
 287 610 287 610 264.5 596.5 c 128,-1,43
 242 583 242 583 225.5 561.5 c 128,-1,44
 209 540 209 540 200 513.5 c 128,-1,45
 191 487 191 487 191 462 c 0,46,47
 191 446 191 446 195 430.5 c 128,-1,48
 199 415 199 415 207 403 c 128,-1,49
 215 391 215 391 228.5 383.5 c 128,-1,50
 242 376 242 376 261 376 c 0,31,32
EndSplineSet
EndChar

StartChar: colon
Encoding: 58 58 27
Width: 226
Flags: W
LayerCount: 2
Back
Fore
SplineSet
61 324 m 1,0,-1
 82 440 l 1,1,-1
 196 440 l 1,2,-1
 175 324 l 1,3,-1
 61 324 l 1,0,-1
4 0 m 1,4,-1
 25 116 l 1,5,-1
 139 116 l 1,6,-1
 119 0 l 1,7,-1
 4 0 l 1,4,-1
EndSplineSet
EndChar

StartChar: semicolon
Encoding: 59 59 28
Width: 241
Flags: W
LayerCount: 2
Back
Fore
SplineSet
64 324 m 1,0,-1
 84 440 l 1,1,-1
 211 440 l 1,2,-1
 190 324 l 1,3,-1
 64 324 l 1,0,-1
11 -110 m 1,4,-1
 -10 -96 l 1,5,-1
 34 -10 l 1,6,-1
 7 0 l 1,7,-1
 27 116 l 1,8,-1
 140 116 l 1,9,-1
 120 0 l 1,10,-1
 11 -110 l 1,4,-1
EndSplineSet
EndChar

StartChar: less
Encoding: 60 60 29
Width: 421
Flags: W
LayerCount: 2
Back
Fore
SplineSet
182 78 m 1,0,-1
 28 284 l 1,1,-1
 255 490 l 1,2,-1
 391 490 l 1,3,-1
 164 284 l 1,4,-1
 318 78 l 1,5,-1
 182 78 l 1,0,-1
EndSplineSet
EndChar

StartChar: equal
Encoding: 61 61 30
Width: 480
Flags: W
LayerCount: 2
Back
Fore
SplineSet
68 312 m 1,0,-1
 83 401 l 1,1,-1
 416 401 l 1,2,-1
 401 312 l 1,3,-1
 68 312 l 1,0,-1
40 153 m 1,4,-1
 55 242 l 1,5,-1
 388 242 l 1,6,-1
 373 153 l 1,7,-1
 40 153 l 1,4,-1
EndSplineSet
EndChar

StartChar: greater
Encoding: 62 62 31
Width: 422
Flags: W
LayerCount: 2
Back
Fore
SplineSet
156 78 m 1,0,-1
 20 78 l 1,1,-1
 247 284 l 1,2,-1
 93 490 l 1,3,-1
 229 490 l 1,4,-1
 383 284 l 1,5,-1
 156 78 l 1,0,-1
EndSplineSet
EndChar

StartChar: question
Encoding: 63 63 32
Width: 427
Flags: W
LayerCount: 2
Back
Fore
SplineSet
139 200 m 1,0,1
 141 229 141 229 142 238.5 c 128,-1,2
 143 248 143 248 144 251 c 0,3,4
 153 302 153 302 180.5 342 c 128,-1,5
 208 382 208 382 237.5 419.5 c 128,-1,6
 267 457 267 457 290 496 c 128,-1,7
 313 535 313 535 313 583 c 0,8,9
 313 623 313 623 292.5 642.5 c 128,-1,10
 272 662 272 662 239 662 c 0,11,12
 201 662 201 662 169.5 641 c 128,-1,13
 138 620 138 620 117 596 c 1,14,-1
 105 680 l 1,15,16
 134 715 134 715 176.5 732.5 c 128,-1,17
 219 750 219 750 262 750 c 0,18,19
 304 750 304 750 334 735 c 128,-1,20
 364 720 364 720 383 696.5 c 128,-1,21
 402 673 402 673 411 644 c 128,-1,22
 420 615 420 615 420 587 c 0,23,24
 420 552 420 552 407 521 c 128,-1,25
 394 490 394 490 373.5 461 c 128,-1,26
 353 432 353 432 328.5 403.5 c 128,-1,27
 304 375 304 375 281.5 345.5 c 128,-1,28
 259 316 259 316 242 284.5 c 128,-1,29
 225 253 225 253 219 217 c 2,30,-1
 216 200 l 1,31,-1
 139 200 l 1,0,1
85 0 m 1,32,-1
 104 112 l 1,33,-1
 219 112 l 1,34,-1
 198 0 l 1,35,-1
 85 0 l 1,32,-1
EndSplineSet
EndChar

StartChar: at
Encoding: 64 64 33
Width: 667
Flags: W
LayerCount: 2
Back
Fore
SplineSet
515 379 m 1,0,1
 501 399 501 399 477 415.5 c 128,-1,2
 453 432 453 432 415 432 c 0,3,4
 369 432 369 432 319 404 c 128,-1,5
 269 376 269 376 228 331.5 c 128,-1,6
 187 287 187 287 160 232.5 c 128,-1,7
 133 178 133 178 133 124 c 0,8,9
 133 91 133 91 147.5 65.5 c 128,-1,10
 162 40 162 40 198 40 c 0,11,12
 218 40 218 40 241.5 47.5 c 128,-1,13
 265 55 265 55 289.5 70 c 128,-1,14
 314 85 314 85 337.5 106.5 c 128,-1,15
 361 128 361 128 381 156 c 1,16,17
 379 148 379 148 374.5 135 c 128,-1,18
 370 122 370 122 370 102 c 0,19,20
 370 81 370 81 378.5 61.5 c 128,-1,21
 387 42 387 42 410 42 c 0,22,23
 422 42 422 42 439 47.5 c 128,-1,24
 456 53 456 53 473.5 62 c 128,-1,25
 491 71 491 71 508 82.5 c 128,-1,26
 525 94 525 94 538 106 c 1,27,28
 509 63 509 63 472 27.5 c 128,-1,29
 435 -8 435 -8 392 -33.5 c 128,-1,30
 349 -59 349 -59 302.5 -73 c 128,-1,31
 256 -87 256 -87 209 -87 c 0,32,33
 121 -87 121 -87 73 -34 c 128,-1,34
 25 19 25 19 25 114 c 0,35,36
 25 174 25 174 41.5 230.5 c 128,-1,37
 58 287 58 287 87 335.5 c 128,-1,38
 116 384 116 384 155 424 c 128,-1,39
 194 464 194 464 240 493 c 128,-1,40
 286 522 286 522 336.5 537.5 c 128,-1,41
 387 553 387 553 438 553 c 0,42,43
 529 553 529 553 576.5 499 c 128,-1,44
 624 445 624 445 624 353 c 0,45,46
 624 312 624 312 613.5 266.5 c 128,-1,47
 603 221 603 221 582 182.5 c 128,-1,48
 561 144 561 144 529 119 c 128,-1,49
 497 94 497 94 454 94 c 0,50,51
 440 94 440 94 431 99.5 c 128,-1,52
 422 105 422 105 422 128 c 0,53,54
 422 150 422 150 429.5 174.5 c 128,-1,55
 437 199 437 199 450 229 c 128,-1,56
 463 259 463 259 480 295.5 c 128,-1,57
 497 332 497 332 515 379 c 1,0,1
412 371 m 0,58,59
 420 371 420 371 433 368 c 128,-1,60
 446 365 446 365 449 349 c 1,61,62
 435 309 435 309 409.5 266 c 128,-1,63
 384 223 384 223 353.5 187.5 c 128,-1,64
 323 152 323 152 292.5 129 c 128,-1,65
 262 106 262 106 240 106 c 0,66,67
 223 106 223 106 216 119 c 128,-1,68
 209 132 209 132 209 152 c 0,69,70
 209 196 209 196 230.5 235.5 c 128,-1,71
 252 275 252 275 283.5 305 c 128,-1,72
 315 335 315 335 350 353 c 128,-1,73
 385 371 385 371 412 371 c 0,58,59
EndSplineSet
EndChar

StartChar: A
Encoding: 65 65 34
Width: 597
Flags: W
LayerCount: 2
Back
Fore
SplineSet
396 0 m 1,0,-1
 374 175 l 1,1,-1
 167 175 l 1,2,-1
 83 0 l 1,3,-1
 -40 0 l 1,4,-1
 307 700 l 1,5,-1
 418 700 l 1,6,-1
 519 0 l 1,7,-1
 396 0 l 1,0,-1
330 520 m 1,8,-1
 226 287 l 1,9,-1
 353 287 l 1,10,-1
 330 520 l 1,8,-1
EndSplineSet
EndChar

StartChar: B
Encoding: 66 66 35
Width: 600
Flags: W
LayerCount: 2
Back
Fore
SplineSet
145 0 m 1,0,-1
 27 0 l 1,1,-1
 150 700 l 1,2,-1
 323 700 l 2,3,4
 371 700 371 700 410.5 695 c 128,-1,5
 450 690 450 690 478 675 c 128,-1,6
 506 660 506 660 521.5 633 c 128,-1,7
 537 606 537 606 537 562 c 0,8,9
 537 496 537 496 514 452.5 c 128,-1,10
 491 409 491 409 453 374 c 1,11,12
 495 354 495 354 516.5 321.5 c 128,-1,13
 538 289 538 289 538 240 c 0,14,15
 538 168 538 168 513.5 121.5 c 128,-1,16
 489 75 489 75 450 48 c 128,-1,17
 411 21 411 21 364 10.5 c 128,-1,18
 317 0 317 0 272 0 c 2,19,-1
 145 0 l 1,0,-1
250 598 m 1,20,-1
 218 416 l 1,21,-1
 331 416 l 2,22,23
 345 416 345 416 361.5 420 c 128,-1,24
 378 424 378 424 392 437 c 128,-1,25
 406 450 406 450 415.5 473 c 128,-1,26
 425 496 425 496 425 535 c 0,27,28
 425 575 425 575 405.5 586.5 c 128,-1,29
 386 598 386 598 354 598 c 2,30,-1
 250 598 l 1,20,-1
201 320 m 1,31,-1
 162 102 l 1,32,-1
 277 102 l 2,33,34
 310 102 310 102 336 108 c 128,-1,35
 362 114 362 114 380 129.5 c 128,-1,36
 398 145 398 145 407.5 170.5 c 128,-1,37
 417 196 417 196 417 235 c 0,38,39
 417 284 417 284 389 302 c 128,-1,40
 361 320 361 320 319 320 c 2,41,-1
 201 320 l 1,31,-1
EndSplineSet
EndChar

StartChar: C
Encoding: 67 67 36
Width: 585
Flags: W
LayerCount: 2
Back
Fore
SplineSet
298 -14 m 0,0,1
 240 -14 240 -14 193 6.5 c 128,-1,2
 146 27 146 27 113 65.5 c 128,-1,3
 80 104 80 104 62 158 c 128,-1,4
 44 212 44 212 44 278 c 0,5,6
 44 374 44 374 74.5 454 c 128,-1,7
 105 534 105 534 157 592 c 128,-1,8
 209 650 209 650 279 682 c 128,-1,9
 349 714 349 714 427 714 c 0,10,11
 476 714 476 714 521.5 702.5 c 128,-1,12
 567 691 567 691 599 673 c 1,13,-1
 566 562 l 1,14,15
 530 578 530 578 493 590.5 c 128,-1,16
 456 603 456 603 407 603 c 0,17,18
 351 603 351 603 308 577 c 128,-1,19
 265 551 265 551 235 507.5 c 128,-1,20
 205 464 205 464 189.5 406.5 c 128,-1,21
 174 349 174 349 174 287 c 0,22,23
 174 246 174 246 182.5 211 c 128,-1,24
 191 176 191 176 209 150.5 c 128,-1,25
 227 125 227 125 254 111 c 128,-1,26
 281 97 281 97 317 97 c 0,27,28
 367 97 367 97 408 109 c 128,-1,29
 449 121 449 121 491 138 c 1,30,-1
 485 27 l 1,31,32
 447 8 447 8 397.5 -3 c 128,-1,33
 348 -14 348 -14 298 -14 c 0,0,1
EndSplineSet
EndChar

StartChar: D
Encoding: 68 68 37
Width: 694
Flags: W
LayerCount: 2
Back
Fore
SplineSet
27 0 m 1,0,-1
 150 700 l 1,1,-1
 386 700 l 2,2,3
 444 700 444 700 491.5 681 c 128,-1,4
 539 662 539 662 573 626 c 128,-1,5
 607 590 607 590 625 538 c 128,-1,6
 643 486 643 486 643 420 c 0,7,8
 643 324 643 324 613 246.5 c 128,-1,9
 583 169 583 169 531 114 c 128,-1,10
 479 59 479 59 410 29.5 c 128,-1,11
 341 0 341 0 263 0 c 2,12,-1
 150 0 l 1,13,-1
 27 0 l 1,0,-1
249 589 m 1,14,-1
 165 111 l 1,15,-1
 283 111 l 2,16,17
 339 111 339 111 382 134.5 c 128,-1,18
 425 158 425 158 454 198.5 c 128,-1,19
 483 239 483 239 498 293.5 c 128,-1,20
 513 348 513 348 513 410 c 0,21,22
 513 492 513 492 477.5 540.5 c 128,-1,23
 442 589 442 589 367 589 c 2,24,-1
 249 589 l 1,14,-1
EndSplineSet
EndChar

StartChar: E
Encoding: 69 69 38
Width: 544
Flags: W
LayerCount: 2
Back
Fore
SplineSet
150 0 m 1,0,-1
 27 0 l 1,1,-1
 150 700 l 1,2,-1
 555 700 l 1,3,-1
 536 588 l 1,4,-1
 251 588 l 1,5,-1
 222 421 l 1,6,-1
 442 421 l 1,7,-1
 422 309 l 1,8,-1
 202 309 l 1,9,-1
 168 112 l 1,10,-1
 461 112 l 1,11,-1
 441 0 l 1,12,-1
 150 0 l 1,0,-1
EndSplineSet
EndChar

StartChar: F
Encoding: 70 70 39
Width: 507
Flags: W
LayerCount: 2
Back
Fore
SplineSet
249 588 m 1,0,-1
 219 421 l 1,1,-1
 428 421 l 1,2,-1
 408 309 l 1,3,-1
 199 309 l 1,4,-1
 145 0 l 1,5,-1
 27 0 l 1,6,-1
 150 700 l 1,7,-1
 539 700 l 1,8,-1
 519 588 l 1,9,-1
 249 588 l 1,0,-1
EndSplineSet
EndChar

StartChar: G
Encoding: 71 71 40
Width: 639
Flags: W
LayerCount: 2
Back
Fore
SplineSet
295 -14 m 0,0,1
 238 -14 238 -14 192 6.5 c 128,-1,2
 146 27 146 27 113 65.5 c 128,-1,3
 80 104 80 104 62 158 c 128,-1,4
 44 212 44 212 44 279 c 0,5,6
 44 375 44 375 74 454.5 c 128,-1,7
 104 534 104 534 156.5 592 c 128,-1,8
 209 650 209 650 279.5 682 c 128,-1,9
 350 714 350 714 430 714 c 0,10,11
 453 714 453 714 478.5 711 c 128,-1,12
 504 708 504 708 528.5 703 c 128,-1,13
 553 698 553 698 574.5 690 c 128,-1,14
 596 682 596 682 612 673 c 1,15,-1
 580 563 l 1,16,17
 546 580 546 580 500.5 591.5 c 128,-1,18
 455 603 455 603 413 603 c 0,19,20
 353 603 353 603 308 576.5 c 128,-1,21
 263 550 263 550 233 506.5 c 128,-1,22
 203 463 203 463 188.5 407 c 128,-1,23
 174 351 174 351 174 291 c 0,24,25
 174 249 174 249 183.5 213 c 128,-1,26
 193 177 193 177 212 151.5 c 128,-1,27
 231 126 231 126 260.5 111.5 c 128,-1,28
 290 97 290 97 329 97 c 0,29,30
 349 97 349 97 370.5 100 c 128,-1,31
 392 103 392 103 416 111 c 1,32,-1
 441 251 l 1,33,-1
 374 251 l 1,34,-1
 391 351 l 1,35,-1
 576 351 l 1,36,-1
 558 248 l 1,37,-1
 521 39 l 1,38,39
 502 28 502 28 474.5 18.5 c 128,-1,40
 447 9 447 9 416 1.5 c 128,-1,41
 385 -6 385 -6 353.5 -10 c 128,-1,42
 322 -14 322 -14 295 -14 c 0,0,1
EndSplineSet
EndChar

StartChar: H
Encoding: 72 72 41
Width: 710
Flags: W
LayerCount: 2
Back
Fore
SplineSet
436 0 m 1,0,-1
 491 309 l 1,1,-1
 199 309 l 1,2,-1
 145 0 l 1,3,-1
 27 0 l 1,4,-1
 150 700 l 1,5,-1
 268 700 l 1,6,-1
 219 422 l 1,7,-1
 511 422 l 1,8,-1
 560 700 l 1,9,-1
 678 700 l 1,10,-1
 554 0 l 1,11,-1
 436 0 l 1,0,-1
EndSplineSet
EndChar

StartChar: I
Encoding: 73 73 42
Width: 275
Flags: W
LayerCount: 2
Back
Fore
SplineSet
27 0 m 1,0,-1
 150 700 l 1,1,-1
 268 700 l 1,2,-1
 145 0 l 1,3,-1
 27 0 l 1,0,-1
EndSplineSet
EndChar

StartChar: J
Encoding: 74 74 43
Width: 275
Flags: W
LayerCount: 2
Back
Fore
SplineSet
-72 -172 m 1,0,-1
 -66 -88 l 1,1,-1
 -40 -88 l 2,2,3
 -15 -88 -15 -88 -1.5 -66.5 c 128,-1,4
 12 -45 12 -45 20 2 c 2,5,-1
 144 700 l 1,6,-1
 262 700 l 1,7,-1
 134 -26 l 2,8,9
 121 -100 121 -100 75 -136 c 128,-1,10
 29 -172 29 -172 -38 -172 c 2,11,-1
 -72 -172 l 1,0,-1
EndSplineSet
EndChar

StartChar: K
Encoding: 75 75 44
Width: 592
Flags: W
LayerCount: 2
Back
Fore
SplineSet
384 0 m 1,0,-1
 231 370 l 1,1,-1
 507 700 l 1,2,-1
 641 700 l 1,3,-1
 364 370 l 1,4,-1
 518 0 l 1,5,-1
 384 0 l 1,0,-1
27 0 m 1,6,-1
 150 700 l 1,7,-1
 267 700 l 1,8,-1
 144 0 l 1,9,-1
 27 0 l 1,6,-1
EndSplineSet
EndChar

StartChar: L
Encoding: 76 76 45
Width: 485
Flags: W
LayerCount: 2
Back
Fore
SplineSet
27 0 m 1,0,-1
 150 700 l 1,1,-1
 268 700 l 1,2,-1
 165 112 l 1,3,-1
 421 112 l 1,4,-1
 401 0 l 1,5,-1
 27 0 l 1,0,-1
EndSplineSet
EndChar

StartChar: M
Encoding: 77 77 46
Width: 792
Flags: W
LayerCount: 2
Back
Fore
SplineSet
544 0 m 1,0,-1
 575 482 l 1,1,-1
 357 148 l 1,2,-1
 256 482 l 1,3,-1
 117 0 l 1,4,-1
 -6 0 l 1,5,-1
 206 700 l 1,6,-1
 303 700 l 1,7,-1
 395 367 l 1,8,-1
 606 700 l 1,9,-1
 701 700 l 1,10,-1
 667 0 l 1,11,-1
 544 0 l 1,0,-1
EndSplineSet
EndChar

StartChar: N
Encoding: 78 78 47
Width: 678
Flags: W
LayerCount: 2
Back
Fore
SplineSet
429 0 m 1,0,-1
 234 503 l 1,1,-1
 145 0 l 1,2,-1
 27 0 l 1,3,-1
 150 700 l 1,4,-1
 266 700 l 1,5,-1
 447 226 l 1,6,-1
 531 700 l 1,7,-1
 649 700 l 1,8,-1
 525 0 l 1,9,-1
 429 0 l 1,0,-1
EndSplineSet
EndChar

StartChar: O
Encoding: 79 79 48
Width: 733
Flags: W
LayerCount: 2
Back
Fore
SplineSet
298 -14 m 0,0,1
 240 -14 240 -14 193 6.5 c 128,-1,2
 146 27 146 27 113 65.5 c 128,-1,3
 80 104 80 104 62 158 c 128,-1,4
 44 212 44 212 44 278 c 0,5,6
 44 374 44 374 74.5 454 c 128,-1,7
 105 534 105 534 157.5 592 c 128,-1,8
 210 650 210 650 279.5 682 c 128,-1,9
 349 714 349 714 427 714 c 0,10,11
 485 714 485 714 532 693.5 c 128,-1,12
 579 673 579 673 612 634.5 c 128,-1,13
 645 596 645 596 663 542 c 128,-1,14
 681 488 681 488 681 422 c 0,15,16
 681 326 681 326 650.5 246 c 128,-1,17
 620 166 620 166 567.5 108 c 128,-1,18
 515 50 515 50 445.5 18 c 128,-1,19
 376 -14 376 -14 298 -14 c 0,0,1
407 603 m 0,20,21
 351 603 351 603 308 577 c 128,-1,22
 265 551 265 551 235 507.5 c 128,-1,23
 205 464 205 464 189.5 407 c 128,-1,24
 174 350 174 350 174 288 c 0,25,26
 174 247 174 247 182.5 212 c 128,-1,27
 191 177 191 177 209 151.5 c 128,-1,28
 227 126 227 126 254 111.5 c 128,-1,29
 281 97 281 97 318 97 c 0,30,31
 373 97 373 97 416.5 123 c 128,-1,32
 460 149 460 149 490 192.5 c 128,-1,33
 520 236 520 236 536 293 c 128,-1,34
 552 350 552 350 552 412 c 0,35,36
 552 453 552 453 543 488 c 128,-1,37
 534 523 534 523 516 548.5 c 128,-1,38
 498 574 498 574 471 588.5 c 128,-1,39
 444 603 444 603 407 603 c 0,20,21
EndSplineSet
EndChar

StartChar: P
Encoding: 80 80 49
Width: 574
Flags: W
LayerCount: 2
Back
Fore
SplineSet
186 235 m 1,0,-1
 144 0 l 1,1,-1
 27 0 l 1,2,-1
 150 700 l 1,3,-1
 327 700 l 2,4,5
 385 700 385 700 430 694 c 128,-1,6
 475 688 475 688 506 670.5 c 128,-1,7
 537 653 537 653 553 621 c 128,-1,8
 569 589 569 589 569 537 c 0,9,10
 569 447 569 447 541 388.5 c 128,-1,11
 513 330 513 330 471.5 296 c 128,-1,12
 430 262 430 262 382.5 248.5 c 128,-1,13
 335 235 335 235 296 235 c 2,14,-1
 186 235 l 1,0,-1
251 600 m 1,15,-1
 205 344 l 1,16,-1
 300 344 l 2,17,18
 343 344 343 344 371.5 355.5 c 128,-1,19
 400 367 400 367 416.5 389.5 c 128,-1,20
 433 412 433 412 440 443.5 c 128,-1,21
 447 475 447 475 447 516 c 0,22,23
 447 560 447 560 424.5 580 c 128,-1,24
 402 600 402 600 345 600 c 2,25,-1
 251 600 l 1,15,-1
EndSplineSet
EndChar

StartChar: Q
Encoding: 81 81 50
Width: 733
Flags: W
LayerCount: 2
Back
Fore
SplineSet
543 -6 m 1,0,-1
 490 50 l 1,1,2
 448 18 448 18 399 2 c 128,-1,3
 350 -14 350 -14 298 -14 c 0,4,5
 240 -14 240 -14 193 6.5 c 128,-1,6
 146 27 146 27 113 65.5 c 128,-1,7
 80 104 80 104 62 158 c 128,-1,8
 44 212 44 212 44 278 c 0,9,10
 44 374 44 374 74.5 454 c 128,-1,11
 105 534 105 534 157.5 592 c 128,-1,12
 210 650 210 650 279.5 682 c 128,-1,13
 349 714 349 714 427 714 c 0,14,15
 485 714 485 714 532 693.5 c 128,-1,16
 579 673 579 673 612 634.5 c 128,-1,17
 645 596 645 596 663 542 c 128,-1,18
 681 488 681 488 681 422 c 0,19,20
 681 337 681 337 653.5 264 c 128,-1,21
 626 191 626 191 578 124 c 1,22,-1
 626 74 l 1,23,-1
 543 -6 l 1,0,-1
407 603 m 0,24,25
 352 603 352 603 308.5 577 c 128,-1,26
 265 551 265 551 235 507.5 c 128,-1,27
 205 464 205 464 189.5 407 c 128,-1,28
 174 350 174 350 174 287 c 0,29,30
 174 246 174 246 182.5 211 c 128,-1,31
 191 176 191 176 209 150.5 c 128,-1,32
 227 125 227 125 254 111 c 128,-1,33
 281 97 281 97 318 97 c 0,34,35
 344 97 344 97 366 103.5 c 128,-1,36
 388 110 388 110 409 126 c 1,37,-1
 348 201 l 1,38,-1
 431 281 l 1,39,-1
 495 201 l 1,40,41
 504 222 504 222 514 244.5 c 128,-1,42
 524 267 524 267 532.5 292.5 c 128,-1,43
 541 318 541 318 546 347.5 c 128,-1,44
 551 377 551 377 551 414 c 0,45,46
 551 455 551 455 542.5 489.5 c 128,-1,47
 534 524 534 524 516 549.5 c 128,-1,48
 498 575 498 575 471 589 c 128,-1,49
 444 603 444 603 407 603 c 0,24,25
EndSplineSet
EndChar

StartChar: R
Encoding: 82 82 51
Width: 599
Flags: W
LayerCount: 2
Back
Fore
SplineSet
390 0 m 1,0,-1
 307 264 l 1,1,-1
 191 264 l 1,2,-1
 144 0 l 1,3,-1
 27 0 l 1,4,-1
 150 700 l 1,5,-1
 383 700 l 2,6,7
 423 700 423 700 457 692 c 128,-1,8
 491 684 491 684 516 665 c 128,-1,9
 541 646 541 646 555 615.5 c 128,-1,10
 569 585 569 585 569 540 c 0,11,12
 569 493 569 493 557 456 c 128,-1,13
 545 419 545 419 524.5 389 c 128,-1,14
 504 359 504 359 477.5 336 c 128,-1,15
 451 313 451 313 422 295 c 1,16,-1
 512 0 l 1,17,-1
 390 0 l 1,0,-1
251 602 m 1,18,-1
 210 375 l 1,19,-1
 291 375 l 2,20,21
 376 375 376 375 410 410.5 c 128,-1,22
 444 446 444 446 444 522 c 0,23,24
 444 560 444 560 421 581 c 128,-1,25
 398 602 398 602 338 602 c 2,26,-1
 251 602 l 1,18,-1
EndSplineSet
EndChar

StartChar: S
Encoding: 83 83 52
Width: 559
Flags: W
LayerCount: 2
Back
Fore
SplineSet
206 -14 m 0,0,1
 133 -14 133 -14 81 0.5 c 128,-1,2
 29 15 29 15 6 35 c 1,3,-1
 44 169 l 1,4,5
 63 141 63 141 110 119 c 128,-1,6
 157 97 157 97 229 97 c 0,7,8
 285 97 285 97 320 121.5 c 128,-1,9
 355 146 355 146 355 197 c 0,10,11
 355 219 355 219 344.5 236 c 128,-1,12
 334 253 334 253 316.5 266.5 c 128,-1,13
 299 280 299 280 277 290.5 c 128,-1,14
 255 301 255 301 231 312 c 0,15,16
 205 324 205 324 178 337.5 c 128,-1,17
 151 351 151 351 128.5 370.5 c 128,-1,18
 106 390 106 390 91.5 416.5 c 128,-1,19
 77 443 77 443 77 479 c 0,20,21
 77 514 77 514 89.5 555 c 128,-1,22
 102 596 102 596 133 631.5 c 128,-1,23
 164 667 164 667 215.5 690.5 c 128,-1,24
 267 714 267 714 345 714 c 0,25,26
 378 714 378 714 408.5 709.5 c 128,-1,27
 439 705 439 705 464 697.5 c 128,-1,28
 489 690 489 690 507.5 680.5 c 128,-1,29
 526 671 526 671 536 662 c 1,30,-1
 503 541 l 1,31,32
 458 573 458 573 417 588 c 128,-1,33
 376 603 376 603 329 603 c 0,34,35
 310 603 310 603 287.5 598 c 128,-1,36
 265 593 265 593 245.5 581.5 c 128,-1,37
 226 570 226 570 213 552 c 128,-1,38
 200 534 200 534 200 508 c 0,39,40
 200 489 200 489 208.5 475 c 128,-1,41
 217 461 217 461 232 450.5 c 128,-1,42
 247 440 247 440 267 431 c 128,-1,43
 287 422 287 422 309 414 c 0,44,45
 339 403 339 403 371 388.5 c 128,-1,46
 403 374 403 374 429.5 352 c 128,-1,47
 456 330 456 330 473 298.5 c 128,-1,48
 490 267 490 267 490 222 c 0,49,50
 490 176 490 176 477.5 133.5 c 128,-1,51
 465 91 465 91 433.5 58 c 128,-1,52
 402 25 402 25 346.5 5.5 c 128,-1,53
 291 -14 291 -14 206 -14 c 0,0,1
EndSplineSet
EndChar

StartChar: T
Encoding: 84 84 53
Width: 562
Flags: W
LayerCount: 2
Back
Fore
SplineSet
382 588 m 1,0,-1
 278 0 l 1,1,-1
 160 0 l 1,2,-1
 264 588 l 1,3,-1
 86 588 l 1,4,-1
 106 700 l 1,5,-1
 580 700 l 1,6,-1
 560 588 l 1,7,-1
 382 588 l 1,0,-1
EndSplineSet
EndChar

StartChar: U
Encoding: 85 85 54
Width: 688
Flags: W
LayerCount: 2
Back
Fore
SplineSet
278 -14 m 0,0,1
 168 -14 168 -14 116 44.5 c 128,-1,2
 64 103 64 103 64 206 c 0,3,4
 64 249 64 249 73 299 c 2,5,-1
 144 700 l 1,6,-1
 261 700 l 1,7,-1
 198 343 l 2,8,9
 193 314 193 314 190 287 c 128,-1,10
 187 260 187 260 187 235 c 0,11,12
 187 205 187 205 192.5 179.5 c 128,-1,13
 198 154 198 154 210.5 135.5 c 128,-1,14
 223 117 223 117 244.5 107 c 128,-1,15
 266 97 266 97 298 97 c 0,16,17
 342 97 342 97 373.5 117 c 128,-1,18
 405 137 405 137 427 170.5 c 128,-1,19
 449 204 449 204 462.5 248.5 c 128,-1,20
 476 293 476 293 485 343 c 2,21,-1
 548 700 l 1,22,-1
 666 700 l 1,23,-1
 595 299 l 2,24,25
 582 227 582 227 556 169.5 c 128,-1,26
 530 112 530 112 490 71 c 128,-1,27
 450 30 450 30 397 8 c 128,-1,28
 344 -14 344 -14 278 -14 c 0,0,1
EndSplineSet
EndChar

StartChar: V
Encoding: 86 86 55
Width: 626
Flags: W
LayerCount: 2
Back
Fore
SplineSet
319 0 m 1,0,-1
 174 0 l 1,1,-1
 72 700 l 1,2,-1
 195 700 l 1,3,-1
 272 150 l 1,4,-1
 540 700 l 1,5,-1
 663 700 l 1,6,-1
 319 0 l 1,0,-1
EndSplineSet
EndChar

StartChar: W
Encoding: 87 87 56
Width: 920
Flags: W
LayerCount: 2
Back
Fore
SplineSet
664 0 m 1,0,-1
 558 0 l 1,1,-1
 499 500 l 1,2,-1
 263 0 l 1,3,-1
 151 0 l 1,4,-1
 89 700 l 1,5,-1
 211 700 l 1,6,-1
 251 176 l 1,7,-1
 492 696 l 1,8,-1
 576 696 l 1,9,-1
 638 186 l 1,10,-1
 858 700 l 1,11,-1
 980 700 l 1,12,-1
 664 0 l 1,0,-1
EndSplineSet
EndChar

StartChar: X
Encoding: 88 88 57
Width: 599
Flags: W
LayerCount: 2
Back
Fore
SplineSet
388 0 m 1,0,-1
 283 266 l 1,1,-1
 90 0 l 1,2,-1
 -46 0 l 1,3,-1
 238 349 l 1,4,-1
 88 700 l 1,5,-1
 224 700 l 1,6,-1
 324 446 l 1,7,-1
 498 700 l 1,8,-1
 634 700 l 1,9,-1
 369 362 l 1,10,-1
 524 0 l 1,11,-1
 388 0 l 1,0,-1
EndSplineSet
EndChar

StartChar: Y
Encoding: 89 89 58
Width: 586
Flags: W
LayerCount: 2
Back
Fore
SplineSet
342 314 m 1,0,-1
 287 0 l 1,1,-1
 169 0 l 1,2,-1
 224 314 l 1,3,-1
 74 700 l 1,4,-1
 199 700 l 1,5,-1
 301 419 l 1,6,-1
 503 700 l 1,7,-1
 628 700 l 1,8,-1
 342 314 l 1,0,-1
EndSplineSet
EndChar

StartChar: Z
Encoding: 90 90 59
Width: 526
Flags: W
LayerCount: 2
Back
Fore
SplineSet
175 112 m 1,0,-1
 420 112 l 1,1,-1
 400 0 l 1,2,-1
 -39 0 l 1,3,-1
 350 588 l 1,4,-1
 105 588 l 1,5,-1
 125 700 l 1,6,-1
 564 700 l 1,7,-1
 175 112 l 1,0,-1
EndSplineSet
EndChar

StartChar: bracketleft
Encoding: 91 91 60
Width: 321
Flags: W
LayerCount: 2
Back
Fore
SplineSet
98 -136 m 1,0,-1
 -7 -136 l 1,1,-1
 149 750 l 1,2,-1
 381 750 l 1,3,-1
 363 654 l 1,4,-1
 236 654 l 1,5,-1
 114 -39 l 1,6,-1
 242 -39 l 1,7,-1
 224 -136 l 1,8,-1
 98 -136 l 1,0,-1
EndSplineSet
EndChar

StartChar: backslash
Encoding: 92 92 61
Width: 518
Flags: W
LayerCount: 2
Back
Fore
SplineSet
293 -85 m 1,0,-1
 104 700 l 1,1,-1
 229 700 l 1,2,-1
 418 -85 l 1,3,-1
 293 -85 l 1,0,-1
EndSplineSet
EndChar

StartChar: bracketright
Encoding: 93 93 62
Width: 328
Flags: W
LayerCount: 2
Back
Fore
SplineSet
328 751 m 1,0,-1
 172 -136 l 1,1,-1
 67 -136 l 1,2,-1
 -60 -136 l 1,3,-1
 -42 -40 l 1,4,-1
 85 -40 l 1,5,-1
 207 654 l 1,6,-1
 79 654 l 1,7,-1
 97 751 l 1,8,-1
 328 751 l 1,0,-1
EndSplineSet
EndChar

StartChar: asciicircum
Encoding: 94 94 63
Width: 481
Flags: W
LayerCount: 2
Back
Fore
SplineSet
342 625 m 1,0,-1
 119 412 l 1,1,-1
 143 546 l 1,2,-1
 366 759 l 1,3,-1
 513 546 l 1,4,-1
 490 412 l 1,5,-1
 342 625 l 1,0,-1
EndSplineSet
EndChar

StartChar: underscore
Encoding: 95 95 64
Width: 530
Flags: W
LayerCount: 2
Back
Fore
SplineSet
-73 -128 m 1,0,-1
 -57 -36 l 1,1,-1
 447 -36 l 1,2,-1
 431 -128 l 1,3,-1
 -73 -128 l 1,0,-1
EndSplineSet
EndChar

StartChar: grave
Encoding: 96 96 65
Width: 285
Flags: W
LayerCount: 2
Back
Fore
SplineSet
170 650 m 1,0,-1
 186 744 l 1,1,-1
 339 652 l 1,2,-1
 328 588 l 1,3,-1
 170 650 l 1,0,-1
EndSplineSet
EndChar

StartChar: a
Encoding: 97 97 66
Width: 571
Flags: W
LayerCount: 2
Back
Fore
SplineSet
465 153 m 2,0,1
 463 141 463 141 462 131 c 128,-1,2
 461 121 461 121 461 115 c 0,3,4
 461 93 461 93 471.5 88 c 128,-1,5
 482 83 482 83 509 83 c 1,6,-1
 482 -10 l 1,7,8
 449 -10 449 -10 426.5 -8 c 128,-1,9
 404 -6 404 -6 389 0.5 c 128,-1,10
 374 7 374 7 364 19.5 c 128,-1,11
 354 32 354 32 346 52 c 1,12,13
 322 27 322 27 285.5 8.5 c 128,-1,14
 249 -10 249 -10 200 -10 c 0,15,16
 158 -10 158 -10 124 6 c 128,-1,17
 90 22 90 22 67 50.5 c 128,-1,18
 44 79 44 79 31.5 117.5 c 128,-1,19
 19 156 19 156 19 202 c 0,20,21
 19 259 19 259 38.5 314 c 128,-1,22
 58 369 58 369 94.5 411.5 c 128,-1,23
 131 454 131 454 182.5 480 c 128,-1,24
 234 506 234 506 299 506 c 0,25,26
 334 506 334 506 359.5 496 c 128,-1,27
 385 486 385 486 404 463 c 1,28,-1
 420 497 l 1,29,-1
 523 497 l 1,30,-1
 465 153 l 2,0,1
288 410 m 0,31,32
 255 410 255 410 227 394 c 128,-1,33
 199 378 199 378 179 351 c 128,-1,34
 159 324 159 324 148 287.5 c 128,-1,35
 137 251 137 251 137 211 c 0,36,37
 137 156 137 156 160 120.5 c 128,-1,38
 183 85 183 85 236 85 c 0,39,40
 273 85 273 85 300 103.5 c 128,-1,41
 327 122 327 122 344 151 c 128,-1,42
 361 180 361 180 369 216 c 128,-1,43
 377 252 377 252 377 287 c 0,44,45
 377 347 377 347 356 378.5 c 128,-1,46
 335 410 335 410 288 410 c 0,31,32
EndSplineSet
Substitution2: "'smcp' Lowercase to Small Capitals in Latin lookup 1 subtable" A.sc
Substitution2: "'aalt' Access All Alternates in Latin lookup 0 subtable" A.sc
EndChar

StartChar: b
Encoding: 98 98 67
Width: 548
Flags: W
LayerCount: 2
Back
Fore
SplineSet
223 -10 m 0,0,1
 185 -10 185 -10 164 2.5 c 128,-1,2
 143 15 143 15 123 39 c 1,3,-1
 115 0 l 1,4,-1
 8 0 l 1,5,-1
 140 750 l 1,6,-1
 254 750 l 1,7,-1
 204 463 l 1,8,9
 229 486 229 486 253.5 496 c 128,-1,10
 278 506 278 506 314 506 c 0,11,12
 360 506 360 506 394.5 489.5 c 128,-1,13
 429 473 429 473 452 444.5 c 128,-1,14
 475 416 475 416 486 378 c 128,-1,15
 497 340 497 340 497 297 c 0,16,17
 497 238 497 238 478.5 182.5 c 128,-1,18
 460 127 460 127 424.5 84.5 c 128,-1,19
 389 42 389 42 338 16 c 128,-1,20
 287 -10 287 -10 223 -10 c 0,0,1
290 410 m 0,21,22
 261 410 261 410 236 397 c 128,-1,23
 211 384 211 384 192.5 357.5 c 128,-1,24
 174 331 174 331 163.5 290 c 128,-1,25
 153 249 153 249 153 193 c 0,26,27
 153 142 153 142 172.5 113.5 c 128,-1,28
 192 85 192 85 233 85 c 0,29,30
 266 85 266 85 292.5 101.5 c 128,-1,31
 319 118 319 118 338 146 c 128,-1,32
 357 174 357 174 367.5 211 c 128,-1,33
 378 248 378 248 378 289 c 0,34,35
 378 343 378 343 356.5 376.5 c 128,-1,36
 335 410 335 410 290 410 c 0,21,22
EndSplineSet
Substitution2: "'smcp' Lowercase to Small Capitals in Latin lookup 1 subtable" B.sc
Substitution2: "'aalt' Access All Alternates in Latin lookup 0 subtable" B.sc
EndChar

StartChar: c
Encoding: 99 99 68
Width: 432
Flags: W
LayerCount: 2
Back
Fore
SplineSet
199 -10 m 0,0,1
 154 -10 154 -10 120 6.5 c 128,-1,2
 86 23 86 23 64 51 c 128,-1,3
 42 79 42 79 31 116.5 c 128,-1,4
 20 154 20 154 20 196 c 0,5,6
 20 256 20 256 38.5 312 c 128,-1,7
 57 368 57 368 91.5 411 c 128,-1,8
 126 454 126 454 176.5 480 c 128,-1,9
 227 506 227 506 290 506 c 0,10,11
 317 506 317 506 337 503 c 128,-1,12
 357 500 357 500 372 495.5 c 128,-1,13
 387 491 387 491 398 484.5 c 128,-1,14
 409 478 409 478 419 471 c 1,15,-1
 392 373 l 1,16,17
 367 391 367 391 340.5 400.5 c 128,-1,18
 314 410 314 410 282 410 c 256,19,20
 250 410 250 410 223.5 394.5 c 128,-1,21
 197 379 197 379 178 351.5 c 128,-1,22
 159 324 159 324 148.5 286.5 c 128,-1,23
 138 249 138 249 138 206 c 0,24,25
 138 151 138 151 160 118 c 128,-1,26
 182 85 182 85 225 85 c 0,27,28
 257 85 257 85 286.5 94.5 c 128,-1,29
 316 104 316 104 347 122 c 1,30,-1
 340 27 l 1,31,32
 316 12 316 12 284.5 1 c 128,-1,33
 253 -10 253 -10 199 -10 c 0,0,1
EndSplineSet
Substitution2: "'smcp' Lowercase to Small Capitals in Latin lookup 1 subtable" C.sc
Substitution2: "'aalt' Access All Alternates in Latin lookup 0 subtable" C.sc
EndChar

StartChar: d
Encoding: 100 100 69
Width: 549
Flags: W
LayerCount: 2
Back
Fore
SplineSet
312 0 m 1,0,-1
 318 39 l 1,1,2
 290 15 290 15 264.5 2.5 c 128,-1,3
 239 -10 239 -10 201 -10 c 0,4,5
 155 -10 155 -10 120.5 6 c 128,-1,6
 86 22 86 22 63.5 50 c 128,-1,7
 41 78 41 78 30 115.5 c 128,-1,8
 19 153 19 153 19 196 c 0,9,10
 19 255 19 255 38 311 c 128,-1,11
 57 367 57 367 92.5 410.5 c 128,-1,12
 128 454 128 454 179 480 c 128,-1,13
 230 506 230 506 293 506 c 0,14,15
 328 506 328 506 349.5 496 c 128,-1,16
 371 486 371 486 388 463 c 1,17,-1
 438 750 l 1,18,-1
 553 750 l 1,19,-1
 420 0 l 1,20,-1
 312 0 l 1,0,-1
283 410 m 0,21,22
 250 410 250 410 223.5 394 c 128,-1,23
 197 378 197 378 177.5 350.5 c 128,-1,24
 158 323 158 323 147.5 286 c 128,-1,25
 137 249 137 249 137 208 c 0,26,27
 137 154 137 154 159 119.5 c 128,-1,28
 181 85 181 85 226 85 c 0,29,30
 255 85 255 85 280 97.5 c 128,-1,31
 305 110 305 110 323 136.5 c 128,-1,32
 341 163 341 163 351.5 204.5 c 128,-1,33
 362 246 362 246 362 303 c 0,34,35
 362 353 362 353 343 381.5 c 128,-1,36
 324 410 324 410 283 410 c 0,21,22
EndSplineSet
Substitution2: "'smcp' Lowercase to Small Capitals in Latin lookup 1 subtable" D.sc
Substitution2: "'aalt' Access All Alternates in Latin lookup 0 subtable" D.sc
EndChar

StartChar: e
Encoding: 101 101 70
Width: 479
Flags: W
LayerCount: 2
Back
Fore
SplineSet
454 367 m 0,0,1
 454 327 454 327 437 296 c 128,-1,2
 420 265 420 265 389 244 c 128,-1,3
 358 223 358 223 314.5 212.5 c 128,-1,4
 271 202 271 202 218 202 c 0,5,6
 192 202 192 202 170.5 204.5 c 128,-1,7
 149 207 149 207 138 209 c 1,8,9
 139 174 139 174 149.5 150 c 128,-1,10
 160 126 160 126 176.5 111.5 c 128,-1,11
 193 97 193 97 213.5 91 c 128,-1,12
 234 85 234 85 257 85 c 0,13,14
 273 85 273 85 292.5 88 c 128,-1,15
 312 91 312 91 332 96 c 128,-1,16
 352 101 352 101 371.5 107.5 c 128,-1,17
 391 114 391 114 407 122 c 1,18,-1
 396 28 l 1,19,20
 367 14 367 14 324.5 2 c 128,-1,21
 282 -10 282 -10 233 -10 c 0,22,23
 178 -10 178 -10 137.5 6.5 c 128,-1,24
 97 23 97 23 71 52 c 128,-1,25
 45 81 45 81 32 120 c 128,-1,26
 19 159 19 159 19 204 c 0,27,28
 19 262 19 262 38.5 316.5 c 128,-1,29
 58 371 58 371 94.5 413 c 128,-1,30
 131 455 131 455 182 480.5 c 128,-1,31
 233 506 233 506 296 506 c 0,32,33
 374 506 374 506 414 468 c 128,-1,34
 454 430 454 430 454 367 c 0,0,1
290 410 m 0,35,36
 263 410 263 410 240 399 c 128,-1,37
 217 388 217 388 199 370 c 128,-1,38
 181 352 181 352 168 329 c 128,-1,39
 155 306 155 306 148 283 c 1,40,41
 159 280 159 280 170.5 278.5 c 128,-1,42
 182 277 182 277 202 277 c 0,43,44
 247 277 247 277 277 284.5 c 128,-1,45
 307 292 307 292 324.5 304 c 128,-1,46
 342 316 342 316 349 330.5 c 128,-1,47
 356 345 356 345 356 359 c 0,48,49
 356 375 356 375 349 385.5 c 128,-1,50
 342 396 342 396 332 401 c 128,-1,51
 322 406 322 406 310.5 408 c 128,-1,52
 299 410 299 410 290 410 c 0,35,36
EndSplineSet
Substitution2: "'smcp' Lowercase to Small Capitals in Latin lookup 1 subtable" E.sc
Substitution2: "'aalt' Access All Alternates in Latin lookup 0 subtable" E.sc
EndChar

StartChar: f
Encoding: 102 102 71
Width: 327
Flags: W
LayerCount: 2
Back
Fore
SplineSet
221 405 m 1,0,-1
 150 0 l 1,1,-1
 36 0 l 1,2,-1
 107 405 l 1,3,-1
 45 405 l 1,4,-1
 70 497 l 1,5,-1
 123 497 l 1,6,-1
 144 617 l 2,7,8
 148 643 148 643 159 667 c 128,-1,9
 170 691 170 691 187 709.5 c 128,-1,10
 204 728 204 728 226.5 739 c 128,-1,11
 249 750 249 750 277 750 c 0,12,13
 299 750 299 750 313.5 749.5 c 128,-1,14
 328 749 328 749 338.5 747.5 c 128,-1,15
 349 746 349 746 357.5 744.5 c 128,-1,16
 366 743 366 743 377 742 c 1,17,-1
 351 647 l 1,18,19
 337 652 337 652 323.5 652.5 c 128,-1,20
 310 653 310 653 305 653 c 0,21,22
 293 653 293 653 284.5 649 c 128,-1,23
 276 645 276 645 269.5 635 c 128,-1,24
 263 625 263 625 258.5 607.5 c 128,-1,25
 254 590 254 590 249 562 c 2,26,-1
 238 497 l 1,27,-1
 335 497 l 1,28,-1
 318 405 l 1,29,-1
 221 405 l 1,0,-1
EndSplineSet
Substitution2: "'smcp' Lowercase to Small Capitals in Latin lookup 1 subtable" F.sc
Substitution2: "'aalt' Access All Alternates in Latin lookup 0 subtable" F.sc
EndChar

StartChar: g
Encoding: 103 103 72
Width: 479
Flags: W
LayerCount: 2
Back
Fore
SplineSet
145 -250 m 0,0,1
 94 -250 94 -250 58.5 -238.5 c 128,-1,2
 23 -227 23 -227 0 -208.5 c 128,-1,3
 -23 -190 -23 -190 -33.5 -166.5 c 128,-1,4
 -44 -143 -44 -143 -44 -119 c 0,5,6
 -44 -81 -44 -81 -18 -47.5 c 128,-1,7
 8 -14 8 -14 51 9 c 1,8,9
 38 21 38 21 30 36.5 c 128,-1,10
 22 52 22 52 22 69 c 0,11,12
 22 92 22 92 37.5 112 c 128,-1,13
 53 132 53 132 80 148 c 1,14,15
 58 172 58 172 47 206.5 c 128,-1,16
 36 241 36 241 36 277 c 0,17,18
 36 321 36 321 51.5 362.5 c 128,-1,19
 67 404 67 404 95.5 436 c 128,-1,20
 124 468 124 468 165 487 c 128,-1,21
 206 506 206 506 257 506 c 0,22,23
 319 506 319 506 353 474 c 1,24,25
 367 483 367 483 394 490.5 c 128,-1,26
 421 498 421 498 453 498 c 2,27,-1
 483 498 l 1,28,-1
 463 425 l 1,29,-1
 421 425 l 2,30,31
 413 425 413 425 398 422 c 1,32,33
 403 406 403 406 405.5 385.5 c 128,-1,34
 408 365 408 365 408 347 c 0,35,36
 408 302 408 302 392.5 260 c 128,-1,37
 377 218 377 218 348.5 185.5 c 128,-1,38
 320 153 320 153 279 133.5 c 128,-1,39
 238 114 238 114 187 114 c 0,40,41
 163 114 163 114 142 120 c 1,42,43
 135 115 135 115 132 108 c 128,-1,44
 129 101 129 101 129 97 c 0,45,46
 129 80 129 80 156 72 c 128,-1,47
 183 64 183 64 232 55 c 0,48,49
 253 51 253 51 280.5 44.5 c 128,-1,50
 308 38 308 38 332 24.5 c 128,-1,51
 356 11 356 11 372.5 -11.5 c 128,-1,52
 389 -34 389 -34 389 -70 c 0,53,54
 389 -108 389 -108 372 -141 c 128,-1,55
 355 -174 355 -174 323.5 -198 c 128,-1,56
 292 -222 292 -222 247 -236 c 128,-1,57
 202 -250 202 -250 145 -250 c 0,0,1
242 420 m 0,58,59
 217 420 217 420 197.5 409 c 128,-1,60
 178 398 178 398 165 379 c 128,-1,61
 152 360 152 360 145 334 c 128,-1,62
 138 308 138 308 138 279 c 0,63,64
 138 242 138 242 154 220 c 128,-1,65
 170 198 170 198 203 198 c 0,66,67
 227 198 227 198 246 209.5 c 128,-1,68
 265 221 265 221 278 240.5 c 128,-1,69
 291 260 291 260 298 285.5 c 128,-1,70
 305 311 305 311 305 340 c 0,71,72
 305 377 305 377 289.5 398.5 c 128,-1,73
 274 420 274 420 242 420 c 0,58,59
178 -31 m 0,74,75
 165 -29 165 -29 154 -25 c 128,-1,76
 143 -21 143 -21 128 -19 c 1,77,78
 99 -29 99 -29 75.5 -50 c 128,-1,79
 52 -71 52 -71 52 -103 c 0,80,81
 52 -132 52 -132 78 -150 c 128,-1,82
 104 -168 104 -168 153 -168 c 0,83,84
 180 -168 180 -168 204.5 -162 c 128,-1,85
 229 -156 229 -156 247 -145.5 c 128,-1,86
 265 -135 265 -135 276 -121 c 128,-1,87
 287 -107 287 -107 287 -90 c 0,88,89
 287 -75 287 -75 277 -64.5 c 128,-1,90
 267 -54 267 -54 251 -47 c 128,-1,91
 235 -40 235 -40 216 -36.5 c 128,-1,92
 197 -33 197 -33 178 -31 c 0,74,75
EndSplineSet
Substitution2: "'smcp' Lowercase to Small Capitals in Latin lookup 1 subtable" G.sc
Substitution2: "'aalt' Access All Alternates in Latin lookup 0 subtable" G.sc
EndChar

StartChar: h
Encoding: 104 104 73
Width: 529
Flags: W
LayerCount: 2
Back
Fore
SplineSet
292 0 m 1,0,-1
 338 267 l 2,1,2
 344 303 344 303 344 330 c 0,3,4
 344 372 344 372 327.5 391 c 128,-1,5
 311 410 311 410 276 410 c 0,6,7
 249 410 249 410 227 397.5 c 128,-1,8
 205 385 205 385 185 361 c 1,9,-1
 121 0 l 1,10,-1
 8 0 l 1,11,-1
 140 750 l 1,12,-1
 254 750 l 1,13,-1
 203 462 l 1,14,15
 226 482 226 482 252.5 494 c 128,-1,16
 279 506 279 506 302 506 c 0,17,18
 345 506 345 506 375 494.5 c 128,-1,19
 405 483 405 483 424 462 c 128,-1,20
 443 441 443 441 451.5 411 c 128,-1,21
 460 381 460 381 460 344 c 0,22,23
 460 326 460 326 458.5 306.5 c 128,-1,24
 457 287 457 287 453 267 c 2,25,-1
 406 0 l 1,26,-1
 292 0 l 1,0,-1
EndSplineSet
Substitution2: "'smcp' Lowercase to Small Capitals in Latin lookup 1 subtable" H.sc
Substitution2: "'aalt' Access All Alternates in Latin lookup 0 subtable" H.sc
EndChar

StartChar: i
Encoding: 105 105 74
Width: 235
Flags: W
LayerCount: 2
Back
Fore
SplineSet
113 583 m 1,0,-1
 132 700 l 1,1,-1
 247 700 l 1,2,-1
 226 583 l 1,3,-1
 113 583 l 1,0,-1
9 0 m 1,4,-1
 97 497 l 1,5,-1
 211 497 l 1,6,-1
 124 0 l 1,7,-1
 9 0 l 1,4,-1
EndSplineSet
Substitution2: "'smcp' Lowercase to Small Capitals in Latin lookup 1 subtable" I.sc
Substitution2: "'aalt' Access All Alternates in Latin lookup 0 subtable" I.sc
EndChar

StartChar: j
Encoding: 106 106 75
Width: 235
Flags: W
LayerCount: 2
Back
Fore
SplineSet
-82 -242 m 1,0,-1
 -76 -150 l 1,1,2
 -58 -149 -58 -149 -47 -146.5 c 128,-1,3
 -36 -144 -36 -144 -29 -135.5 c 128,-1,4
 -22 -127 -22 -127 -17.5 -110.5 c 128,-1,5
 -13 -94 -13 -94 -8 -64 c 2,6,-1
 91 497 l 1,7,-1
 206 497 l 1,8,-1
 99 -110 l 2,9,10
 88 -170 88 -170 55.5 -204 c 128,-1,11
 23 -238 23 -238 -40 -240 c 2,12,-1
 -82 -242 l 1,0,-1
107 583 m 1,13,-1
 127 700 l 1,14,-1
 242 700 l 1,15,-1
 221 583 l 1,16,-1
 107 583 l 1,13,-1
EndSplineSet
Substitution2: "'smcp' Lowercase to Small Capitals in Latin lookup 1 subtable" J.sc
Substitution2: "'aalt' Access All Alternates in Latin lookup 0 subtable" J.sc
EndChar

StartChar: k
Encoding: 107 107 76
Width: 465
Flags: W
LayerCount: 2
Back
Fore
SplineSet
8 0 m 1,0,-1
 140 750 l 1,1,-1
 255 750 l 1,2,-1
 173 287 l 1,3,-1
 352 497 l 1,4,-1
 480 497 l 1,5,-1
 275 261 l 1,6,-1
 391 0 l 1,7,-1
 264 0 l 1,8,-1
 163 230 l 1,9,-1
 123 0 l 1,10,-1
 8 0 l 1,0,-1
EndSplineSet
Substitution2: "'smcp' Lowercase to Small Capitals in Latin lookup 1 subtable" K.sc
Substitution2: "'aalt' Access All Alternates in Latin lookup 0 subtable" K.sc
EndChar

StartChar: l
Encoding: 108 108 77
Width: 255
Flags: W
LayerCount: 2
Back
Fore
SplineSet
163 -10 m 1,0,-1
 121 -10 l 2,1,2
 70 -10 70 -10 47.5 17.5 c 128,-1,3
 25 45 25 45 25 86 c 0,4,5
 25 100 25 100 28 117 c 2,6,-1
 140 750 l 1,7,-1
 254 750 l 1,8,-1
 151 168 l 2,9,10
 145 133 145 133 145 116 c 0,11,12
 145 93 145 93 155.5 88 c 128,-1,13
 166 83 166 83 189 83 c 1,14,-1
 163 -10 l 1,0,-1
EndSplineSet
Substitution2: "'smcp' Lowercase to Small Capitals in Latin lookup 1 subtable" L.sc
Substitution2: "'aalt' Access All Alternates in Latin lookup 0 subtable" L.sc
EndChar

StartChar: m
Encoding: 109 109 78
Width: 827
Flags: W
LayerCount: 2
Back
Fore
SplineSet
574 0 m 1,0,-1
 622 275 l 2,1,2
 628 311 628 311 628 337 c 0,3,4
 628 374 628 374 613.5 392 c 128,-1,5
 599 410 599 410 564 410 c 0,6,7
 537 410 537 410 518.5 400.5 c 128,-1,8
 500 391 500 391 487.5 375 c 128,-1,9
 475 359 475 359 468 339.5 c 128,-1,10
 461 320 461 320 458 301 c 2,11,-1
 406 0 l 1,12,-1
 292 0 l 1,13,-1
 339 269 l 2,14,15
 343 290 343 290 344.5 306.5 c 128,-1,16
 346 323 346 323 346 337 c 0,17,18
 346 379 346 379 328.5 394.5 c 128,-1,19
 311 410 311 410 275 410 c 0,20,21
 224 410 224 410 187 362 c 1,22,-1
 123 0 l 1,23,-1
 9 0 l 1,24,-1
 96 497 l 1,25,-1
 190 497 l 1,26,-1
 190 454 l 1,27,28
 212 478 212 478 244.5 492 c 128,-1,29
 277 506 277 506 312 506 c 0,30,31
 351 506 351 506 385.5 487.5 c 128,-1,32
 420 469 420 469 434 423 c 1,33,34
 442 438 442 438 457 453 c 128,-1,35
 472 468 472 468 493 480 c 128,-1,36
 514 492 514 492 540.5 499 c 128,-1,37
 567 506 567 506 597 506 c 0,38,39
 672 506 672 506 708 464 c 128,-1,40
 744 422 744 422 744 347 c 0,41,42
 744 330 744 330 742 312.5 c 128,-1,43
 740 295 740 295 737 275 c 2,44,-1
 689 0 l 1,45,-1
 574 0 l 1,0,-1
EndSplineSet
Substitution2: "'smcp' Lowercase to Small Capitals in Latin lookup 1 subtable" M.sc
Substitution2: "'aalt' Access All Alternates in Latin lookup 0 subtable" M.sc
EndChar

StartChar: n
Encoding: 110 110 79
Width: 531
Flags: W
LayerCount: 2
Back
Fore
SplineSet
292 0 m 1,0,-1
 339 269 l 2,1,2
 345 303 345 303 345 330 c 0,3,4
 345 410 345 410 277 410 c 0,5,6
 249 410 249 410 228 397.5 c 128,-1,7
 207 385 207 385 187 361 c 1,8,-1
 123 0 l 1,9,-1
 9 0 l 1,10,-1
 96 497 l 1,11,-1
 194 497 l 1,12,-1
 199 460 l 1,13,14
 222 483 222 483 249 494.5 c 128,-1,15
 276 506 276 506 302 506 c 0,16,17
 345 506 345 506 375 495 c 128,-1,18
 405 484 405 484 424 463 c 128,-1,19
 443 442 443 442 451.5 412.5 c 128,-1,20
 460 383 460 383 460 346 c 0,21,22
 460 328 460 328 458.5 309 c 128,-1,23
 457 290 457 290 453 269 c 2,24,-1
 406 0 l 1,25,-1
 292 0 l 1,0,-1
EndSplineSet
Substitution2: "'smcp' Lowercase to Small Capitals in Latin lookup 1 subtable" N.sc
Substitution2: "'aalt' Access All Alternates in Latin lookup 0 subtable" N.sc
EndChar

StartChar: o
Encoding: 111 111 80
Width: 539
Flags: W
LayerCount: 2
Back
Fore
SplineSet
207 -10 m 0,0,1
 160 -10 160 -10 125 6.5 c 128,-1,2
 90 23 90 23 66.5 51.5 c 128,-1,3
 43 80 43 80 31 118 c 128,-1,4
 19 156 19 156 19 200 c 0,5,6
 19 260 19 260 39 315.5 c 128,-1,7
 59 371 59 371 96 413 c 128,-1,8
 133 455 133 455 184.5 480.5 c 128,-1,9
 236 506 236 506 298 506 c 0,10,11
 344 506 344 506 379.5 489.5 c 128,-1,12
 415 473 415 473 438.5 444.5 c 128,-1,13
 462 416 462 416 474 377.5 c 128,-1,14
 486 339 486 339 486 295 c 0,15,16
 486 235 486 235 465.5 180 c 128,-1,17
 445 125 445 125 408.5 82.5 c 128,-1,18
 372 40 372 40 320.5 15 c 128,-1,19
 269 -10 269 -10 207 -10 c 0,0,1
281 410 m 0,20,21
 248 410 248 410 221 394 c 128,-1,22
 194 378 194 378 175.5 350.5 c 128,-1,23
 157 323 157 323 146.5 286 c 128,-1,24
 136 249 136 249 136 206 c 0,25,26
 136 151 136 151 158 118 c 128,-1,27
 180 85 180 85 224 85 c 0,28,29
 257 85 257 85 283.5 101 c 128,-1,30
 310 117 310 117 329 144.5 c 128,-1,31
 348 172 348 172 358.5 209.5 c 128,-1,32
 369 247 369 247 369 290 c 0,33,34
 369 345 369 345 346.5 377.5 c 128,-1,35
 324 410 324 410 281 410 c 0,20,21
EndSplineSet
Substitution2: "'smcp' Lowercase to Small Capitals in Latin lookup 1 subtable" O.sc
Substitution2: "'aalt' Access All Alternates in Latin lookup 0 subtable" O.sc
EndChar

StartChar: p
Encoding: 112 112 81
Width: 549
Flags: W
LayerCount: 2
Back
Fore
SplineSet
224 -10 m 0,0,1
 188 -10 188 -10 167.5 1.5 c 128,-1,2
 147 13 147 13 129 36 c 1,3,-1
 80 -242 l 1,4,-1
 -34 -242 l 1,5,-1
 96 497 l 1,6,-1
 196 497 l 1,7,-1
 198 455 l 1,8,9
 224 479 224 479 251.5 492.5 c 128,-1,10
 279 506 279 506 315 506 c 0,11,12
 361 506 361 506 395.5 489.5 c 128,-1,13
 430 473 430 473 452.5 444.5 c 128,-1,14
 475 416 475 416 486 378 c 128,-1,15
 497 340 497 340 497 298 c 0,16,17
 497 238 497 238 478 182.5 c 128,-1,18
 459 127 459 127 424 84.5 c 128,-1,19
 389 42 389 42 338 16 c 128,-1,20
 287 -10 287 -10 224 -10 c 0,0,1
291 410 m 0,21,22
 262 410 262 410 237 397 c 128,-1,23
 212 384 212 384 193.5 357.5 c 128,-1,24
 175 331 175 331 164.5 290 c 128,-1,25
 154 249 154 249 154 192 c 0,26,27
 154 141 154 141 173 113 c 128,-1,28
 192 85 192 85 233 85 c 0,29,30
 266 85 266 85 292.5 101.5 c 128,-1,31
 319 118 319 118 338.5 145.5 c 128,-1,32
 358 173 358 173 368.5 210 c 128,-1,33
 379 247 379 247 379 288 c 0,34,35
 379 342 379 342 357 376 c 128,-1,36
 335 410 335 410 291 410 c 0,21,22
EndSplineSet
Substitution2: "'smcp' Lowercase to Small Capitals in Latin lookup 1 subtable" P.sc
Substitution2: "'aalt' Access All Alternates in Latin lookup 0 subtable" P.sc
EndChar

StartChar: q
Encoding: 113 113 82
Width: 549
Flags: W
LayerCount: 2
Back
Fore
SplineSet
202 -10 m 0,0,1
 156 -10 156 -10 121.5 6 c 128,-1,2
 87 22 87 22 64.5 50 c 128,-1,3
 42 78 42 78 30.5 116 c 128,-1,4
 19 154 19 154 19 197 c 0,5,6
 19 256 19 256 38 311.5 c 128,-1,7
 57 367 57 367 92.5 410.5 c 128,-1,8
 128 454 128 454 179 480 c 128,-1,9
 230 506 230 506 293 506 c 0,10,11
 329 506 329 506 351 492.5 c 128,-1,12
 373 479 373 479 392 455 c 1,13,-1
 408 497 l 1,14,-1
 508 497 l 1,15,-1
 378 -242 l 1,16,-1
 263 -242 l 1,17,-1
 313 36 l 1,18,19
 287 13 287 13 262 1.5 c 128,-1,20
 237 -10 237 -10 202 -10 c 0,0,1
283 410 m 0,21,22
 250 410 250 410 223.5 394 c 128,-1,23
 197 378 197 378 178 350 c 128,-1,24
 159 322 159 322 148.5 285.5 c 128,-1,25
 138 249 138 249 138 207 c 0,26,27
 138 154 138 154 159.5 119.5 c 128,-1,28
 181 85 181 85 226 85 c 0,29,30
 255 85 255 85 280 97.5 c 128,-1,31
 305 110 305 110 323.5 137 c 128,-1,32
 342 164 342 164 352.5 205 c 128,-1,33
 363 246 363 246 363 303 c 0,34,35
 363 353 363 353 343.5 381.5 c 128,-1,36
 324 410 324 410 283 410 c 0,21,22
EndSplineSet
Substitution2: "'smcp' Lowercase to Small Capitals in Latin lookup 1 subtable" Q.sc
Substitution2: "'aalt' Access All Alternates in Latin lookup 0 subtable" Q.sc
EndChar

StartChar: r
Encoding: 114 114 83
Width: 331
Flags: W
LayerCount: 2
Back
Fore
SplineSet
315 397 m 1,0,-1
 272 397 l 2,1,2
 244 397 244 397 220 380.5 c 128,-1,3
 196 364 196 364 183 343 c 1,4,-1
 122 0 l 1,5,-1
 8 0 l 1,6,-1
 96 497 l 1,7,-1
 204 497 l 1,8,-1
 195 435 l 1,9,10
 215 465 215 465 251 486.5 c 128,-1,11
 287 508 287 508 325 508 c 2,12,-1
 356 508 l 1,13,-1
 315 397 l 1,0,-1
EndSplineSet
Substitution2: "'smcp' Lowercase to Small Capitals in Latin lookup 1 subtable" R.sc
Substitution2: "'aalt' Access All Alternates in Latin lookup 0 subtable" R.sc
EndChar

StartChar: s
Encoding: 115 115 84
Width: 409
Flags: W
LayerCount: 2
Back
Fore
SplineSet
137 -10 m 0,0,1
 80 -10 80 -10 43 2.5 c 128,-1,2
 6 15 6 15 -11 29 c 1,3,-1
 16 129 l 1,4,5
 25 121 25 121 39.5 112 c 128,-1,6
 54 103 54 103 71.5 95.5 c 128,-1,7
 89 88 89 88 108.5 83.5 c 128,-1,8
 128 79 128 79 148 79 c 0,9,10
 189 79 189 79 206 98.5 c 128,-1,11
 223 118 223 118 223 143 c 0,12,13
 223 158 223 158 217.5 168.5 c 128,-1,14
 212 179 212 179 203 186.5 c 128,-1,15
 194 194 194 194 181 199.5 c 128,-1,16
 168 205 168 205 153 210 c 0,17,18
 132 217 132 217 113 225 c 128,-1,19
 94 233 94 233 79 246 c 128,-1,20
 64 259 64 259 55 277.5 c 128,-1,21
 46 296 46 296 46 325 c 0,22,23
 46 352 46 352 55.5 384 c 128,-1,24
 65 416 65 416 87.5 443 c 128,-1,25
 110 470 110 470 147.5 488 c 128,-1,26
 185 506 185 506 240 506 c 0,27,28
 286 506 286 506 324 494.5 c 128,-1,29
 362 483 362 483 378 470 c 1,30,-1
 351 372 l 1,31,32
 344 381 344 381 332 390 c 128,-1,33
 320 399 320 399 304.5 406 c 128,-1,34
 289 413 289 413 271.5 417.5 c 128,-1,35
 254 422 254 422 236 422 c 0,36,37
 220 422 220 422 204.5 418 c 128,-1,38
 189 414 189 414 177 406 c 128,-1,39
 165 398 165 398 157.5 386 c 128,-1,40
 150 374 150 374 150 357 c 0,41,42
 150 341 150 341 157 331 c 128,-1,43
 164 321 164 321 176.5 314 c 128,-1,44
 189 307 189 307 205.5 301.5 c 128,-1,45
 222 296 222 296 241 289 c 256,46,47
 260 282 260 282 278 273.5 c 128,-1,48
 296 265 296 265 310 251.5 c 128,-1,49
 324 238 324 238 332.5 217 c 128,-1,50
 341 196 341 196 341 164 c 0,51,52
 341 134 341 134 331.5 103 c 128,-1,53
 322 72 322 72 298.5 47 c 128,-1,54
 275 22 275 22 236 6 c 128,-1,55
 197 -10 197 -10 137 -10 c 0,0,1
EndSplineSet
Substitution2: "'smcp' Lowercase to Small Capitals in Latin lookup 1 subtable" S.sc
Substitution2: "'aalt' Access All Alternates in Latin lookup 0 subtable" S.sc
EndChar

StartChar: t
Encoding: 116 116 85
Width: 329
Flags: W
LayerCount: 2
Back
Fore
SplineSet
229 -10 m 1,0,-1
 149 -10 l 2,1,2
 122 -10 122 -10 102.5 -2 c 128,-1,3
 83 6 83 6 70.5 19.5 c 128,-1,4
 58 33 58 33 52.5 51 c 128,-1,5
 47 69 47 69 47 89 c 0,6,7
 47 103 47 103 50 117 c 2,8,-1
 101 405 l 1,9,-1
 38 405 l 1,10,-1
 64 497 l 1,11,-1
 117 497 l 1,12,-1
 138 610 l 1,13,-1
 254 622 l 1,14,-1
 231 497 l 1,15,-1
 329 497 l 1,16,-1
 313 405 l 1,17,-1
 215 405 l 1,18,-1
 173 169 l 2,19,20
 170 152 170 152 168 138.5 c 128,-1,21
 166 125 166 125 166 116 c 0,22,23
 166 93 166 93 179 88 c 128,-1,24
 192 83 192 83 225 83 c 2,25,-1
 256 83 l 1,26,-1
 229 -10 l 1,0,-1
EndSplineSet
Substitution2: "'smcp' Lowercase to Small Capitals in Latin lookup 1 subtable" T.sc
Substitution2: "'aalt' Access All Alternates in Latin lookup 0 subtable" T.sc
EndChar

StartChar: u
Encoding: 117 117 86
Width: 527
Flags: W
LayerCount: 2
Back
Fore
SplineSet
296 0 m 1,0,-1
 301 37 l 1,1,2
 278 16 278 16 249.5 3 c 128,-1,3
 221 -10 221 -10 195 -10 c 0,4,5
 109 -10 109 -10 72 31 c 128,-1,6
 35 72 35 72 35 145 c 0,7,8
 35 163 35 163 37 182.5 c 128,-1,9
 39 202 39 202 43 223 c 2,10,-1
 91 497 l 1,11,-1
 206 497 l 1,12,-1
 159 231 l 2,13,14
 153 196 153 196 153 170 c 0,15,16
 153 128 153 128 169.5 107.5 c 128,-1,17
 186 87 186 87 222 87 c 0,18,19
 249 87 249 87 270.5 98.5 c 128,-1,20
 292 110 292 110 312 133 c 1,21,-1
 377 497 l 1,22,-1
 491 497 l 1,23,-1
 403 0 l 1,24,-1
 296 0 l 1,0,-1
EndSplineSet
Substitution2: "'smcp' Lowercase to Small Capitals in Latin lookup 1 subtable" U.sc
Substitution2: "'aalt' Access All Alternates in Latin lookup 0 subtable" U.sc
EndChar

StartChar: v
Encoding: 118 118 87
Width: 471
Flags: W
LayerCount: 2
Back
Fore
SplineSet
230 0 m 1,0,-1
 131 0 l 1,1,-1
 38 497 l 1,2,-1
 151 497 l 1,3,-1
 204 137 l 1,4,-1
 385 497 l 1,5,-1
 498 497 l 1,6,-1
 230 0 l 1,0,-1
EndSplineSet
Substitution2: "'smcp' Lowercase to Small Capitals in Latin lookup 1 subtable" V.sc
Substitution2: "'aalt' Access All Alternates in Latin lookup 0 subtable" V.sc
EndChar

StartChar: w
Encoding: 119 119 88
Width: 691
Flags: W
LayerCount: 2
Back
Fore
SplineSet
465 0 m 1,0,-1
 371 0 l 1,1,-1
 338 337 l 1,2,-1
 186 0 l 1,3,-1
 93 0 l 1,4,-1
 49 497 l 1,5,-1
 159 497 l 1,6,-1
 171 135 l 1,7,-1
 317 485 l 1,8,-1
 412 485 l 1,9,-1
 433 135 l 1,10,-1
 574 497 l 1,11,-1
 684 497 l 1,12,-1
 465 0 l 1,0,-1
EndSplineSet
Substitution2: "'smcp' Lowercase to Small Capitals in Latin lookup 1 subtable" W.sc
Substitution2: "'aalt' Access All Alternates in Latin lookup 0 subtable" W.sc
EndChar

StartChar: x
Encoding: 120 120 89
Width: 470
Flags: W
LayerCount: 2
Back
Fore
SplineSet
269 0 m 1,0,-1
 209 161 l 1,1,-1
 98 0 l 1,2,-1
 -37 0 l 1,3,-1
 159 249 l 1,4,-1
 51 497 l 1,5,-1
 186 497 l 1,6,-1
 243 327 l 1,7,-1
 356 497 l 1,8,-1
 492 497 l 1,9,-1
 291 246 l 1,10,-1
 404 0 l 1,11,-1
 269 0 l 1,0,-1
EndSplineSet
Substitution2: "'smcp' Lowercase to Small Capitals in Latin lookup 1 subtable" X.sc
Substitution2: "'aalt' Access All Alternates in Latin lookup 0 subtable" X.sc
EndChar

StartChar: y
Encoding: 121 121 90
Width: 506
Flags: W
LayerCount: 2
Back
Fore
SplineSet
109 -242 m 1,0,-1
 -5 -242 l 1,1,-1
 143 30 l 1,2,-1
 38 497 l 1,3,-1
 165 497 l 1,4,-1
 219 162 l 1,5,-1
 395 497 l 1,6,-1
 521 497 l 1,7,-1
 109 -242 l 1,0,-1
EndSplineSet
Substitution2: "'smcp' Lowercase to Small Capitals in Latin lookup 1 subtable" Y.sc
Substitution2: "'aalt' Access All Alternates in Latin lookup 0 subtable" Y.sc
EndChar

StartChar: z
Encoding: 122 122 91
Width: 454
Flags: W
LayerCount: 2
Back
Fore
SplineSet
183 98 m 1,0,-1
 369 98 l 1,1,-1
 351 0 l 1,2,-1
 -27 0 l 1,3,-1
 239 399 l 1,4,-1
 53 399 l 1,5,-1
 69 497 l 1,6,-1
 449 497 l 1,7,-1
 183 98 l 1,0,-1
EndSplineSet
Substitution2: "'smcp' Lowercase to Small Capitals in Latin lookup 1 subtable" Z.sc
Substitution2: "'aalt' Access All Alternates in Latin lookup 0 subtable" Z.sc
EndChar

StartChar: braceleft
Encoding: 123 123 92
Width: 306
Flags: W
LayerCount: 2
Back
Fore
SplineSet
34 -10 m 0,0,1
 34 13 34 13 40 39.5 c 128,-1,2
 46 66 46 66 53.5 93.5 c 128,-1,3
 61 121 61 121 67.5 149 c 128,-1,4
 74 177 74 177 74 203 c 0,5,6
 74 238 74 238 61.5 263 c 128,-1,7
 49 288 49 288 20 307 c 1,8,9
 42 319 42 319 58.5 332.5 c 128,-1,10
 75 346 75 346 87 363 c 128,-1,11
 99 380 99 380 107 401 c 128,-1,12
 115 422 115 422 120 451 c 0,13,14
 126 485 126 485 129.5 523 c 128,-1,15
 133 561 133 561 138 590 c 0,16,17
 145 628 145 628 160 657.5 c 128,-1,18
 175 687 175 687 201 707 c 128,-1,19
 227 727 227 727 267 738 c 128,-1,20
 307 749 307 749 363 750 c 1,21,-1
 345 653 l 1,22,23
 306 653 306 653 283.5 647 c 128,-1,24
 261 641 261 641 248 625 c 128,-1,25
 235 609 235 609 228 579.5 c 128,-1,26
 221 550 221 550 213 503 c 0,27,28
 209 483 209 483 207 461.5 c 128,-1,29
 205 440 205 440 201 420 c 0,30,31
 195 388 195 388 182 359.5 c 128,-1,32
 169 331 169 331 137 307 c 1,33,34
 154 291 154 291 160 272 c 128,-1,35
 166 253 166 253 166 233 c 0,36,37
 166 209 166 209 160.5 188 c 128,-1,38
 155 167 155 167 148.5 144.5 c 128,-1,39
 142 122 142 122 136.5 96 c 128,-1,40
 131 70 131 70 131 35 c 0,41,42
 131 -9 131 -9 151 -23.5 c 128,-1,43
 171 -38 171 -38 224 -39 c 1,44,-1
 206 -136 l 1,45,46
 114 -134 114 -134 74 -103 c 128,-1,47
 34 -72 34 -72 34 -10 c 0,0,1
EndSplineSet
EndChar

StartChar: bar
Encoding: 124 124 93
Width: 229
Flags: W
LayerCount: 2
Back
Fore
SplineSet
-21 -210 m 1,0,-1
 148 750 l 1,1,-1
 239 750 l 1,2,-1
 69 -210 l 1,3,-1
 -21 -210 l 1,0,-1
EndSplineSet
EndChar

StartChar: braceright
Encoding: 125 125 94
Width: 305
Flags: W
LayerCount: 2
Back
Fore
SplineSet
161 24 m 0,0,1
 154 -15 154 -15 138.5 -45 c 128,-1,2
 123 -75 123 -75 96 -95 c 128,-1,3
 69 -115 69 -115 30 -125 c 128,-1,4
 -9 -135 -9 -135 -63 -136 c 1,5,-1
 -47 -39 l 1,6,7
 -7 -39 -7 -39 16 -33 c 128,-1,8
 39 -27 39 -27 51.5 -10.5 c 128,-1,9
 64 6 64 6 71 35.5 c 128,-1,10
 78 65 78 65 87 112 c 0,11,12
 92 137 92 137 94 159.5 c 128,-1,13
 96 182 96 182 100 202 c 0,14,15
 105 234 105 234 117.5 259 c 128,-1,16
 130 284 130 284 162 307 c 1,17,18
 146 323 146 323 140 344 c 128,-1,19
 134 365 134 365 134 386 c 0,20,21
 134 405 134 405 139.5 423.5 c 128,-1,22
 145 442 145 442 151.5 464.5 c 128,-1,23
 158 487 158 487 163.5 515 c 128,-1,24
 169 543 169 543 169 580 c 0,25,26
 169 623 169 623 149 638 c 128,-1,27
 129 653 129 653 76 653 c 1,28,-1
 93 750 l 1,29,30
 140 750 140 750 173 741 c 128,-1,31
 206 732 206 732 226.5 716 c 128,-1,32
 247 700 247 700 256 676.5 c 128,-1,33
 265 653 265 653 265 624 c 0,34,35
 265 601 265 601 258.5 575 c 128,-1,36
 252 549 252 549 244.5 521 c 128,-1,37
 237 493 237 493 231 465.5 c 128,-1,38
 225 438 225 438 225 412 c 0,39,40
 225 374 225 374 238 350 c 128,-1,41
 251 326 251 326 280 307 c 1,42,43
 256 294 256 294 239 280 c 128,-1,44
 222 266 222 266 210.5 249 c 128,-1,45
 199 232 199 232 191.5 211 c 128,-1,46
 184 190 184 190 180 164 c 0,47,48
 174 129 174 129 170 91 c 128,-1,49
 166 53 166 53 161 24 c 0,0,1
EndSplineSet
EndChar

StartChar: asciitilde
Encoding: 126 126 95
Width: 454
Flags: W
LayerCount: 2
Back
Fore
SplineSet
264 177 m 0,0,1
 245 177 245 177 231 184 c 128,-1,2
 217 191 217 191 205 199.5 c 128,-1,3
 193 208 193 208 182 215 c 128,-1,4
 171 222 171 222 158 222 c 0,5,6
 138 222 138 222 126 206.5 c 128,-1,7
 114 191 114 191 108 174 c 1,8,-1
 33 191 l 1,9,10
 39 216 39 216 53.5 234.5 c 128,-1,11
 68 253 68 253 86.5 265 c 128,-1,12
 105 277 105 277 125.5 283 c 128,-1,13
 146 289 146 289 165 289 c 0,14,15
 186 289 186 289 198.5 282 c 128,-1,16
 211 275 211 275 221 267 c 128,-1,17
 231 259 231 259 239.5 252 c 128,-1,18
 248 245 248 245 261 245 c 0,19,20
 282 245 282 245 298.5 260 c 128,-1,21
 315 275 315 275 320 293 c 1,22,-1
 389 276 l 1,23,24
 383 256 383 256 371.5 238.5 c 128,-1,25
 360 221 360 221 344 207 c 128,-1,26
 328 193 328 193 308 185 c 128,-1,27
 288 177 288 177 264 177 c 0,0,1
EndSplineSet
EndChar

StartChar: exclamdown
Encoding: 161 161 97
Width: 243
Flags: W
LayerCount: 2
Back
Fore
SplineSet
81 300 m 1,0,-1
 158 300 l 1,1,-1
 79 -250 l 1,2,-1
 -33 -250 l 1,3,-1
 81 300 l 1,0,-1
213 500 m 1,4,-1
 193 388 l 1,5,-1
 78 388 l 1,6,-1
 97 500 l 1,7,-1
 213 500 l 1,4,-1
EndSplineSet
EndChar

StartChar: cent
Encoding: 162 162 98
Width: 455
Flags: W
LayerCount: 2
Back
Fore
SplineSet
241 -32 m 1,0,-1
 144 -32 l 1,1,-1
 179 90 l 1,2,3
 144 96 144 96 118 113.5 c 128,-1,4
 92 131 92 131 74.5 157.5 c 128,-1,5
 57 184 57 184 48.5 218 c 128,-1,6
 40 252 40 252 40 291 c 0,7,8
 40 349 40 349 56.5 402 c 128,-1,9
 73 455 73 455 103 497.5 c 128,-1,10
 133 540 133 540 175.5 568.5 c 128,-1,11
 218 597 218 597 270 605 c 1,12,-1
 281 748 l 1,13,-1
 379 748 l 1,14,-1
 340 607 l 1,15,16
 379 604 379 604 401 595 c 128,-1,17
 423 586 423 586 440 572 c 1,18,-1
 413 475 l 1,19,20
 363 513 363 513 308 513 c 0,21,22
 272 513 272 513 244.5 496 c 128,-1,23
 217 479 217 479 198 450 c 128,-1,24
 179 421 179 421 169 383 c 128,-1,25
 159 345 159 345 159 303 c 0,26,27
 159 249 159 249 181 216 c 128,-1,28
 203 183 203 183 250 183 c 0,29,30
 306 183 306 183 368 221 c 1,31,-1
 361 124 l 1,32,33
 340 111 340 111 314 101 c 128,-1,34
 288 91 288 91 247 88 c 1,35,-1
 241 -32 l 1,0,-1
EndSplineSet
EndChar

StartChar: sterling
Encoding: 163 163 99
Width: 499
Flags: W
LayerCount: 2
Back
Fore
SplineSet
433 557 m 1,0,1
 428 587 428 587 416 600 c 128,-1,2
 404 613 404 613 376 613 c 0,3,4
 353 613 353 613 338.5 605 c 128,-1,5
 324 597 324 597 315 580.5 c 128,-1,6
 306 564 306 564 300 539.5 c 128,-1,7
 294 515 294 515 288 482 c 2,8,-1
 274 403 l 1,9,-1
 440 403 l 1,10,-1
 401 305 l 1,11,-1
 253 305 l 1,12,13
 246 274 246 274 240 250.5 c 128,-1,14
 234 227 234 227 226.5 206 c 128,-1,15
 219 185 219 185 209 162.5 c 128,-1,16
 199 140 199 140 184 112 c 1,17,-1
 393 112 l 1,18,-1
 373 0 l 1,19,-1
 -19 0 l 1,20,21
 14 35 14 35 38.5 70 c 128,-1,22
 63 105 63 105 82 142.5 c 128,-1,23
 101 180 101 180 115 220 c 128,-1,24
 129 260 129 260 141 305 c 1,25,-1
 61 305 l 1,26,-1
 101 403 l 1,27,-1
 164 403 l 1,28,-1
 181 503 l 2,29,30
 188 541 188 541 200.5 577.5 c 128,-1,31
 213 614 213 614 235.5 643 c 128,-1,32
 258 672 258 672 293 690 c 128,-1,33
 328 708 328 708 381 708 c 0,34,35
 407 708 407 708 430.5 702.5 c 128,-1,36
 454 697 454 697 472 685.5 c 128,-1,37
 490 674 490 674 501.5 657 c 128,-1,38
 513 640 513 640 514 617 c 1,39,-1
 433 557 l 1,0,1
EndSplineSet
EndChar

StartChar: currency
Encoding: 164 164 100
Width: 606
Flags: W
LayerCount: 2
Back
Fore
SplineSet
423 22 m 1,0,-1
 374 122 l 1,1,2
 324 91 324 91 257 91 c 256,3,4
 190 91 190 91 152 122 c 1,5,-1
 68 22 l 1,6,-1
 19 64 l 1,7,-1
 101 163 l 1,8,9
 85 190 85 190 77 226.5 c 128,-1,10
 69 263 69 263 69 299 c 0,11,12
 69 365 69 365 94.5 424 c 128,-1,13
 120 483 120 483 167 533 c 1,14,-1
 119 632 l 1,15,-1
 183 674 l 1,16,-1
 231 574 l 1,17,18
 284 605 284 605 348 605 c 0,19,20
 413 605 413 605 454 573 c 1,21,-1
 539 674 l 1,22,-1
 587 632 l 1,23,-1
 504 532 l 1,24,25
 520 505 520 505 528 468.5 c 128,-1,26
 536 432 536 432 536 396 c 0,27,28
 536 329 536 329 510 270.5 c 128,-1,29
 484 212 484 212 439 162 c 1,30,-1
 487 64 l 1,31,-1
 423 22 l 1,0,-1
332 516 m 0,32,33
 300 516 300 516 273 499 c 128,-1,34
 246 482 246 482 227 453 c 128,-1,35
 208 424 208 424 197.5 385.5 c 128,-1,36
 187 347 187 347 187 305 c 0,37,38
 187 250 187 250 208.5 215 c 128,-1,39
 230 180 230 180 273 180 c 0,40,41
 305 180 305 180 332 197 c 128,-1,42
 359 214 359 214 378 243 c 128,-1,43
 397 272 397 272 407.5 310.5 c 128,-1,44
 418 349 418 349 418 391 c 0,45,46
 418 446 418 446 396.5 481 c 128,-1,47
 375 516 375 516 332 516 c 0,32,33
EndSplineSet
EndChar

StartChar: yen
Encoding: 165 165 101
Width: 669
Flags: W
LayerCount: 2
Back
Fore
SplineSet
405 330 m 1,0,-1
 536 330 l 1,1,-1
 501 266 l 1,2,-1
 377 266 l 1,3,-1
 366 205 l 1,4,-1
 514 205 l 1,5,-1
 479 140 l 1,6,-1
 354 140 l 1,7,-1
 330 0 l 1,8,-1
 212 0 l 1,9,-1
 236 140 l 1,10,-1
 89 140 l 1,11,-1
 123 205 l 1,12,-1
 248 205 l 1,13,-1
 259 266 l 1,14,-1
 111 266 l 1,15,-1
 145 330 l 1,16,-1
 253 330 l 1,17,-1
 100 700 l 1,18,-1
 222 700 l 1,19,-1
 344 414 l 1,20,-1
 566 700 l 1,21,-1
 689 700 l 1,22,-1
 405 330 l 1,0,-1
EndSplineSet
EndChar

StartChar: brokenbar
Encoding: 166 166 102
Width: 223
Flags: W
LayerCount: 2
Back
Fore
SplineSet
69 291 m 1,0,-1
 150 750 l 1,1,-1
 229 750 l 1,2,-1
 149 291 l 1,3,-1
 69 291 l 1,0,-1
-19 -210 m 1,4,-1
 50 182 l 1,5,-1
 129 182 l 1,6,-1
 60 -210 l 1,7,-1
 -19 -210 l 1,4,-1
EndSplineSet
EndChar

StartChar: section
Encoding: 167 167 103
Width: 445
Flags: W
LayerCount: 2
Back
Fore
SplineSet
293 187 m 1,0,1
 303 170 303 170 309 150 c 128,-1,2
 315 130 315 130 315 106 c 0,3,4
 315 79 315 79 306.5 46 c 128,-1,5
 298 13 298 13 276.5 -16 c 128,-1,6
 255 -45 255 -45 219 -65 c 128,-1,7
 183 -85 183 -85 128 -85 c 0,8,9
 110 -85 110 -85 91 -81.5 c 128,-1,10
 72 -78 72 -78 55.5 -72.5 c 128,-1,11
 39 -67 39 -67 26 -59.5 c 128,-1,12
 13 -52 13 -52 7 -44 c 1,13,-1
 31 48 l 1,14,15
 53 28 53 28 83 14 c 128,-1,16
 113 0 113 0 139 0 c 0,17,18
 155 0 155 0 172 4 c 128,-1,19
 189 8 189 8 202 17 c 128,-1,20
 215 26 215 26 223.5 41 c 128,-1,21
 232 56 232 56 232 78 c 0,22,23
 232 102 232 102 218.5 117 c 128,-1,24
 205 132 205 132 184 143.5 c 128,-1,25
 163 155 163 155 139.5 166 c 128,-1,26
 116 177 116 177 95 193.5 c 128,-1,27
 74 210 74 210 60.5 234.5 c 128,-1,28
 47 259 47 259 47 299 c 0,29,30
 47 360 47 360 73 408 c 128,-1,31
 99 456 99 456 151 479 c 1,32,33
 140 495 140 495 135 515 c 128,-1,34
 130 535 130 535 130 558 c 0,35,36
 130 585 130 585 138.5 618.5 c 128,-1,37
 147 652 147 652 168.5 681 c 128,-1,38
 190 710 190 710 226 730 c 128,-1,39
 262 750 262 750 317 750 c 0,40,41
 335 750 335 750 354.5 746.5 c 128,-1,42
 374 743 374 743 390.5 737 c 128,-1,43
 407 731 407 731 420 723.5 c 128,-1,44
 433 716 433 716 439 709 c 1,45,-1
 415 617 l 1,46,47
 393 637 393 637 363 651 c 128,-1,48
 333 665 333 665 307 665 c 0,49,50
 291 665 291 665 274.5 660.5 c 128,-1,51
 258 656 258 656 244.5 646.5 c 128,-1,52
 231 637 231 637 222.5 622.5 c 128,-1,53
 214 608 214 608 214 588 c 0,54,55
 214 564 214 564 227.5 549.5 c 128,-1,56
 241 535 241 535 262 523 c 128,-1,57
 283 511 283 511 306.5 499.5 c 128,-1,58
 330 488 330 488 351 471 c 128,-1,59
 372 454 372 454 385.5 428.5 c 128,-1,60
 399 403 399 403 399 364 c 0,61,62
 399 310 399 310 375 261.5 c 128,-1,63
 351 213 351 213 293 187 c 1,0,1
207 417 m 0,64,65
 199 417 199 417 187.5 412 c 128,-1,66
 176 407 176 407 165.5 397.5 c 128,-1,67
 155 388 155 388 148 373 c 128,-1,68
 141 358 141 358 141 338 c 0,69,70
 141 317 141 317 150.5 301 c 128,-1,71
 160 285 160 285 174.5 273 c 128,-1,72
 189 261 189 261 206 252.5 c 128,-1,73
 223 244 223 244 237 238 c 1,74,75
 245 240 245 240 257 248 c 128,-1,76
 269 256 269 256 280.5 268.5 c 128,-1,77
 292 281 292 281 300 296 c 128,-1,78
 308 311 308 311 308 328 c 0,79,80
 308 350 308 350 298 365 c 128,-1,81
 288 380 288 380 273 390 c 128,-1,82
 258 400 258 400 240.5 406.5 c 128,-1,83
 223 413 223 413 207 417 c 0,64,65
EndSplineSet
EndChar

StartChar: dieresis
Encoding: 168 168 104
Width: 397
Flags: W
LayerCount: 2
Back
Fore
SplineSet
321 596 m 1,0,-1
 339 700 l 1,1,-1
 429 700 l 1,2,-1
 410 596 l 1,3,-1
 321 596 l 1,0,-1
187 596 m 1,4,-1
 206 700 l 1,5,-1
 295 700 l 1,6,-1
 277 596 l 1,7,-1
 187 596 l 1,4,-1
EndSplineSet
EndChar

StartChar: copyright
Encoding: 169 169 105
Width: 687
Flags: W
LayerCount: 2
Back
Fore
SplineSet
285 37 m 0,0,1
 233 37 233 37 190.5 56 c 128,-1,2
 148 75 148 75 118 109.5 c 128,-1,3
 88 144 88 144 72 192.5 c 128,-1,4
 56 241 56 241 56 301 c 0,5,6
 56 387 56 387 83.5 459 c 128,-1,7
 111 531 111 531 158.5 583 c 128,-1,8
 206 635 206 635 268.5 664 c 128,-1,9
 331 693 331 693 401 693 c 0,10,11
 453 693 453 693 495 674.5 c 128,-1,12
 537 656 537 656 567 621.5 c 128,-1,13
 597 587 597 587 613 538.5 c 128,-1,14
 629 490 629 490 629 430 c 0,15,16
 629 344 629 344 601.5 272 c 128,-1,17
 574 200 574 200 527 147.5 c 128,-1,18
 480 95 480 95 417.5 66 c 128,-1,19
 355 37 355 37 285 37 c 0,0,1
390 631 m 0,20,21
 326 631 326 631 277 604 c 128,-1,22
 228 577 228 577 194.5 532 c 128,-1,23
 161 487 161 487 144 427.5 c 128,-1,24
 127 368 127 368 127 303 c 0,25,26
 127 259 127 259 137 221.5 c 128,-1,27
 147 184 147 184 168 156.5 c 128,-1,28
 189 129 189 129 220.5 113.5 c 128,-1,29
 252 98 252 98 296 98 c 0,30,31
 359 98 359 98 408 125 c 128,-1,32
 457 152 457 152 490 197.5 c 128,-1,33
 523 243 523 243 540.5 302.5 c 128,-1,34
 558 362 558 362 558 427 c 0,35,36
 558 471 558 471 548 508.5 c 128,-1,37
 538 546 538 546 517 573 c 128,-1,38
 496 600 496 600 464.5 615.5 c 128,-1,39
 433 631 433 631 390 631 c 0,20,21
320 192 m 0,40,41
 264 192 264 192 231 229.5 c 128,-1,42
 198 267 198 267 198 330 c 0,43,44
 198 375 198 375 212.5 412.5 c 128,-1,45
 227 450 227 450 251.5 477 c 128,-1,46
 276 504 276 504 309 519.5 c 128,-1,47
 342 535 342 535 380 535 c 0,48,49
 405 535 405 535 428.5 528.5 c 128,-1,50
 452 522 452 522 469 513 c 1,51,-1
 446 436 l 1,52,53
 426 445 426 445 407.5 451.5 c 128,-1,54
 389 458 389 458 366 458 c 0,55,56
 347 458 347 458 331.5 448.5 c 128,-1,57
 316 439 316 439 305.5 423 c 128,-1,58
 295 407 295 407 289 385 c 128,-1,59
 283 363 283 363 283 339 c 0,60,61
 283 308 283 308 295.5 288 c 128,-1,62
 308 268 308 268 333 268 c 0,63,64
 356 268 356 268 377 274.5 c 128,-1,65
 398 281 398 281 421 292 c 1,66,-1
 417 216 l 1,67,68
 396 205 396 205 369.5 198.5 c 128,-1,69
 343 192 343 192 320 192 c 0,40,41
EndSplineSet
EndChar

StartChar: ordfeminine
Encoding: 170 170 106
Width: 347
Flags: W
LayerCount: 2
Back
Fore
SplineSet
319 434 m 1,0,-1
 265 434 l 2,1,2
 252 434 252 434 238 441.5 c 128,-1,3
 224 449 224 449 218 457 c 1,4,5
 205 445 205 445 178.5 439.5 c 128,-1,6
 152 434 152 434 130 434 c 0,7,8
 107 434 107 434 88.5 451.5 c 128,-1,9
 70 469 70 469 70 506 c 0,10,11
 70 542 70 542 91.5 565 c 128,-1,12
 113 588 113 588 140.5 601.5 c 128,-1,13
 168 615 168 615 194.5 620 c 128,-1,14
 221 625 221 625 232 626 c 1,15,16
 230 633 230 633 227 642.5 c 128,-1,17
 224 652 224 652 202 652 c 0,18,19
 179 652 179 652 160 646.5 c 128,-1,20
 141 641 141 641 118 635 c 1,21,-1
 127 710 l 1,22,23
 165 722 165 722 192 726 c 128,-1,24
 219 730 219 730 242 730 c 0,25,26
 259 730 259 730 275 725.5 c 128,-1,27
 291 721 291 721 303.5 712 c 128,-1,28
 316 703 316 703 323.5 689.5 c 128,-1,29
 331 676 331 676 331 657 c 0,30,31
 331 625 331 625 321.5 594 c 128,-1,32
 312 563 312 563 312 530 c 0,33,34
 312 512 312 512 322 512 c 2,35,-1
 336 512 l 1,36,-1
 319 434 l 1,0,-1
222 565 m 1,37,38
 208 562 208 562 197 556 c 0,39,40
 187 551 187 551 179.5 542 c 128,-1,41
 172 533 172 533 172 519 c 0,42,43
 172 501 172 501 196 501 c 0,44,45
 201 501 201 501 204 501.5 c 128,-1,46
 207 502 207 502 211 503 c 2,47,-1
 222 565 l 1,37,38
EndSplineSet
EndChar

StartChar: guillemotleft
Encoding: 171 171 107
Width: 578
Flags: W
LayerCount: 2
Back
Fore
SplineSet
349 78 m 1,0,-1
 249 284 l 1,1,-1
 422 490 l 1,2,-1
 558 490 l 1,3,-1
 385 284 l 1,4,-1
 486 78 l 1,5,-1
 349 78 l 1,0,-1
115 78 m 1,6,-1
 15 284 l 1,7,-1
 188 490 l 1,8,-1
 324 490 l 1,9,-1
 151 284 l 1,10,-1
 251 78 l 1,11,-1
 115 78 l 1,6,-1
EndSplineSet
EndChar

StartChar: logicalnot
Encoding: 172 172 108
Width: 563
Flags: W
LayerCount: 2
Back
Fore
SplineSet
360 151 m 1,0,-1
 390 323 l 1,1,-1
 64 323 l 1,2,-1
 79 406 l 1,3,-1
 493 406 l 1,4,-1
 448 151 l 1,5,-1
 360 151 l 1,0,-1
EndSplineSet
EndChar

StartChar: uni00AD
Encoding: 173 173 109
Width: 405
Flags: W
LayerCount: 2
Back
Fore
SplineSet
45 230 m 1,0,-1
 62 324 l 1,1,-1
 341 324 l 1,2,-1
 324 230 l 1,3,-1
 45 230 l 1,0,-1
EndSplineSet
EndChar

StartChar: registered
Encoding: 174 174 110
Width: 687
Flags: W
LayerCount: 2
Back
Fore
SplineSet
285 37 m 0,0,1
 233 37 233 37 190.5 56 c 128,-1,2
 148 75 148 75 118 109.5 c 128,-1,3
 88 144 88 144 72 192.5 c 128,-1,4
 56 241 56 241 56 301 c 0,5,6
 56 387 56 387 83.5 459 c 128,-1,7
 111 531 111 531 158.5 583 c 128,-1,8
 206 635 206 635 268.5 664 c 128,-1,9
 331 693 331 693 401 693 c 0,10,11
 453 693 453 693 495 674.5 c 128,-1,12
 537 656 537 656 567 621.5 c 128,-1,13
 597 587 597 587 613 538.5 c 128,-1,14
 629 490 629 490 629 430 c 0,15,16
 629 344 629 344 601.5 272 c 128,-1,17
 574 200 574 200 527 147.5 c 128,-1,18
 480 95 480 95 417.5 66 c 128,-1,19
 355 37 355 37 285 37 c 0,0,1
390 630 m 0,20,21
 327 630 327 630 278 603 c 128,-1,22
 229 576 229 576 196 531 c 128,-1,23
 163 486 163 486 146 427 c 128,-1,24
 129 368 129 368 129 303 c 0,25,26
 129 259 129 259 139 221.5 c 128,-1,27
 149 184 149 184 169.5 157 c 128,-1,28
 190 130 190 130 221.5 114.5 c 128,-1,29
 253 99 253 99 296 99 c 0,30,31
 359 99 359 99 408 126 c 128,-1,32
 457 153 457 153 490 198.5 c 128,-1,33
 523 244 523 244 540 303.5 c 128,-1,34
 557 363 557 363 557 428 c 0,35,36
 557 472 557 472 547 509 c 128,-1,37
 537 546 537 546 516.5 573 c 128,-1,38
 496 600 496 600 464.5 615 c 128,-1,39
 433 630 433 630 390 630 c 0,20,21
362 205 m 1,40,-1
 327 319 l 1,41,-1
 302 319 l 1,42,-1
 282 205 l 1,43,-1
 200 205 l 1,44,-1
 259 536 l 1,45,-1
 374 536 l 2,46,47
 414 536 414 536 440 518.5 c 128,-1,48
 466 501 466 501 466 454 c 0,49,50
 466 433 466 433 460.5 416 c 128,-1,51
 455 399 455 399 446 384.5 c 128,-1,52
 437 370 437 370 426.5 359.5 c 128,-1,53
 416 349 416 349 406 342 c 1,54,-1
 449 205 l 1,55,-1
 362 205 l 1,40,-1
328 469 m 1,56,-1
 315 392 l 1,57,-1
 335 392 l 2,58,59
 382 392 382 392 382 443 c 0,60,61
 382 455 382 455 376 462 c 128,-1,62
 370 469 370 469 351 469 c 2,63,-1
 328 469 l 1,56,-1
EndSplineSet
EndChar

StartChar: degree
Encoding: 176 176 111
Width: 318
Flags: W
LayerCount: 2
Back
Fore
SplineSet
185 482 m 0,0,1
 137 482 137 482 112 514 c 128,-1,2
 87 546 87 546 87 593 c 0,3,4
 87 624 87 624 97.5 653.5 c 128,-1,5
 108 683 108 683 127.5 705.5 c 128,-1,6
 147 728 147 728 174 741.5 c 128,-1,7
 201 755 201 755 233 755 c 0,8,9
 282 755 282 755 306.5 722.5 c 128,-1,10
 331 690 331 690 331 643 c 0,11,12
 331 611 331 611 320.5 582 c 128,-1,13
 310 553 310 553 290.5 530.5 c 128,-1,14
 271 508 271 508 244.5 495 c 128,-1,15
 218 482 218 482 185 482 c 0,0,1
225 712 m 0,16,17
 209 712 209 712 195.5 702 c 128,-1,18
 182 692 182 692 172 675.5 c 128,-1,19
 162 659 162 659 156 638 c 128,-1,20
 150 617 150 617 150 594 c 0,21,22
 150 564 150 564 160.5 544.5 c 128,-1,23
 171 525 171 525 192 525 c 0,24,25
 209 525 209 525 223 535 c 128,-1,26
 237 545 237 545 246.5 561.5 c 128,-1,27
 256 578 256 578 261.5 599.5 c 128,-1,28
 267 621 267 621 267 644 c 0,29,30
 267 673 267 673 257 692.5 c 128,-1,31
 247 712 247 712 225 712 c 0,16,17
EndSplineSet
EndChar

StartChar: plusminus
Encoding: 177 177 112
Width: 473
Flags: W
LayerCount: 2
Back
Fore
SplineSet
278 315 m 1,0,-1
 254 182 l 1,1,-1
 167 182 l 1,2,-1
 191 315 l 1,3,-1
 67 315 l 1,4,-1
 83 401 l 1,5,-1
 205 401 l 1,6,-1
 229 532 l 1,7,-1
 316 532 l 1,8,-1
 293 401 l 1,9,-1
 416 401 l 1,10,-1
 400 315 l 1,11,-1
 278 315 l 1,0,-1
18 34 m 1,12,-1
 33 119 l 1,13,-1
 366 119 l 1,14,-1
 351 34 l 1,15,-1
 18 34 l 1,12,-1
EndSplineSet
EndChar

StartChar: twosuperior
Encoding: 178 178 113
Width: 297
Flags: W
LayerCount: 2
Back
Fore
SplineSet
25 320 m 1,0,1
 88 396 88 396 125.5 444.5 c 128,-1,2
 163 493 163 493 183 523.5 c 128,-1,3
 203 554 203 554 209 572.5 c 128,-1,4
 215 591 215 591 215 606 c 0,5,6
 215 637 215 637 190 637 c 0,7,8
 172 637 172 637 156.5 628.5 c 128,-1,9
 141 620 141 620 128 608.5 c 128,-1,10
 115 597 115 597 106.5 586 c 128,-1,11
 98 575 98 575 95 570 c 2,12,-1
 99 651 l 1,13,14
 114 671 114 671 144.5 688.5 c 128,-1,15
 175 706 175 706 217 706 c 0,16,17
 241 706 241 706 257 698.5 c 128,-1,18
 273 691 273 691 282.5 679 c 128,-1,19
 292 667 292 667 296 652.5 c 128,-1,20
 300 638 300 638 300 624 c 0,21,22
 300 605 300 605 293.5 584 c 128,-1,23
 287 563 287 563 274 537.5 c 128,-1,24
 261 512 261 512 240.5 480.5 c 128,-1,25
 220 449 220 449 192 410 c 1,26,-1
 275 410 l 1,27,-1
 259 320 l 1,28,-1
 25 320 l 1,0,1
EndSplineSet
EndChar

StartChar: threesuperior
Encoding: 179 179 114
Width: 296
Flags: W
LayerCount: 2
Back
Fore
SplineSet
119 312 m 0,0,1
 103 312 103 312 87.5 315.5 c 128,-1,2
 72 319 72 319 59 323.5 c 128,-1,3
 46 328 46 328 37.5 333 c 128,-1,4
 29 338 29 338 28 342 c 2,5,-1
 65 425 l 1,6,7
 72 416 72 416 90.5 408.5 c 128,-1,8
 109 401 109 401 128 401 c 0,9,10
 161 401 161 401 178 412 c 128,-1,11
 195 423 195 423 195 453 c 0,12,13
 195 470 195 470 189 481 c 128,-1,14
 183 492 183 492 166 492 c 2,15,-1
 106 492 l 1,16,-1
 124 559 l 1,17,-1
 155 559 l 2,18,19
 179 559 179 559 192.5 573 c 128,-1,20
 206 587 206 587 206 603 c 0,21,22
 206 616 206 616 196 625.5 c 128,-1,23
 186 635 186 635 165 635 c 0,24,25
 150 635 150 635 135 630.5 c 128,-1,26
 120 626 120 626 111 620 c 1,27,-1
 111 681 l 1,28,29
 124 692 124 692 149.5 699 c 128,-1,30
 175 706 175 706 195 706 c 0,31,32
 216 706 216 706 232 698 c 128,-1,33
 248 690 248 690 258.5 676.5 c 128,-1,34
 269 663 269 663 274 646 c 128,-1,35
 279 629 279 629 279 610 c 0,36,37
 279 589 279 589 272.5 568 c 128,-1,38
 266 547 266 547 253 530 c 1,39,40
 267 517 267 517 273.5 500.5 c 128,-1,41
 280 484 280 484 280 458 c 0,42,43
 280 422 280 422 266 395 c 128,-1,44
 252 368 252 368 229 349.5 c 128,-1,45
 206 331 206 331 177 321.5 c 128,-1,46
 148 312 148 312 119 312 c 0,0,1
EndSplineSet
EndChar

StartChar: acute
Encoding: 180 180 115
Width: 285
Flags: W
LayerCount: 2
Back
Fore
SplineSet
158 588 m 1,0,-1
 169 652 l 1,1,-1
 353 744 l 1,2,-1
 337 650 l 1,3,-1
 158 588 l 1,0,-1
EndSplineSet
EndChar

StartChar: mu
Encoding: 181 181 116
Width: 590
Flags: W
LayerCount: 2
Back
Fore
SplineSet
464 -10 m 1,0,-1
 422 -10 l 2,1,2
 352 -10 352 -10 335 49 c 1,3,4
 312 24 312 24 278 7.5 c 128,-1,5
 244 -9 244 -9 214 -9 c 0,6,7
 191 -9 191 -9 172 -4.5 c 128,-1,8
 153 0 153 0 139 13 c 1,9,-1
 95 -242 l 1,10,-1
 -20 -242 l 1,11,-1
 110 497 l 1,12,-1
 225 497 l 1,13,-1
 178 231 l 2,14,15
 172 196 172 196 172 171 c 0,16,17
 172 86 172 86 240 86 c 0,18,19
 293 86 293 86 331 133 c 1,20,-1
 395 497 l 1,21,-1
 509 497 l 1,22,-1
 452 171 l 2,23,24
 449 153 449 153 447.5 139.5 c 128,-1,25
 446 126 446 126 445 116 c 0,26,27
 445 96 445 96 452 89.5 c 128,-1,28
 459 83 459 83 476 83 c 2,29,-1
 490 83 l 1,30,-1
 464 -10 l 1,0,-1
EndSplineSet
EndChar

StartChar: paragraph
Encoding: 182 182 117
Width: 595
Flags: W
LayerCount: 2
Back
Fore
SplineSet
519 605 m 1,0,-1
 412 0 l 1,1,-1
 330 0 l 1,2,-1
 437 605 l 1,3,-1
 384 605 l 1,4,-1
 277 0 l 1,5,-1
 213 0 l 1,6,-1
 254 233 l 1,7,8
 204 237 204 237 168 255 c 128,-1,9
 132 273 132 273 108 301 c 128,-1,10
 84 329 84 329 72.5 363.5 c 128,-1,11
 61 398 61 398 61 434 c 0,12,13
 61 482 61 482 81 529.5 c 128,-1,14
 101 577 101 577 139.5 615 c 128,-1,15
 178 653 178 653 234.5 676.5 c 128,-1,16
 291 700 291 700 363 700 c 2,17,-1
 597 700 l 1,18,-1
 580 605 l 1,19,-1
 519 605 l 1,0,-1
EndSplineSet
EndChar

StartChar: periodcentered
Encoding: 183 183 118
Width: 231
Flags: W
LayerCount: 2
Back
Fore
SplineSet
42 213 m 1,0,-1
 65 343 l 1,1,-1
 177 343 l 1,2,-1
 154 213 l 1,3,-1
 42 213 l 1,0,-1
EndSplineSet
EndChar

StartChar: cedilla
Encoding: 184 184 119
Width: 284
Flags: W
LayerCount: 2
Back
Fore
SplineSet
158 -186 m 1,0,-1
 88 -193 l 1,1,-1
 174 -61 l 1,2,-1
 272 -53 l 1,3,-1
 158 -186 l 1,0,-1
EndSplineSet
EndChar

StartChar: onesuperior
Encoding: 185 185 120
Width: 217
Flags: W
LayerCount: 2
Back
Fore
SplineSet
72 320 m 1,0,-1
 116 573 l 1,1,2
 111 573 111 573 104.5 571.5 c 128,-1,3
 98 570 98 570 81 569 c 1,4,-1
 93 639 l 1,5,6
 98 639 98 639 107.5 644.5 c 128,-1,7
 117 650 117 650 127 658.5 c 128,-1,8
 137 667 137 667 145 677.5 c 128,-1,9
 153 688 153 688 156 698 c 1,10,-1
 226 698 l 1,11,-1
 160 320 l 1,12,-1
 72 320 l 1,0,-1
EndSplineSet
EndChar

StartChar: ordmasculine
Encoding: 186 186 121
Width: 365
Flags: W
LayerCount: 2
Back
Fore
SplineSet
200 434 m 0,0,1
 170 434 170 434 147.5 444 c 128,-1,2
 125 454 125 454 109.5 471.5 c 128,-1,3
 94 489 94 489 86.5 511.5 c 128,-1,4
 79 534 79 534 79 559 c 0,5,6
 79 591 79 591 91.5 622 c 128,-1,7
 104 653 104 653 127 677 c 128,-1,8
 150 701 150 701 182 715.5 c 128,-1,9
 214 730 214 730 252 730 c 0,10,11
 282 730 282 730 305 720 c 128,-1,12
 328 710 328 710 343 693 c 128,-1,13
 358 676 358 676 365.5 653.5 c 128,-1,14
 373 631 373 631 373 606 c 0,15,16
 373 574 373 574 360.5 543 c 128,-1,17
 348 512 348 512 325.5 488 c 128,-1,18
 303 464 303 464 271 449 c 128,-1,19
 239 434 239 434 200 434 c 0,0,1
239 658 m 0,20,21
 226 658 226 658 214.5 650 c 128,-1,22
 203 642 203 642 194.5 628.5 c 128,-1,23
 186 615 186 615 181 598.5 c 128,-1,24
 176 582 176 582 176 564 c 0,25,26
 176 540 176 540 185.5 523 c 128,-1,27
 195 506 195 506 213 506 c 0,28,29
 226 506 226 506 237.5 514 c 128,-1,30
 249 522 249 522 257.5 535.5 c 128,-1,31
 266 549 266 549 271 565.5 c 128,-1,32
 276 582 276 582 276 600 c 0,33,34
 276 624 276 624 267 641 c 128,-1,35
 258 658 258 658 239 658 c 0,20,21
EndSplineSet
EndChar

StartChar: guillemotright
Encoding: 187 187 122
Width: 578
Flags: W
LayerCount: 2
Back
Fore
SplineSet
371 78 m 1,0,-1
 235 78 l 1,1,-1
 408 284 l 1,2,-1
 308 490 l 1,3,-1
 443 490 l 1,4,-1
 545 284 l 1,5,-1
 371 78 l 1,0,-1
137 78 m 1,6,-1
 1 78 l 1,7,-1
 175 284 l 1,8,-1
 74 490 l 1,9,-1
 210 490 l 1,10,-1
 310 284 l 1,11,-1
 137 78 l 1,6,-1
EndSplineSet
EndChar

StartChar: questiondown
Encoding: 191 191 126
Width: 427
Flags: W
LayerCount: 2
Back
Fore
SplineSet
269 300 m 1,0,1
 266 271 266 271 264.5 261.5 c 128,-1,2
 263 252 263 252 262 249 c 0,3,4
 253 198 253 198 226 158 c 128,-1,5
 199 118 199 118 169.5 80.5 c 128,-1,6
 140 43 140 43 117.5 4 c 128,-1,7
 95 -35 95 -35 95 -83 c 0,8,9
 95 -123 95 -123 115.5 -142.5 c 128,-1,10
 136 -162 136 -162 168 -162 c 0,11,12
 206 -162 206 -162 237.5 -141 c 128,-1,13
 269 -120 269 -120 291 -96 c 1,14,-1
 302 -180 l 1,15,16
 273 -215 273 -215 230.5 -232.5 c 128,-1,17
 188 -250 188 -250 145 -250 c 0,18,19
 103 -250 103 -250 73 -235 c 128,-1,20
 43 -220 43 -220 24 -196.5 c 128,-1,21
 5 -173 5 -173 -4 -144 c 128,-1,22
 -13 -115 -13 -115 -13 -87 c 0,23,24
 -13 -52 -13 -52 0 -21 c 128,-1,25
 13 10 13 10 33.5 39 c 128,-1,26
 54 68 54 68 78.5 96.5 c 128,-1,27
 103 125 103 125 125.5 154.5 c 128,-1,28
 148 184 148 184 165 215.5 c 128,-1,29
 182 247 182 247 188 283 c 2,30,-1
 191 300 l 1,31,-1
 269 300 l 1,0,1
322 500 m 1,32,-1
 303 388 l 1,33,-1
 188 388 l 1,34,-1
 208 500 l 1,35,-1
 322 500 l 1,32,-1
EndSplineSet
EndChar

StartChar: AE
Encoding: 198 198 133
Width: 826
Flags: W
LayerCount: 2
Back
Fore
SplineSet
433 0 m 1,0,-1
 313 0 l 1,1,-1
 343 172 l 1,2,-1
 170 172 l 1,3,-1
 67 0 l 1,4,-1
 -55 0 l 1,5,-1
 375 700 l 1,6,-1
 821 700 l 1,7,-1
 801 588 l 1,8,-1
 536 588 l 1,9,-1
 506 421 l 1,10,-1
 711 421 l 1,11,-1
 691 309 l 1,12,-1
 487 309 l 1,13,-1
 452 112 l 1,14,-1
 725 112 l 1,15,-1
 705 0 l 1,16,-1
 433 0 l 1,0,-1
416 585 m 1,17,-1
 245 286 l 1,18,-1
 363 286 l 1,19,-1
 416 585 l 1,17,-1
EndSplineSet
EndChar

StartChar: Eth
Encoding: 208 208 143
Width: 702
Flags: W
LayerCount: 2
Back
Fore
SplineSet
35 0 m 1,0,-1
 88 303 l 1,1,-1
 6 303 l 1,2,-1
 21 388 l 1,3,-1
 103 388 l 1,4,-1
 159 700 l 1,5,-1
 395 700 l 2,6,7
 453 700 453 700 500.5 681 c 128,-1,8
 548 662 548 662 581.5 626 c 128,-1,9
 615 590 615 590 633 538 c 128,-1,10
 651 486 651 486 651 420 c 0,11,12
 651 324 651 324 621 246.5 c 128,-1,13
 591 169 591 169 539.5 114 c 128,-1,14
 488 59 488 59 418.5 29.5 c 128,-1,15
 349 0 349 0 271 0 c 2,16,-1
 155 0 l 1,17,-1
 35 0 l 1,0,-1
257 589 m 1,18,-1
 221 388 l 1,19,-1
 331 388 l 1,20,-1
 315 303 l 1,21,-1
 207 303 l 1,22,-1
 173 112 l 1,23,-1
 291 112 l 2,24,25
 347 112 347 112 390 135 c 128,-1,26
 433 158 433 158 462.5 198.5 c 128,-1,27
 492 239 492 239 507 293.5 c 128,-1,28
 522 348 522 348 522 411 c 0,29,30
 522 492 522 492 486 540.5 c 128,-1,31
 450 589 450 589 375 589 c 2,32,-1
 257 589 l 1,18,-1
EndSplineSet
EndChar

StartChar: multiply
Encoding: 215 215 150
Width: 432
Flags: W
LayerCount: 2
Back
Fore
SplineSet
274 112 m 1,0,-1
 199 224 l 1,1,-1
 84 112 l 1,2,-1
 36 165 l 1,3,-1
 151 277 l 1,4,-1
 76 389 l 1,5,-1
 142 442 l 1,6,-1
 218 330 l 1,7,-1
 333 442 l 1,8,-1
 380 389 l 1,9,-1
 265 277 l 1,10,-1
 341 165 l 1,11,-1
 274 112 l 1,0,-1
EndSplineSet
EndChar

StartChar: Oslash
Encoding: 216 216 151
Width: 734
Flags: W
LayerCount: 2
Back
Fore
SplineSet
303 -13 m 0,0,1
 263 -13 263 -13 228 -4 c 128,-1,2
 193 5 193 5 165 25 c 1,3,-1
 124 -31 l 1,4,-1
 0 -31 l 1,5,-1
 94 83 l 1,6,7
 71 119 71 119 59.5 170 c 128,-1,8
 48 221 48 221 48 277 c 0,9,10
 48 373 48 373 78.5 453.5 c 128,-1,11
 109 534 109 534 161.5 592 c 128,-1,12
 214 650 214 650 283.5 682 c 128,-1,13
 353 714 353 714 431 714 c 256,14,15
 509 714 509 714 563 678 c 1,16,-1
 592 716 l 1,17,-1
 716 716 l 1,18,-1
 636 619 l 1,19,20
 659 583 659 583 672 531 c 128,-1,21
 685 479 685 479 685 422 c 0,22,23
 685 326 685 326 654.5 246 c 128,-1,24
 624 166 624 166 572 108.5 c 128,-1,25
 520 51 520 51 450.5 19 c 128,-1,26
 381 -13 381 -13 303 -13 c 0,0,1
248 119 m 1,27,28
 262 108 262 108 280.5 103.5 c 128,-1,29
 299 99 299 99 322 99 c 0,30,31
 377 99 377 99 420.5 125 c 128,-1,32
 464 151 464 151 494 195 c 128,-1,33
 524 239 524 239 540 297.5 c 128,-1,34
 556 356 556 356 556 421 c 0,35,36
 556 444 556 444 553.5 471.5 c 128,-1,37
 551 499 551 499 546 516 c 1,38,-1
 248 119 l 1,27,28
411 602 m 0,39,40
 355 602 355 602 311.5 576 c 128,-1,41
 268 550 268 550 238 506 c 128,-1,42
 208 462 208 462 192.5 403.5 c 128,-1,43
 177 345 177 345 177 281 c 0,44,45
 177 259 177 259 178.5 233.5 c 128,-1,46
 180 208 180 208 185 188 c 1,47,-1
 480 582 l 1,48,49
 454 602 454 602 411 602 c 0,39,40
EndSplineSet
EndChar

StartChar: Thorn
Encoding: 222 222 157
Width: 544
Flags: W
LayerCount: 2
Back
Fore
SplineSet
165 117 m 1,0,-1
 144 0 l 1,1,-1
 27 0 l 1,2,-1
 150 700 l 1,3,-1
 267 700 l 1,4,-1
 247 583 l 1,5,-1
 306 583 l 2,6,7
 364 583 364 583 409 577 c 128,-1,8
 454 571 454 571 485 553.5 c 128,-1,9
 516 536 516 536 532 504 c 128,-1,10
 548 472 548 472 548 420 c 0,11,12
 548 330 548 330 520 271 c 128,-1,13
 492 212 492 212 450.5 178 c 128,-1,14
 409 144 409 144 361.5 130.5 c 128,-1,15
 314 117 314 117 275 117 c 2,16,-1
 165 117 l 1,0,-1
229 483 m 1,17,-1
 184 227 l 1,18,-1
 279 227 l 2,19,20
 322 227 322 227 350.5 238.5 c 128,-1,21
 379 250 379 250 395.5 272 c 128,-1,22
 412 294 412 294 419 326 c 128,-1,23
 426 358 426 358 426 398 c 0,24,25
 426 442 426 442 403.5 462.5 c 128,-1,26
 381 483 381 483 324 483 c 2,27,-1
 229 483 l 1,17,-1
EndSplineSet
EndChar

StartChar: germandbls
Encoding: 223 223 158
Width: 541
Flags: W
LayerCount: 2
Back
Fore
SplineSet
245 -10 m 0,0,1
 234 -10 234 -10 220 -9 c 128,-1,2
 206 -8 206 -8 191 -6 c 1,3,-1
 207 85 l 1,4,5
 247 85 247 85 275.5 86.5 c 128,-1,6
 304 88 304 88 322.5 96 c 128,-1,7
 341 104 341 104 349.5 121.5 c 128,-1,8
 358 139 358 139 358 171 c 0,9,10
 358 204 358 204 344 229 c 128,-1,11
 330 254 330 254 313.5 275 c 128,-1,12
 297 296 297 296 283 315 c 128,-1,13
 269 334 269 334 269 355 c 0,14,15
 269 371 269 371 277.5 386 c 128,-1,16
 286 401 286 401 299 416.5 c 128,-1,17
 312 432 312 432 327.5 449.5 c 128,-1,18
 343 467 343 467 356 487 c 128,-1,19
 369 507 369 507 377.5 531.5 c 128,-1,20
 386 556 386 556 386 586 c 0,21,22
 386 624 386 624 369 638.5 c 128,-1,23
 352 653 352 653 329 653 c 0,24,25
 295 653 295 653 276 631 c 128,-1,26
 257 609 257 609 248 556 c 2,27,-1
 125 -136 l 1,28,-1
 11 -136 l 1,29,-1
 106 405 l 1,30,-1
 44 405 l 1,31,-1
 69 497 l 1,32,-1
 123 497 l 1,33,-1
 134 562 l 2,34,35
 150 650 150 650 205.5 700 c 128,-1,36
 261 750 261 750 346 750 c 0,37,38
 370 750 370 750 396.5 741.5 c 128,-1,39
 423 733 423 733 445.5 715 c 128,-1,40
 468 697 468 697 482.5 668.5 c 128,-1,41
 497 640 497 640 497 600 c 0,42,43
 497 550 497 550 480.5 512 c 128,-1,44
 464 474 464 474 444 446 c 128,-1,45
 424 418 424 418 407.5 399 c 128,-1,46
 391 380 391 380 391 368 c 256,47,48
 391 356 391 356 404.5 340.5 c 128,-1,49
 418 325 418 325 433.5 303.5 c 128,-1,50
 449 282 449 282 462.5 252.5 c 128,-1,51
 476 223 476 223 476 182 c 0,52,53
 476 129 476 129 457 92.5 c 128,-1,54
 438 56 438 56 405.5 33 c 128,-1,55
 373 10 373 10 331.5 0 c 128,-1,56
 290 -10 290 -10 245 -10 c 0,0,1
EndSplineSet
EndChar

StartChar: ae
Encoding: 230 230 165
Width: 757
Flags: W
LayerCount: 2
Back
Fore
SplineSet
394 230 m 1,0,-1
 394 216 l 2,1,2
 394 147 394 147 424 115 c 128,-1,3
 454 83 454 83 495 83 c 0,4,5
 511 83 511 83 530 86 c 128,-1,6
 549 89 549 89 569 94 c 128,-1,7
 589 99 589 99 608 106.5 c 128,-1,8
 627 114 627 114 642 122 c 1,9,-1
 630 29 l 1,10,11
 602 13 602 13 561.5 1.5 c 128,-1,12
 521 -10 521 -10 473 -10 c 0,13,14
 404 -10 404 -10 364 16 c 128,-1,15
 324 42 324 42 311 90 c 1,16,17
 273 43 273 43 227.5 14 c 128,-1,18
 182 -15 182 -15 120 -15 c 0,19,20
 57 -15 57 -15 24.5 15.5 c 128,-1,21
 -8 46 -8 46 -8 99 c 0,22,23
 -8 143 -8 143 6.5 175.5 c 128,-1,24
 21 208 21 208 45.5 231 c 128,-1,25
 70 254 70 254 100.5 269 c 128,-1,26
 131 284 131 284 163.5 293 c 128,-1,27
 196 302 196 302 226.5 306 c 128,-1,28
 257 310 257 310 281 312 c 1,29,30
 284 330 284 330 284 345 c 0,31,32
 284 377 284 377 268.5 392 c 128,-1,33
 253 407 253 407 217 407 c 0,34,35
 186 407 186 407 156 398.5 c 128,-1,36
 126 390 126 390 87 372 c 1,37,-1
 93 463 l 1,38,39
 184 506 184 506 265 506 c 0,40,41
 318 506 318 506 347.5 486 c 128,-1,42
 377 466 377 466 383 407 c 1,43,44
 392 428 392 428 409 446.5 c 128,-1,45
 426 465 426 465 448.5 478 c 128,-1,46
 471 491 471 491 498.5 498.5 c 128,-1,47
 526 506 526 506 556 506 c 0,48,49
 623 506 623 506 662 461 c 128,-1,50
 701 416 701 416 701 338 c 0,51,52
 701 311 701 311 696 287 c 128,-1,53
 691 263 691 263 677 230 c 1,54,-1
 394 230 l 1,0,-1
535 410 m 0,55,56
 494 410 494 410 460.5 383 c 128,-1,57
 427 356 427 356 410 307 c 1,58,-1
 597 307 l 1,59,60
 600 325 600 325 600 341 c 0,61,62
 600 371 600 371 586 390.5 c 128,-1,63
 572 410 572 410 535 410 c 0,55,56
275 235 m 1,64,65
 251 235 251 235 223 228.5 c 128,-1,66
 195 222 195 222 171 208.5 c 128,-1,67
 147 195 147 195 131 174 c 128,-1,68
 115 153 115 153 115 122 c 0,69,70
 115 99 115 99 127.5 87 c 128,-1,71
 140 75 140 75 159 75 c 256,72,73
 178 75 178 75 196 84.5 c 128,-1,74
 214 94 214 94 229.5 113.5 c 128,-1,75
 245 133 245 133 257 163 c 128,-1,76
 269 193 269 193 275 235 c 1,64,65
EndSplineSet
Substitution2: "'smcp' Lowercase to Small Capitals in Latin lookup 1 subtable" AE.sc
Substitution2: "'aalt' Access All Alternates in Latin lookup 0 subtable" AE.sc
EndChar

StartChar: eth
Encoding: 240 240 175
Width: 495
Flags: W
LayerCount: 2
Back
Fore
SplineSet
173 -13 m 0,0,1
 135 -13 135 -13 104 0.5 c 128,-1,2
 73 14 73 14 50.5 38 c 128,-1,3
 28 62 28 62 15.5 95 c 128,-1,4
 3 128 3 128 3 168 c 0,5,6
 3 211 3 211 19.5 257 c 128,-1,7
 36 303 36 303 66 340.5 c 128,-1,8
 96 378 96 378 139.5 402 c 128,-1,9
 183 426 183 426 237 426 c 0,10,11
 275 426 275 426 296.5 412.5 c 128,-1,12
 318 399 318 399 334 382 c 1,13,14
 335 387 335 387 335 393 c 128,-1,15
 335 399 335 399 335 406 c 0,16,17
 335 424 335 424 333 444.5 c 128,-1,18
 331 465 331 465 327 484.5 c 128,-1,19
 323 504 323 504 316.5 520 c 128,-1,20
 310 536 310 536 302 545 c 1,21,22
 240 495 240 495 169 486 c 1,23,-1
 146 554 l 1,24,25
 169 555 169 555 199 566.5 c 128,-1,26
 229 578 229 578 261 600 c 1,27,28
 241 624 241 624 216 635 c 128,-1,29
 191 646 191 646 164 651 c 1,30,-1
 210 701 l 1,31,32
 280 699 280 699 331 648 c 1,33,34
 348 665 348 665 364 680 c 128,-1,35
 380 695 380 695 393 711 c 1,36,-1
 451 696 l 1,37,38
 432 672 432 672 413 650 c 128,-1,39
 394 628 394 628 374 605 c 1,40,41
 403 560 403 560 419.5 489.5 c 128,-1,42
 436 419 436 419 436 344 c 0,43,44
 436 238 436 238 410.5 169 c 128,-1,45
 385 100 385 100 346.5 59.5 c 128,-1,46
 308 19 308 19 261.5 3 c 128,-1,47
 215 -13 215 -13 173 -13 c 0,0,1
233 333 m 0,48,49
 204 333 204 333 182 320 c 128,-1,50
 160 307 160 307 144.5 286 c 128,-1,51
 129 265 129 265 121 238.5 c 128,-1,52
 113 212 113 212 113 185 c 0,53,54
 113 164 113 164 117.5 145.5 c 128,-1,55
 122 127 122 127 132 113 c 128,-1,56
 142 99 142 99 156.5 91 c 128,-1,57
 171 83 171 83 192 83 c 0,58,59
 212 83 212 83 233.5 92.5 c 128,-1,60
 255 102 255 102 272.5 121.5 c 128,-1,61
 290 141 290 141 301.5 170 c 128,-1,62
 313 199 313 199 313 238 c 0,63,64
 313 283 313 283 293.5 308 c 128,-1,65
 274 333 274 333 233 333 c 0,48,49
EndSplineSet
EndChar

StartChar: divide
Encoding: 247 247 182
Width: 546
Flags: W
LayerCount: 2
Back
Fore
SplineSet
223 415 m 1,0,-1
 244 534 l 1,1,-1
 358 534 l 1,2,-1
 338 415 l 1,3,-1
 223 415 l 1,0,-1
45 235 m 1,4,-1
 61 322 l 1,5,-1
 475 322 l 1,6,-1
 459 235 l 1,7,-1
 45 235 l 1,4,-1
153 20 m 1,8,-1
 174 139 l 1,9,-1
 289 139 l 1,10,-1
 268 20 l 1,11,-1
 153 20 l 1,8,-1
EndSplineSet
EndChar

StartChar: oslash
Encoding: 248 248 183
Width: 540
Flags: W
LayerCount: 2
Back
Fore
SplineSet
206 -9 m 0,0,1
 173 -9 173 -9 146 0 c 1,2,-1
 126 -36 l 1,3,-1
 28 -36 l 1,4,-1
 73 37 l 1,5,6
 47 65 47 65 33 109 c 128,-1,7
 19 153 19 153 19 201 c 0,8,9
 19 261 19 261 39 316 c 128,-1,10
 59 371 59 371 96 413.5 c 128,-1,11
 133 456 133 456 184.5 481.5 c 128,-1,12
 236 507 236 507 298 507 c 0,13,14
 329 507 329 507 355 498 c 1,15,-1
 376 534 l 1,16,-1
 476 534 l 1,17,-1
 430 462 l 1,18,19
 457 433 457 433 471 388.5 c 128,-1,20
 485 344 485 344 485 296 c 0,21,22
 485 236 485 236 464.5 181 c 128,-1,23
 444 126 444 126 407.5 84 c 128,-1,24
 371 42 371 42 319.5 16.5 c 128,-1,25
 268 -9 268 -9 206 -9 c 0,0,1
205 86 m 1,26,27
 211 83 211 83 223 83 c 0,28,29
 255 83 255 83 282 100 c 128,-1,30
 309 117 309 117 328.5 147 c 128,-1,31
 348 177 348 177 358.5 218 c 128,-1,32
 369 259 369 259 369 307 c 0,33,34
 369 321 369 321 367.5 338.5 c 128,-1,35
 366 356 366 356 364 364 c 1,36,-1
 205 86 l 1,26,27
282 415 m 0,37,38
 249 415 249 415 222 398 c 128,-1,39
 195 381 195 381 175.5 351 c 128,-1,40
 156 321 156 321 145.5 280 c 128,-1,41
 135 239 135 239 135 191 c 0,42,43
 135 179 135 179 136 163 c 128,-1,44
 137 147 137 147 139 134 c 1,45,-1
 296 412 l 1,46,47
 291 415 291 415 282 415 c 0,37,38
EndSplineSet
EndChar

StartChar: thorn
Encoding: 254 254 189
Width: 551
Flags: W
LayerCount: 2
Back
Fore
SplineSet
223 -10 m 0,0,1
 189 -10 189 -10 168.5 1 c 128,-1,2
 148 12 148 12 129 34 c 1,3,-1
 80 -242 l 1,4,-1
 -34 -242 l 1,5,-1
 141 750 l 1,6,-1
 255 750 l 1,7,-1
 205 463 l 1,8,9
 229 484 229 484 254 495 c 128,-1,10
 279 506 279 506 314 506 c 0,11,12
 360 506 360 506 394 489.5 c 128,-1,13
 428 473 428 473 450.5 445 c 128,-1,14
 473 417 473 417 484 379.5 c 128,-1,15
 495 342 495 342 495 299 c 0,16,17
 495 240 495 240 476 184 c 128,-1,18
 457 128 457 128 422 85 c 128,-1,19
 387 42 387 42 336.5 16 c 128,-1,20
 286 -10 286 -10 223 -10 c 0,0,1
291 410 m 0,21,22
 256 410 256 410 231 392 c 128,-1,23
 206 374 206 374 189 344 c 128,-1,24
 172 314 172 314 164 276 c 128,-1,25
 156 238 156 238 156 198 c 0,26,27
 156 147 156 147 174 115 c 128,-1,28
 192 83 192 83 233 83 c 0,29,30
 265 83 265 83 291.5 99.5 c 128,-1,31
 318 116 318 116 337.5 144 c 128,-1,32
 357 172 357 172 367.5 209.5 c 128,-1,33
 378 247 378 247 378 289 c 0,34,35
 378 343 378 343 355.5 376.5 c 128,-1,36
 333 410 333 410 291 410 c 0,21,22
EndSplineSet
EndChar

StartChar: dotlessi
Encoding: 305 305 193
Width: 235
Flags: W
LayerCount: 2
Back
Fore
SplineSet
9 0 m 1,0,-1
 97 497 l 1,1,-1
 211 497 l 1,2,-1
 124 0 l 1,3,-1
 9 0 l 1,0,-1
EndSplineSet
EndChar

StartChar: OE
Encoding: 338 338 194
Width: 1013
Flags: W
LayerCount: 2
Back
Fore
SplineSet
613 0 m 1,0,-1
 490 0 l 1,1,-1
 502 64 l 1,2,3
 457 24 457 24 406 5 c 128,-1,4
 355 -14 355 -14 299 -14 c 0,5,6
 241 -14 241 -14 194 6.5 c 128,-1,7
 147 27 147 27 113.5 65.5 c 128,-1,8
 80 104 80 104 62 158 c 128,-1,9
 44 212 44 212 44 278 c 0,10,11
 44 374 44 374 74.5 454 c 128,-1,12
 105 534 105 534 157.5 592 c 128,-1,13
 210 650 210 650 279.5 682 c 128,-1,14
 349 714 349 714 427 714 c 0,15,16
 484 714 484 714 528.5 695 c 128,-1,17
 573 676 573 676 603 636 c 1,18,-1
 614 700 l 1,19,-1
 1000 700 l 1,20,-1
 980 588 l 1,21,-1
 715 588 l 1,22,-1
 686 421 l 1,23,-1
 890 421 l 1,24,-1
 871 309 l 1,25,-1
 666 309 l 1,26,-1
 631 112 l 1,27,-1
 905 112 l 1,28,-1
 885 0 l 1,29,-1
 613 0 l 1,0,-1
408 603 m 0,30,31
 352 603 352 603 308.5 577 c 128,-1,32
 265 551 265 551 235 507.5 c 128,-1,33
 205 464 205 464 189.5 407 c 128,-1,34
 174 350 174 350 174 287 c 0,35,36
 174 246 174 246 182.5 211 c 128,-1,37
 191 176 191 176 209 150.5 c 128,-1,38
 227 125 227 125 254.5 111 c 128,-1,39
 282 97 282 97 319 97 c 0,40,41
 374 97 374 97 417.5 123 c 128,-1,42
 461 149 461 149 491 192.5 c 128,-1,43
 521 236 521 236 536.5 293 c 128,-1,44
 552 350 552 350 552 413 c 0,45,46
 552 454 552 454 543.5 489 c 128,-1,47
 535 524 535 524 517 549.5 c 128,-1,48
 499 575 499 575 472 589 c 128,-1,49
 445 603 445 603 408 603 c 0,30,31
EndSplineSet
EndChar

StartChar: oe
Encoding: 339 339 195
Width: 852
Flags: W
LayerCount: 2
Back
Fore
SplineSet
480 230 m 1,0,1
 480 225 480 225 479.5 221.5 c 128,-1,2
 479 218 479 218 479 213 c 0,3,4
 479 175 479 175 488 150 c 128,-1,5
 497 125 497 125 512 110 c 128,-1,6
 527 95 527 95 546.5 89 c 128,-1,7
 566 83 566 83 587 83 c 0,8,9
 619 83 619 83 660.5 94.5 c 128,-1,10
 702 106 702 106 733 122 c 1,11,-1
 721 26 l 1,12,13
 693 12 693 12 652.5 1 c 128,-1,14
 612 -10 612 -10 564 -10 c 0,15,16
 501 -10 501 -10 458.5 13.5 c 128,-1,17
 416 37 416 37 393 79 c 1,18,19
 355 37 355 37 309 13.5 c 128,-1,20
 263 -10 263 -10 207 -10 c 0,21,22
 160 -10 160 -10 125 6.5 c 128,-1,23
 90 23 90 23 66.5 51.5 c 128,-1,24
 43 80 43 80 31 118.5 c 128,-1,25
 19 157 19 157 19 201 c 0,26,27
 19 261 19 261 39 316 c 128,-1,28
 59 371 59 371 95.5 413.5 c 128,-1,29
 132 456 132 456 183.5 481 c 128,-1,30
 235 506 235 506 297 506 c 0,31,32
 353 506 353 506 390.5 483.5 c 128,-1,33
 428 461 428 461 451 419 c 1,34,35
 486 461 486 461 529.5 483.5 c 128,-1,36
 573 506 573 506 627 506 c 0,37,38
 702 506 702 506 747 459 c 128,-1,39
 792 412 792 412 792 332 c 0,40,41
 792 295 792 295 785.5 274 c 128,-1,42
 779 253 779 253 769 230 c 1,43,-1
 480 230 l 1,0,1
614 410 m 0,44,45
 571 410 571 410 542.5 382.5 c 128,-1,46
 514 355 514 355 497 307 c 1,47,-1
 675 307 l 1,48,49
 678 323 678 323 678 338 c 0,50,51
 678 368 678 368 664 389 c 128,-1,52
 650 410 650 410 614 410 c 0,44,45
281 410 m 0,53,54
 248 410 248 410 221.5 394 c 128,-1,55
 195 378 195 378 176 350.5 c 128,-1,56
 157 323 157 323 146.5 286 c 128,-1,57
 136 249 136 249 136 206 c 0,58,59
 136 151 136 151 158 118 c 128,-1,60
 180 85 180 85 224 85 c 0,61,62
 256 85 256 85 282.5 101.5 c 128,-1,63
 309 118 309 118 328 145.5 c 128,-1,64
 347 173 347 173 357.5 210 c 128,-1,65
 368 247 368 247 368 289 c 0,66,67
 368 343 368 343 346.5 376.5 c 128,-1,68
 325 410 325 410 281 410 c 0,53,54
EndSplineSet
Substitution2: "'smcp' Lowercase to Small Capitals in Latin lookup 1 subtable" OE.sc
Substitution2: "'aalt' Access All Alternates in Latin lookup 0 subtable" OE.sc
EndChar

StartChar: florin
Encoding: 402 402 201
Width: 345
Flags: W
LayerCount: 2
Back
Fore
SplineSet
393 620 m 1,0,1
 367 628 367 628 350 628 c 0,2,3
 331 628 331 628 316.5 621 c 128,-1,4
 302 614 302 614 290.5 598.5 c 128,-1,5
 279 583 279 583 269 558 c 128,-1,6
 259 533 259 533 248 497 c 1,7,-1
 361 497 l 1,8,-1
 340 423 l 1,9,-1
 223 423 l 1,10,-1
 64 -84 l 2,11,12
 50 -130 50 -130 31.5 -160.5 c 128,-1,13
 13 -191 13 -191 -6 -209 c 128,-1,14
 -25 -227 -25 -227 -42.5 -234.5 c 128,-1,15
 -60 -242 -60 -242 -73 -242 c 2,16,-1
 -102 -242 l 1,17,-1
 -105 -152 l 1,18,19
 -79 -150 -79 -150 -61.5 -133 c 128,-1,20
 -44 -116 -44 -116 -28 -65 c 2,21,-1
 120 423 l 1,22,-1
 51 423 l 1,23,-1
 72 497 l 1,24,-1
 144 497 l 1,25,-1
 158 543 l 2,26,27
 170 583 170 583 190.5 615 c 128,-1,28
 211 647 211 647 237 669 c 128,-1,29
 263 691 263 691 293 702.5 c 128,-1,30
 323 714 323 714 355 714 c 256,31,32
 387 714 387 714 417 702 c 1,33,-1
 393 620 l 1,0,1
EndSplineSet
EndChar

StartChar: uni0237
Encoding: 567 567 202
Width: 235
Flags: W
LayerCount: 2
Back
Fore
SplineSet
-82 -242 m 1,0,-1
 -76 -150 l 1,1,2
 -58 -149 -58 -149 -47 -146.5 c 128,-1,3
 -36 -144 -36 -144 -29 -135.5 c 128,-1,4
 -22 -127 -22 -127 -17.5 -110.5 c 128,-1,5
 -13 -94 -13 -94 -8 -64 c 2,6,-1
 91 497 l 1,7,-1
 206 497 l 1,8,-1
 99 -110 l 2,9,10
 88 -171 88 -171 55 -206.5 c 128,-1,11
 22 -242 22 -242 -40 -242 c 2,12,-1
 -82 -242 l 1,0,-1
EndSplineSet
EndChar

StartChar: circumflex
Encoding: 710 710 203
Width: 420
Flags: W
LayerCount: 2
Back
Fore
SplineSet
322 665 m 1,0,-1
 176 591 l 1,1,-1
 187 653 l 1,2,-1
 336 748 l 1,3,-1
 452 653 l 1,4,-1
 441 591 l 1,5,-1
 322 665 l 1,0,-1
EndSplineSet
EndChar

StartChar: caron
Encoding: 711 711 204
Width: 420
Flags: W
LayerCount: 2
Back
Fore
SplineSet
308 590 m 1,0,-1
 192 683 l 1,1,-1
 203 747 l 1,2,-1
 323 674 l 1,3,-1
 468 747 l 1,4,-1
 457 683 l 1,5,-1
 308 590 l 1,0,-1
EndSplineSet
EndChar

StartChar: ring
Encoding: 730 730 205
Width: 275
Flags: W
LayerCount: 2
Back
Fore
SplineSet
235 576 m 0,0,1
 197 576 197 576 176 598.5 c 128,-1,2
 155 621 155 621 155 652 c 0,3,4
 155 672 155 672 163.5 690.5 c 128,-1,5
 172 709 172 709 186.5 723.5 c 128,-1,6
 201 738 201 738 221.5 746.5 c 128,-1,7
 242 755 242 755 266 755 c 0,8,9
 305 755 305 755 325 732.5 c 128,-1,10
 345 710 345 710 345 679 c 0,11,12
 345 659 345 659 337 640 c 128,-1,13
 329 621 329 621 314.5 607 c 128,-1,14
 300 593 300 593 279.5 584.5 c 128,-1,15
 259 576 259 576 235 576 c 0,0,1
258 712 m 0,16,17
 239 712 239 712 225 695.5 c 128,-1,18
 211 679 211 679 211 655 c 0,19,20
 211 638 211 638 219.5 628 c 128,-1,21
 228 618 228 618 242 618 c 0,22,23
 262 618 262 618 276 633.5 c 128,-1,24
 290 649 290 649 290 674 c 0,25,26
 290 691 290 691 281 701.5 c 128,-1,27
 272 712 272 712 258 712 c 0,16,17
EndSplineSet
EndChar

StartChar: tilde
Encoding: 732 732 206
Width: 497
Flags: W
LayerCount: 2
Back
Fore
SplineSet
412 599 m 0,0,1
 393 599 393 599 379 606 c 128,-1,2
 365 613 365 613 353 621.5 c 128,-1,3
 341 630 341 630 330 637 c 128,-1,4
 319 644 319 644 306 644 c 0,5,6
 286 644 286 644 274 628.5 c 128,-1,7
 262 613 262 613 256 596 c 1,8,-1
 181 613 l 1,9,10
 187 638 187 638 201.5 656.5 c 128,-1,11
 216 675 216 675 234.5 687 c 128,-1,12
 253 699 253 699 273.5 705 c 128,-1,13
 294 711 294 711 313 711 c 0,14,15
 334 711 334 711 346.5 704 c 128,-1,16
 359 697 359 697 369 689 c 128,-1,17
 379 681 379 681 387.5 674 c 128,-1,18
 396 667 396 667 409 667 c 0,19,20
 430 667 430 667 446.5 682 c 128,-1,21
 463 697 463 697 468 715 c 1,22,-1
 537 699 l 1,23,24
 525 659 525 659 492.5 629 c 128,-1,25
 460 599 460 599 412 599 c 0,0,1
EndSplineSet
EndChar

StartChar: endash
Encoding: 8211 8211 207
Width: 478
Flags: W
LayerCount: 2
Back
Fore
SplineSet
45 232 m 1,0,-1
 62 324 l 1,1,-1
 411 324 l 1,2,-1
 394 232 l 1,3,-1
 45 232 l 1,0,-1
EndSplineSet
EndChar

StartChar: emdash
Encoding: 8212 8212 208
Width: 565
Flags: W
LayerCount: 2
Back
Fore
SplineSet
45 232 m 1,0,-1
 62 324 l 1,1,-1
 494 324 l 1,2,-1
 477 232 l 1,3,-1
 45 232 l 1,0,-1
EndSplineSet
EndChar

StartChar: quoteleft
Encoding: 8216 8216 209
Width: 203
Flags: W
LayerCount: 2
Back
Fore
SplineSet
214 750 m 1,0,-1
 235 736 l 1,1,-1
 190 650 l 1,2,-1
 218 640 l 1,3,-1
 198 524 l 1,4,-1
 84 524 l 1,5,-1
 105 640 l 1,6,-1
 214 750 l 1,0,-1
EndSplineSet
EndChar

StartChar: quoteright
Encoding: 8217 8217 210
Width: 186
Flags: W
LayerCount: 2
Back
Fore
SplineSet
105 524 m 1,0,-1
 84 538 l 1,1,-1
 129 624 l 1,2,-1
 102 634 l 1,3,-1
 121 750 l 1,4,-1
 235 750 l 1,5,-1
 214 634 l 1,6,-1
 105 524 l 1,0,-1
EndSplineSet
EndChar

StartChar: quotesinglbase
Encoding: 8218 8218 211
Width: 228
Flags: W
LayerCount: 2
Back
Fore
SplineSet
9 -110 m 1,0,-1
 -12 -96 l 1,1,-1
 32 -10 l 1,2,-1
 5 0 l 1,3,-1
 25 116 l 1,4,-1
 138 116 l 1,5,-1
 118 0 l 1,6,-1
 9 -110 l 1,0,-1
EndSplineSet
EndChar

StartChar: quotedblleft
Encoding: 8220 8220 212
Width: 401
Flags: W
LayerCount: 2
Back
Fore
SplineSet
214 750 m 1,0,-1
 235 736 l 1,1,-1
 190 650 l 1,2,-1
 218 640 l 1,3,-1
 198 524 l 1,4,-1
 84 524 l 1,5,-1
 105 640 l 1,6,-1
 214 750 l 1,0,-1
403 750 m 1,7,-1
 424 736 l 1,8,-1
 379 650 l 1,9,-1
 407 640 l 1,10,-1
 387 524 l 1,11,-1
 273 524 l 1,12,-1
 294 640 l 1,13,-1
 403 750 l 1,7,-1
EndSplineSet
EndChar

StartChar: quotedblright
Encoding: 8221 8221 213
Width: 384
Flags: W
LayerCount: 2
Back
Fore
SplineSet
294 524 m 1,0,-1
 273 538 l 1,1,-1
 318 624 l 1,2,-1
 291 634 l 1,3,-1
 310 750 l 1,4,-1
 424 750 l 1,5,-1
 403 634 l 1,6,-1
 294 524 l 1,0,-1
105 524 m 1,7,-1
 84 538 l 1,8,-1
 129 624 l 1,9,-1
 102 634 l 1,10,-1
 121 750 l 1,11,-1
 235 750 l 1,12,-1
 214 634 l 1,13,-1
 105 524 l 1,7,-1
EndSplineSet
EndChar

StartChar: quotedblbase
Encoding: 8222 8222 214
Width: 445
Flags: W
LayerCount: 2
Back
Fore
SplineSet
9 -110 m 1,0,-1
 -12 -96 l 1,1,-1
 32 -10 l 1,2,-1
 5 0 l 1,3,-1
 25 116 l 1,4,-1
 138 116 l 1,5,-1
 118 0 l 1,6,-1
 9 -110 l 1,0,-1
216 -110 m 1,7,-1
 195 -96 l 1,8,-1
 239 -10 l 1,9,-1
 212 0 l 1,10,-1
 232 116 l 1,11,-1
 345 116 l 1,12,-1
 325 0 l 1,13,-1
 216 -110 l 1,7,-1
EndSplineSet
EndChar

StartChar: dagger
Encoding: 8224 8224 215
Width: 408
Flags: W
LayerCount: 2
Back
Fore
SplineSet
258 384 m 1,0,-1
 258 255 l 1,1,-1
 186 0 l 1,2,-1
 103 0 l 1,3,-1
 121 255 l 1,4,-1
 169 384 l 1,5,-1
 48 356 l 1,6,-1
 69 474 l 1,7,-1
 183 446 l 1,8,-1
 183 607 l 1,9,-1
 321 607 l 1,10,-1
 267 446 l 1,11,-1
 388 474 l 1,12,-1
 367 356 l 1,13,-1
 258 384 l 1,0,-1
EndSplineSet
EndChar

StartChar: daggerdbl
Encoding: 8225 8225 216
Width: 441
Flags: W
LayerCount: 2
Back
Fore
SplineSet
220 101 m 1,0,-1
 220 -59 l 1,1,-1
 82 -59 l 1,2,-1
 136 101 l 1,3,-1
 15 74 l 1,4,-1
 36 191 l 1,5,-1
 141 163 l 1,6,-1
 141 274 l 1,7,-1
 186 385 l 1,8,-1
 66 358 l 1,9,-1
 86 475 l 1,10,-1
 200 447 l 1,11,-1
 200 607 l 1,12,-1
 338 607 l 1,13,-1
 284 447 l 1,14,-1
 405 475 l 1,15,-1
 384 358 l 1,16,-1
 278 385 l 1,17,-1
 278 274 l 1,18,-1
 234 163 l 1,19,-1
 354 191 l 1,20,-1
 334 74 l 1,21,-1
 220 101 l 1,0,-1
EndSplineSet
EndChar

StartChar: bullet
Encoding: 8226 8226 217
Width: 292
Flags: W
LayerCount: 2
Back
Fore
SplineSet
119 169 m 0,0,1
 83 169 83 169 60.5 196 c 128,-1,2
 38 223 38 223 38 261 c 0,3,4
 38 286 38 286 48 309 c 128,-1,5
 58 332 58 332 75 349.5 c 128,-1,6
 92 367 92 367 113 377 c 128,-1,7
 134 387 134 387 157 387 c 0,8,9
 193 387 193 387 215.5 360 c 128,-1,10
 238 333 238 333 238 295 c 0,11,12
 238 269 238 269 228 246.5 c 128,-1,13
 218 224 218 224 201 206.5 c 128,-1,14
 184 189 184 189 162.5 179 c 128,-1,15
 141 169 141 169 119 169 c 0,0,1
EndSplineSet
EndChar

StartChar: ellipsis
Encoding: 8230 8230 218
Width: 672
Flags: W
LayerCount: 2
Back
Fore
SplineSet
6 0 m 1,0,-1
 27 116 l 1,1,-1
 141 116 l 1,2,-1
 121 0 l 1,3,-1
 6 0 l 1,0,-1
218 0 m 1,4,-1
 239 116 l 1,5,-1
 353 116 l 1,6,-1
 333 0 l 1,7,-1
 218 0 l 1,4,-1
431 0 m 1,8,-1
 452 116 l 1,9,-1
 566 116 l 1,10,-1
 546 0 l 1,11,-1
 431 0 l 1,8,-1
EndSplineSet
EndChar

StartChar: perthousand
Encoding: 8240 8240 219
Width: 1142
Flags: W
LayerCount: 2
Back
Fore
SplineSet
181 -12 m 1,0,-1
 85 -12 l 1,1,-1
 590 700 l 1,2,-1
 686 700 l 1,3,-1
 181 -12 l 1,0,-1
180 334 m 0,4,5
 129 334 129 334 100.5 371.5 c 128,-1,6
 72 409 72 409 72 473 c 0,7,8
 72 525 72 525 86.5 567.5 c 128,-1,9
 101 610 101 610 126 640.5 c 128,-1,10
 151 671 151 671 183 687.5 c 128,-1,11
 215 704 215 704 250 704 c 0,12,13
 300 704 300 704 329 667.5 c 128,-1,14
 358 631 358 631 358 565 c 0,15,16
 358 515 358 515 344.5 472.5 c 128,-1,17
 331 430 331 430 307 399 c 128,-1,18
 283 368 283 368 250.5 351 c 128,-1,19
 218 334 218 334 180 334 c 0,4,5
238 639 m 0,20,21
 223 639 223 639 207 628.5 c 128,-1,22
 191 618 191 618 177.5 597.5 c 128,-1,23
 164 577 164 577 155.5 547.5 c 128,-1,24
 147 518 147 518 147 480 c 0,25,26
 147 441 147 441 159.5 420 c 128,-1,27
 172 399 172 399 193 399 c 0,28,29
 212 399 212 399 228.5 411.5 c 128,-1,30
 245 424 245 424 257.5 444 c 128,-1,31
 270 464 270 464 276.5 493 c 128,-1,32
 283 522 283 522 283 557 c 0,33,34
 283 598 283 598 270.5 618.5 c 128,-1,35
 258 639 258 639 238 639 c 0,20,21
543 -11 m 0,36,37
 491 -11 491 -11 462.5 26.5 c 128,-1,38
 434 64 434 64 434 128 c 0,39,40
 434 180 434 180 448.5 222.5 c 128,-1,41
 463 265 463 265 488 295.5 c 128,-1,42
 513 326 513 326 545 342.5 c 128,-1,43
 577 359 577 359 612 359 c 0,44,45
 662 359 662 359 691 322.5 c 128,-1,46
 720 286 720 286 720 220 c 0,47,48
 720 170 720 170 706.5 127.5 c 128,-1,49
 693 85 693 85 669.5 54 c 128,-1,50
 646 23 646 23 613.5 6 c 128,-1,51
 581 -11 581 -11 543 -11 c 0,36,37
600 294 m 0,52,53
 585 294 585 294 569 283.5 c 128,-1,54
 553 273 553 273 539.5 252.5 c 128,-1,55
 526 232 526 232 517.5 202.5 c 128,-1,56
 509 173 509 173 509 135 c 0,57,58
 509 96 509 96 522 75 c 128,-1,59
 535 54 535 54 555 54 c 0,60,61
 574 54 574 54 591 66.5 c 128,-1,62
 608 79 608 79 620.5 99 c 128,-1,63
 633 119 633 119 639 148 c 128,-1,64
 645 177 645 177 645 212 c 0,65,66
 645 253 645 253 632.5 273.5 c 128,-1,67
 620 294 620 294 600 294 c 0,52,53
867 -11 m 0,68,69
 816 -11 816 -11 787 26.5 c 128,-1,70
 758 64 758 64 758 128 c 0,71,72
 758 180 758 180 773 222.5 c 128,-1,73
 788 265 788 265 812.5 295.5 c 128,-1,74
 837 326 837 326 869.5 342.5 c 128,-1,75
 902 359 902 359 937 359 c 0,76,77
 986 359 986 359 1015 322.5 c 128,-1,78
 1044 286 1044 286 1044 220 c 0,79,80
 1044 170 1044 170 1030.5 127.5 c 128,-1,81
 1017 85 1017 85 993.5 54 c 128,-1,82
 970 23 970 23 937.5 6 c 128,-1,83
 905 -11 905 -11 867 -11 c 0,68,69
924 294 m 0,84,85
 909 294 909 294 893 283.5 c 128,-1,86
 877 273 877 273 863.5 252.5 c 128,-1,87
 850 232 850 232 841.5 202.5 c 128,-1,88
 833 173 833 173 833 135 c 0,89,90
 833 96 833 96 846 75 c 128,-1,91
 859 54 859 54 879 54 c 0,92,93
 898 54 898 54 915 66.5 c 128,-1,94
 932 79 932 79 944.5 99 c 128,-1,95
 957 119 957 119 963 148 c 128,-1,96
 969 177 969 177 969 212 c 0,97,98
 969 253 969 253 956.5 273.5 c 128,-1,99
 944 294 944 294 924 294 c 0,84,85
EndSplineSet
EndChar

StartChar: guilsinglleft
Encoding: 8249 8249 220
Width: 333
Flags: W
LayerCount: 2
Back
Fore
SplineSet
114 78 m 1,0,-1
 14 284 l 1,1,-1
 186 490 l 1,2,-1
 321 490 l 1,3,-1
 149 284 l 1,4,-1
 249 78 l 1,5,-1
 114 78 l 1,0,-1
EndSplineSet
EndChar

StartChar: guilsinglright
Encoding: 8250 8250 221
Width: 334
Flags: W
LayerCount: 2
Back
Fore
SplineSet
136 78 m 1,0,-1
 1 78 l 1,1,-1
 173 284 l 1,2,-1
 74 490 l 1,3,-1
 209 490 l 1,4,-1
 308 284 l 1,5,-1
 136 78 l 1,0,-1
EndSplineSet
EndChar

StartChar: uni2070
Encoding: 8304 8304 222
Width: 387
Flags: W
LayerCount: 2
Back
Fore
SplineSet
186 312 m 0,0,1
 128 312 128 312 96.5 353.5 c 128,-1,2
 65 395 65 395 65 462 c 0,3,4
 65 513 65 513 81 557.5 c 128,-1,5
 97 602 97 602 124.5 635 c 128,-1,6
 152 668 152 668 187.5 687 c 128,-1,7
 223 706 223 706 262 706 c 0,8,9
 319 706 319 706 350.5 663 c 128,-1,10
 382 620 382 620 382 551 c 0,11,12
 382 502 382 502 367.5 458.5 c 128,-1,13
 353 415 353 415 327 382.5 c 128,-1,14
 301 350 301 350 265 331 c 128,-1,15
 229 312 229 312 186 312 c 0,0,1
247 628 m 0,16,17
 233 628 233 628 216.5 618.5 c 128,-1,18
 200 609 200 609 185.5 589 c 128,-1,19
 171 569 171 569 161.5 539 c 128,-1,20
 152 509 152 509 152 469 c 0,21,22
 152 427 152 427 166.5 409.5 c 128,-1,23
 181 392 181 392 201 392 c 0,24,25
 219 392 219 392 236 401 c 128,-1,26
 253 410 253 410 266.5 428.5 c 128,-1,27
 280 447 280 447 288 475.5 c 128,-1,28
 296 504 296 504 296 544 c 0,29,30
 296 588 296 588 280.5 608 c 128,-1,31
 265 628 265 628 247 628 c 0,16,17
EndSplineSet
EndChar

StartChar: uni2074
Encoding: 8308 8308 223
Width: 333
Flags: W
LayerCount: 2
Back
Fore
SplineSet
274 423 m 1,0,-1
 256 320 l 1,1,-1
 167 320 l 1,2,-1
 186 423 l 1,3,-1
 28 423 l 1,4,-1
 245 698 l 1,5,-1
 323 698 l 1,6,-1
 286 490 l 1,7,-1
 330 490 l 1,8,-1
 319 423 l 1,9,-1
 274 423 l 1,0,-1
213 576 m 1,10,-1
 151 490 l 1,11,-1
 198 490 l 1,12,-1
 213 576 l 1,10,-1
EndSplineSet
EndChar

StartChar: uni2075
Encoding: 8309 8309 224
Width: 298
Flags: W
LayerCount: 2
Back
Fore
SplineSet
133 314 m 0,0,1
 111 314 111 314 93.5 319 c 128,-1,2
 76 324 76 324 63.5 330.5 c 128,-1,3
 51 337 51 337 44 343.5 c 128,-1,4
 37 350 37 350 36 354 c 2,5,-1
 71 433 l 1,6,7
 76 419 76 419 98 408 c 128,-1,8
 120 397 120 397 145 397 c 0,9,10
 174 397 174 397 189 412.5 c 128,-1,11
 204 428 204 428 204 450 c 0,12,13
 204 463 204 463 194.5 474 c 128,-1,14
 185 485 185 485 149 485 c 2,15,-1
 77 485 l 1,16,-1
 139 698 l 1,17,-1
 308 698 l 1,18,-1
 283 608 l 1,19,-1
 188 608 l 1,20,-1
 173 556 l 1,21,22
 229 554 229 554 256 533 c 128,-1,23
 283 512 283 512 283 461 c 0,24,25
 283 423 283 423 269.5 395.5 c 128,-1,26
 256 368 256 368 235 350 c 128,-1,27
 214 332 214 332 187 323 c 128,-1,28
 160 314 160 314 133 314 c 0,0,1
EndSplineSet
EndChar

StartChar: uni2076
Encoding: 8310 8310 225
Width: 310
Flags: W
LayerCount: 2
Back
Fore
SplineSet
149 312 m 0,0,1
 108 312 108 312 83 338 c 128,-1,2
 58 364 58 364 58 424 c 0,3,4
 58 486 58 486 83 536.5 c 128,-1,5
 108 587 108 587 141.5 622.5 c 128,-1,6
 175 658 175 658 208.5 678 c 128,-1,7
 242 698 242 698 260 698 c 1,8,-1
 313 664 l 1,9,10
 299 664 299 664 275 648 c 128,-1,11
 251 632 251 632 227 610.5 c 128,-1,12
 203 589 203 589 184.5 567.5 c 128,-1,13
 166 546 166 546 165 536 c 1,14,15
 168 539 168 539 175.5 541.5 c 128,-1,16
 183 544 183 544 191 545.5 c 128,-1,17
 199 547 199 547 205.5 547.5 c 128,-1,18
 212 548 212 548 213 548 c 0,19,20
 251 548 251 548 276 525 c 128,-1,21
 301 502 301 502 301 459 c 0,22,23
 301 432 301 432 289.5 405.5 c 128,-1,24
 278 379 278 379 257.5 358 c 128,-1,25
 237 337 237 337 209.5 324.5 c 128,-1,26
 182 312 182 312 149 312 c 0,0,1
193 478 m 0,27,28
 166 478 166 478 152.5 466.5 c 128,-1,29
 139 455 139 455 139 426 c 0,30,31
 139 411 139 411 151 402 c 128,-1,32
 163 393 163 393 171 393 c 256,33,34
 179 393 179 393 188 397.5 c 128,-1,35
 197 402 197 402 205 409.5 c 128,-1,36
 213 417 213 417 218 426.5 c 128,-1,37
 223 436 223 436 223 447 c 0,38,39
 223 459 223 459 213.5 468.5 c 128,-1,40
 204 478 204 478 193 478 c 0,27,28
EndSplineSet
EndChar

StartChar: uni2077
Encoding: 8311 8311 226
Width: 288
Flags: W
LayerCount: 2
Back
Fore
SplineSet
137 320 m 1,0,-1
 41 320 l 1,1,-1
 199 608 l 1,2,-1
 87 608 l 1,3,-1
 102 698 l 1,4,-1
 347 698 l 1,5,-1
 137 320 l 1,0,-1
EndSplineSet
EndChar

StartChar: uni2078
Encoding: 8312 8312 227
Width: 329
Flags: W
LayerCount: 2
Back
Fore
SplineSet
155 312 m 0,0,1
 103 312 103 312 77 337.5 c 128,-1,2
 51 363 51 363 51 401 c 0,3,4
 51 433 51 433 67.5 464 c 128,-1,5
 84 495 84 495 108 524 c 1,6,7
 104 529 104 529 102.5 542.5 c 128,-1,8
 101 556 101 556 101 567 c 0,9,10
 101 597 101 597 108 622.5 c 128,-1,11
 115 648 115 648 130.5 666.5 c 128,-1,12
 146 685 146 685 171 695.5 c 128,-1,13
 196 706 196 706 233 706 c 0,14,15
 258 706 258 706 272.5 699.5 c 128,-1,16
 287 693 287 693 294.5 677.5 c 128,-1,17
 302 662 302 662 303.5 636.5 c 128,-1,18
 305 611 305 611 305 573 c 0,19,20
 305 561 305 561 300 547.5 c 128,-1,21
 295 534 295 534 287 528 c 1,22,23
 293 517 293 517 303 494 c 128,-1,24
 313 471 313 471 313 446 c 0,25,26
 313 425 313 425 303.5 401 c 128,-1,27
 294 377 294 377 274.5 357.5 c 128,-1,28
 255 338 255 338 225 325 c 128,-1,29
 195 312 195 312 155 312 c 0,0,1
220 643 m 0,30,31
 195 643 195 643 184.5 625.5 c 128,-1,32
 174 608 174 608 174 579 c 0,33,34
 174 571 174 571 179.5 563 c 128,-1,35
 185 555 185 555 202 552 c 1,36,37
 227 558 227 558 236.5 572.5 c 128,-1,38
 246 587 246 587 246 617 c 0,39,40
 246 626 246 626 240.5 634.5 c 128,-1,41
 235 643 235 643 220 643 c 0,30,31
197 496 m 0,42,43
 190 495 190 495 178.5 489.5 c 128,-1,44
 167 484 167 484 156.5 474 c 128,-1,45
 146 464 146 464 138.5 450 c 128,-1,46
 131 436 131 436 131 419 c 0,47,48
 131 401 131 401 141.5 389 c 128,-1,49
 152 377 152 377 170 377 c 0,50,51
 201 377 201 377 214 393.5 c 128,-1,52
 227 410 227 410 227 445 c 0,53,54
 227 468 227 468 217.5 480.5 c 128,-1,55
 208 493 208 493 197 496 c 0,42,43
EndSplineSet
EndChar

StartChar: uni2079
Encoding: 8313 8313 228
Width: 308
Flags: W
LayerCount: 2
Back
Fore
SplineSet
228 706 m 0,0,1
 272 706 272 706 296 678 c 128,-1,2
 320 650 320 650 320 594 c 0,3,4
 320 544 320 544 300.5 495 c 128,-1,5
 281 446 281 446 250.5 407 c 128,-1,6
 220 368 220 368 183 344 c 128,-1,7
 146 320 146 320 110 320 c 1,8,-1
 67 354 l 1,9,10
 80 354 80 354 105 366.5 c 128,-1,11
 130 379 130 379 155 398 c 128,-1,12
 180 417 180 417 200 440 c 128,-1,13
 220 463 220 463 224 485 c 1,14,15
 211 476 211 476 198.5 473.5 c 128,-1,16
 186 471 186 471 169 471 c 0,17,18
 155 471 155 471 138.5 477 c 128,-1,19
 122 483 122 483 108 495 c 128,-1,20
 94 507 94 507 85 524 c 128,-1,21
 76 541 76 541 76 563 c 0,22,23
 76 589 76 589 87.5 614.5 c 128,-1,24
 99 640 99 640 119 660.5 c 128,-1,25
 139 681 139 681 167 693.5 c 128,-1,26
 195 706 195 706 228 706 c 0,0,1
188 540 m 0,27,28
 212 540 212 540 227.5 551.5 c 128,-1,29
 243 563 243 563 243 595 c 0,30,31
 243 606 243 606 239.5 612.5 c 128,-1,32
 236 619 236 619 231 622.5 c 128,-1,33
 226 626 226 626 221 627 c 128,-1,34
 216 628 216 628 214 628 c 0,35,36
 203 628 203 628 194 622.5 c 128,-1,37
 185 617 185 617 178 608.5 c 128,-1,38
 171 600 171 600 167.5 590.5 c 128,-1,39
 164 581 164 581 164 572 c 0,40,41
 164 557 164 557 172 548.5 c 128,-1,42
 180 540 180 540 188 540 c 0,27,28
EndSplineSet
EndChar

StartChar: Euro
Encoding: 8364 8364 239
Width: 669
Flags: W
LayerCount: 2
Back
Fore
SplineSet
377 17 m 0,0,1
 286 17 286 17 225.5 68 c 128,-1,2
 165 119 165 119 148 211 c 1,3,-1
 18 211 l 1,4,-1
 60 292 l 1,5,-1
 143 292 l 1,6,7
 144 306 144 306 146.5 325 c 128,-1,8
 149 344 149 344 152 361 c 1,9,-1
 68 361 l 1,10,-1
 111 443 l 1,11,-1
 176 443 l 1,12,13
 198 499 198 499 231.5 543.5 c 128,-1,14
 265 588 265 588 306.5 619 c 128,-1,15
 348 650 348 650 396 666.5 c 128,-1,16
 444 683 444 683 495 683 c 0,17,18
 538 683 538 683 579 674 c 128,-1,19
 620 665 620 665 652 647 c 1,20,-1
 620 539 l 1,21,22
 587 556 587 556 553.5 567 c 128,-1,23
 520 578 520 578 476 578 c 0,24,25
 413 578 413 578 369 542 c 128,-1,26
 325 506 325 506 297 443 c 1,27,-1
 522 443 l 1,28,-1
 479 361 l 1,29,-1
 271 361 l 1,30,31
 267 348 267 348 264.5 325.5 c 128,-1,32
 262 303 262 303 262 292 c 1,33,-1
 479 292 l 1,34,-1
 438 211 l 1,35,-1
 274 211 l 1,36,37
 299 122 299 122 396 122 c 0,38,39
 440 122 440 122 477 133 c 128,-1,40
 514 144 514 144 553 161 c 1,41,-1
 547 53 l 1,42,43
 509 35 509 35 465 26 c 128,-1,44
 421 17 421 17 377 17 c 0,0,1
EndSplineSet
EndChar

StartChar: trademark
Encoding: 8482 8482 240
Width: 703
Flags: W
LayerCount: 2
Back
Fore
SplineSet
469 431 m 1,0,-1
 427 567 l 1,1,-1
 362 337 l 1,2,-1
 286 337 l 1,3,-1
 395 700 l 1,4,-1
 441 700 l 1,5,-1
 494 542 l 1,6,-1
 602 700 l 1,7,-1
 649 700 l 1,8,-1
 630 337 l 1,9,-1
 553 337 l 1,10,-1
 570 566 l 1,11,-1
 479 431 l 1,12,-1
 469 431 l 1,0,-1
337 631 m 1,13,-1
 253 631 l 1,14,-1
 200 337 l 1,15,-1
 126 337 l 1,16,-1
 178 631 l 1,17,-1
 91 631 l 1,18,-1
 104 700 l 1,19,-1
 358 700 l 1,20,-1
 337 631 l 1,13,-1
EndSplineSet
EndChar

StartChar: M.sc
Encoding: 65537 -1 241
Width: 711
Flags: W
LayerCount: 2
Back
Fore
SplineSet
476 0 m 1,0,-1
 496 371 l 1,1,-1
 313 116 l 1,2,-1
 219 371 l 1,3,-1
 109 0 l 1,4,-1
 -8 0 l 1,5,-1
 171 574 l 1,6,-1
 262 574 l 1,7,-1
 349 319 l 1,8,-1
 525 574 l 1,9,-1
 616 574 l 1,10,-1
 594 0 l 1,11,-1
 476 0 l 1,0,-1
EndSplineSet
EndChar

StartChar: L.sc
Encoding: 65538 -1 242
Width: 426
Flags: W
LayerCount: 2
Back
Fore
SplineSet
21 0 m 1,0,-1
 122 574 l 1,1,-1
 235 574 l 1,2,-1
 153 110 l 1,3,-1
 371 110 l 1,4,-1
 351 0 l 1,5,-1
 21 0 l 1,0,-1
EndSplineSet
EndChar

StartChar: S.sc
Encoding: 65539 -1 243
Width: 500
Flags: W
LayerCount: 2
Back
Fore
SplineSet
181 -12 m 0,0,1
 117 -12 117 -12 70 1 c 128,-1,2
 23 14 23 14 3 31 c 1,3,-1
 38 159 l 1,4,5
 55 136 55 136 96 117 c 128,-1,6
 137 98 137 98 202 98 c 0,7,8
 250 98 250 98 274 112 c 128,-1,9
 298 126 298 126 298 159 c 0,10,11
 298 179 298 179 290 192.5 c 128,-1,12
 282 206 282 206 267.5 216.5 c 128,-1,13
 253 227 253 227 233.5 235 c 128,-1,14
 214 243 214 243 191 252 c 256,15,16
 168 261 168 261 144.5 271.5 c 128,-1,17
 121 282 121 282 102 297.5 c 128,-1,18
 83 313 83 313 71.5 334.5 c 128,-1,19
 60 356 60 356 60 388 c 0,20,21
 60 419 60 419 73 453.5 c 128,-1,22
 86 488 86 488 114.5 517.5 c 128,-1,23
 143 547 143 547 187 566.5 c 128,-1,24
 231 586 231 586 294 586 c 0,25,26
 354 586 354 586 400.5 570.5 c 128,-1,27
 447 555 447 555 464 540 c 1,28,-1
 434 426 l 1,29,30
 392 452 392 452 354.5 465 c 128,-1,31
 317 478 317 478 278 478 c 0,32,33
 263 478 263 478 245 475.5 c 128,-1,34
 227 473 227 473 212 466.5 c 128,-1,35
 197 460 197 460 186.5 448.5 c 128,-1,36
 176 437 176 437 176 418 c 0,37,38
 176 388 176 388 202 373.5 c 128,-1,39
 228 359 228 359 272 344 c 0,40,41
 298 335 298 335 326 323.5 c 128,-1,42
 354 312 354 312 376.5 294.5 c 128,-1,43
 399 277 399 277 413.5 250.5 c 128,-1,44
 428 224 428 224 428 185 c 0,45,46
 428 162 428 162 420 128 c 128,-1,47
 412 94 412 94 386 63 c 128,-1,48
 360 32 360 32 311 10 c 128,-1,49
 262 -12 262 -12 181 -12 c 0,0,1
EndSplineSet
EndChar

StartChar: J.sc
Encoding: 65540 -1 244
Width: 259
Flags: W
LayerCount: 2
Back
Fore
SplineSet
-58 -141 m 1,0,-1
 -50 -53 l 1,1,-1
 -21 -53 l 2,2,3
 7 -53 7 -53 17 4 c 2,4,-1
 118 574 l 1,5,-1
 231 574 l 1,6,-1
 127 -18 l 2,7,8
 116 -81 116 -81 75 -111 c 128,-1,9
 34 -141 34 -141 -22 -141 c 2,10,-1
 -58 -141 l 1,0,-1
EndSplineSet
EndChar

StartChar: O.sc
Encoding: 65541 -1 245
Width: 649
Flags: W
LayerCount: 2
Back
Fore
SplineSet
261 -12 m 0,0,1
 209 -12 209 -12 166.5 5.5 c 128,-1,2
 124 23 124 23 94 55 c 128,-1,3
 64 87 64 87 48 132 c 128,-1,4
 32 177 32 177 32 233 c 0,5,6
 32 311 32 311 58.5 375.5 c 128,-1,7
 85 440 85 440 130.5 487 c 128,-1,8
 176 534 176 534 236.5 560 c 128,-1,9
 297 586 297 586 365 586 c 0,10,11
 417 586 417 586 459 568.5 c 128,-1,12
 501 551 501 551 530.5 519 c 128,-1,13
 560 487 560 487 576 442.5 c 128,-1,14
 592 398 592 398 592 343 c 0,15,16
 592 265 592 265 565.5 200 c 128,-1,17
 539 135 539 135 494 88 c 128,-1,18
 449 41 449 41 389 14.5 c 128,-1,19
 329 -12 329 -12 261 -12 c 0,0,1
346 477 m 0,20,21
 301 477 301 477 265.5 458.5 c 128,-1,22
 230 440 230 440 206 408 c 128,-1,23
 182 376 182 376 169.5 333.5 c 128,-1,24
 157 291 157 291 157 243 c 0,25,26
 157 178 157 178 187 138 c 128,-1,27
 217 98 217 98 280 98 c 0,28,29
 325 98 325 98 360 116.5 c 128,-1,30
 395 135 395 135 419 167.5 c 128,-1,31
 443 200 443 200 455 242.5 c 128,-1,32
 467 285 467 285 467 333 c 0,33,34
 467 396 467 396 437.5 436.5 c 128,-1,35
 408 477 408 477 346 477 c 0,20,21
EndSplineSet
EndChar

StartChar: N.sc
Encoding: 65542 -1 246
Width: 605
Flags: W
LayerCount: 2
Back
Fore
SplineSet
371 0 m 1,0,-1
 201 378 l 1,1,-1
 134 0 l 1,2,-1
 21 0 l 1,3,-1
 122 574 l 1,4,-1
 230 574 l 1,5,-1
 390 219 l 1,6,-1
 452 574 l 1,7,-1
 565 574 l 1,8,-1
 464 0 l 1,9,-1
 371 0 l 1,0,-1
EndSplineSet
EndChar

StartChar: H.sc
Encoding: 65543 -1 247
Width: 630
Flags: W
LayerCount: 2
Back
Fore
SplineSet
373 0 m 1,0,-1
 416 245 l 1,1,-1
 177 245 l 1,2,-1
 134 0 l 1,3,-1
 21 0 l 1,4,-1
 122 574 l 1,5,-1
 235 574 l 1,6,-1
 196 354 l 1,7,-1
 436 354 l 1,8,-1
 474 574 l 1,9,-1
 588 574 l 1,10,-1
 486 0 l 1,11,-1
 373 0 l 1,0,-1
EndSplineSet
EndChar

StartChar: R.sc
Encoding: 65544 -1 248
Width: 544
Flags: W
LayerCount: 2
Back
Fore
SplineSet
342 0 m 1,0,-1
 268 211 l 1,1,-1
 170 211 l 1,2,-1
 133 0 l 1,3,-1
 21 0 l 1,4,-1
 122 574 l 1,5,-1
 336 574 l 2,6,7
 370 574 370 574 400.5 567 c 128,-1,8
 431 560 431 560 453 544.5 c 128,-1,9
 475 529 475 529 488 503.5 c 128,-1,10
 501 478 501 478 501 441 c 0,11,12
 501 399 501 399 490.5 368 c 128,-1,13
 480 337 480 337 463 314 c 128,-1,14
 446 291 446 291 423.5 273.5 c 128,-1,15
 401 256 401 256 376 240 c 1,16,-1
 458 0 l 1,17,-1
 342 0 l 1,0,-1
217 480 m 1,18,-1
 189 315 l 1,19,-1
 243 315 l 2,20,21
 289 315 289 315 316 323 c 128,-1,22
 343 331 343 331 357 345.5 c 128,-1,23
 371 360 371 360 375.5 379.5 c 128,-1,24
 380 399 380 399 380 422 c 0,25,26
 380 449 380 449 361 464.5 c 128,-1,27
 342 480 342 480 287 480 c 2,28,-1
 217 480 l 1,18,-1
EndSplineSet
EndChar

StartChar: I.sc
Encoding: 65545 -1 249
Width: 259
Flags: W
LayerCount: 2
Back
Fore
SplineSet
21 0 m 1,0,-1
 122 574 l 1,1,-1
 236 574 l 1,2,-1
 134 0 l 1,3,-1
 21 0 l 1,0,-1
EndSplineSet
EndChar

StartChar: OE.sc
Encoding: 65546 -1 250
Width: 894
Flags: W
LayerCount: 2
Back
Fore
SplineSet
541 0 m 1,0,-1
 422 0 l 1,1,-1
 429 39 l 1,2,3
 400 16 400 16 355.5 2 c 128,-1,4
 311 -12 311 -12 262 -12 c 0,5,6
 210 -12 210 -12 167.5 5.5 c 128,-1,7
 125 23 125 23 95 55 c 128,-1,8
 65 87 65 87 48.5 132 c 128,-1,9
 32 177 32 177 32 233 c 0,10,11
 32 311 32 311 58.5 375.5 c 128,-1,12
 85 440 85 440 131 487 c 128,-1,13
 177 534 177 534 238 560 c 128,-1,14
 299 586 299 586 367 586 c 0,15,16
 417 586 417 586 455.5 572 c 128,-1,17
 494 558 494 558 516 536 c 1,18,-1
 523 574 l 1,19,-1
 871 574 l 1,20,-1
 852 464 l 1,21,-1
 621 464 l 1,22,-1
 602 354 l 1,23,-1
 779 354 l 1,24,-1
 760 245 l 1,25,-1
 583 245 l 1,26,-1
 559 110 l 1,27,-1
 796 110 l 1,28,-1
 777 0 l 1,29,-1
 541 0 l 1,0,-1
348 477 m 0,30,31
 303 477 303 477 268 458.5 c 128,-1,32
 233 440 233 440 208.5 408 c 128,-1,33
 184 376 184 376 171.5 334 c 128,-1,34
 159 292 159 292 159 244 c 0,35,36
 159 178 159 178 188.5 138 c 128,-1,37
 218 98 218 98 281 98 c 0,38,39
 326 98 326 98 361.5 116.5 c 128,-1,40
 397 135 397 135 421.5 167 c 128,-1,41
 446 199 446 199 458.5 241 c 128,-1,42
 471 283 471 283 471 331 c 0,43,44
 471 396 471 396 441 436.5 c 128,-1,45
 411 477 411 477 348 477 c 0,30,31
EndSplineSet
EndChar

StartChar: Q.sc
Encoding: 65547 -1 251
Width: 649
Flags: W
LayerCount: 2
Back
Fore
SplineSet
472 -11 m 1,0,-1
 424 37 l 1,1,2
 391 13 391 13 348.5 0.5 c 128,-1,3
 306 -12 306 -12 261 -12 c 0,4,5
 209 -12 209 -12 166.5 5.5 c 128,-1,6
 124 23 124 23 94 55 c 128,-1,7
 64 87 64 87 48 132 c 128,-1,8
 32 177 32 177 32 233 c 0,9,10
 32 311 32 311 58.5 375.5 c 128,-1,11
 85 440 85 440 130.5 487 c 128,-1,12
 176 534 176 534 236.5 560 c 128,-1,13
 297 586 297 586 365 586 c 0,14,15
 417 586 417 586 459 568.5 c 128,-1,16
 501 551 501 551 530.5 519 c 128,-1,17
 560 487 560 487 576 442.5 c 128,-1,18
 592 398 592 398 592 343 c 0,19,20
 592 274 592 274 568.5 215 c 128,-1,21
 545 156 545 156 510 111 c 1,22,-1
 553 68 l 1,23,-1
 472 -11 l 1,0,-1
346 477 m 0,24,25
 301 477 301 477 265.5 458.5 c 128,-1,26
 230 440 230 440 206 408 c 128,-1,27
 182 376 182 376 169.5 333 c 128,-1,28
 157 290 157 290 157 242 c 0,29,30
 157 178 157 178 187 138 c 128,-1,31
 217 98 217 98 280 98 c 0,32,33
 301 98 301 98 315 102 c 128,-1,34
 329 106 329 106 343 113 c 1,35,-1
 293 168 l 1,36,-1
 374 247 l 1,37,-1
 428 191 l 1,38,39
 432 201 432 201 438 214 c 128,-1,40
 444 227 444 227 450 244 c 128,-1,41
 456 261 456 261 460 283.5 c 128,-1,42
 464 306 464 306 464 335 c 0,43,44
 464 398 464 398 435.5 437.5 c 128,-1,45
 407 477 407 477 346 477 c 0,24,25
EndSplineSet
EndChar

StartChar: K.sc
Encoding: 65548 -1 252
Width: 544
Flags: W
LayerCount: 2
Back
Fore
SplineSet
339 0 m 1,0,-1
 204 304 l 1,1,-1
 440 574 l 1,2,-1
 569 574 l 1,3,-1
 333 304 l 1,4,-1
 467 0 l 1,5,-1
 339 0 l 1,0,-1
21 0 m 1,6,-1
 123 574 l 1,7,-1
 236 574 l 1,8,-1
 134 0 l 1,9,-1
 21 0 l 1,6,-1
EndSplineSet
EndChar

StartChar: F.sc
Encoding: 65549 -1 253
Width: 455
Flags: W
LayerCount: 2
Back
Fore
SplineSet
216 464 m 1,0,-1
 196 354 l 1,1,-1
 375 354 l 1,2,-1
 355 245 l 1,3,-1
 177 245 l 1,4,-1
 134 0 l 1,5,-1
 21 0 l 1,6,-1
 122 574 l 1,7,-1
 467 574 l 1,8,-1
 447 464 l 1,9,-1
 216 464 l 1,0,-1
EndSplineSet
EndChar

StartChar: G.sc
Encoding: 65550 -1 254
Width: 567
Flags: W
LayerCount: 2
Back
Fore
SplineSet
259 -12 m 0,0,1
 208 -12 208 -12 166.5 5.5 c 128,-1,2
 125 23 125 23 95 55 c 128,-1,3
 65 87 65 87 49 132 c 128,-1,4
 33 177 33 177 33 233 c 0,5,6
 33 310 33 310 59 375 c 128,-1,7
 85 440 85 440 130.5 487 c 128,-1,8
 176 534 176 534 237 560 c 128,-1,9
 298 586 298 586 368 586 c 0,10,11
 388 586 388 586 411 583.5 c 128,-1,12
 434 581 434 581 456 576.5 c 128,-1,13
 478 572 478 572 497 566 c 128,-1,14
 516 560 516 560 530 552 c 1,15,-1
 498 443 l 1,16,17
 469 457 469 457 429 467 c 128,-1,18
 389 477 389 477 352 477 c 0,19,20
 303 477 303 477 266.5 458 c 128,-1,21
 230 439 230 439 206 407 c 128,-1,22
 182 375 182 375 170.5 333.5 c 128,-1,23
 159 292 159 292 159 246 c 0,24,25
 159 180 159 180 190 139 c 128,-1,26
 221 98 221 98 286 98 c 0,27,28
 303 98 303 98 319.5 100 c 128,-1,29
 336 102 336 102 356 105 c 1,30,-1
 373 196 l 1,31,-1
 324 196 l 1,32,-1
 340 288 l 1,33,-1
 502 288 l 1,34,-1
 485 194 l 1,35,-1
 456 32 l 1,36,37
 440 23 440 23 416 15 c 128,-1,38
 392 7 392 7 365 1 c 128,-1,39
 338 -5 338 -5 310 -8.5 c 128,-1,40
 282 -12 282 -12 259 -12 c 0,0,1
EndSplineSet
EndChar

StartChar: E.sc
Encoding: 65551 -1 255
Width: 490
Flags: W
LayerCount: 2
Back
Fore
SplineSet
140 0 m 1,0,-1
 21 0 l 1,1,-1
 122 574 l 1,2,-1
 485 574 l 1,3,-1
 466 464 l 1,4,-1
 220 464 l 1,5,-1
 201 354 l 1,6,-1
 390 354 l 1,7,-1
 370 245 l 1,8,-1
 181 245 l 1,9,-1
 157 110 l 1,10,-1
 412 110 l 1,11,-1
 392 0 l 1,12,-1
 140 0 l 1,0,-1
EndSplineSet
EndChar

StartChar: D.sc
Encoding: 65552 -1 256
Width: 616
Flags: W
LayerCount: 2
Back
Fore
SplineSet
21 0 m 1,0,-1
 122 574 l 1,1,-1
 332 574 l 2,2,3
 383 574 383 574 425 558 c 128,-1,4
 467 542 467 542 497 512 c 128,-1,5
 527 482 527 482 543.5 439 c 128,-1,6
 560 396 560 396 560 342 c 0,7,8
 560 263 560 263 534 200 c 128,-1,9
 508 137 508 137 463.5 92.5 c 128,-1,10
 419 48 419 48 359 24 c 128,-1,11
 299 0 299 0 231 0 c 2,12,-1
 134 0 l 1,13,-1
 21 0 l 1,0,-1
216 465 m 1,14,-1
 153 109 l 1,15,-1
 250 109 l 2,16,17
 296 109 296 109 331 125.5 c 128,-1,18
 366 142 366 142 389 172 c 128,-1,19
 412 202 412 202 423.5 242.5 c 128,-1,20
 435 283 435 283 435 331 c 0,21,22
 435 394 435 394 405.5 429.5 c 128,-1,23
 376 465 376 465 313 465 c 2,24,-1
 216 465 l 1,14,-1
EndSplineSet
EndChar

StartChar: C.sc
Encoding: 65553 -1 257
Width: 521
Flags: W
LayerCount: 2
Back
Fore
SplineSet
258 -12 m 0,0,1
 207 -12 207 -12 165 5.5 c 128,-1,2
 123 23 123 23 93.5 55 c 128,-1,3
 64 87 64 87 48 132 c 128,-1,4
 32 177 32 177 32 232 c 0,5,6
 32 310 32 310 58.5 375 c 128,-1,7
 85 440 85 440 130 487 c 128,-1,8
 175 534 175 534 235.5 560 c 128,-1,9
 296 586 296 586 364 586 c 0,10,11
 409 586 409 586 449 577 c 128,-1,12
 489 568 489 568 517 552 c 1,13,-1
 486 445 l 1,14,15
 453 460 453 460 421 468.5 c 128,-1,16
 389 477 389 477 344 477 c 0,17,18
 298 477 298 477 263 458 c 128,-1,19
 228 439 228 439 204.5 407 c 128,-1,20
 181 375 181 375 169 332 c 128,-1,21
 157 289 157 289 157 241 c 0,22,23
 157 177 157 177 186.5 137.5 c 128,-1,24
 216 98 216 98 276 98 c 0,25,26
 321 98 321 98 356.5 106.5 c 128,-1,27
 392 115 392 115 430 130 c 1,28,-1
 424 22 l 1,29,30
 391 6 391 6 347 -3 c 128,-1,31
 303 -12 303 -12 258 -12 c 0,0,1
EndSplineSet
EndChar

StartChar: V.sc
Encoding: 65554 -1 258
Width: 555
Flags: W
LayerCount: 2
Back
Fore
SplineSet
288 0 m 1,0,-1
 146 0 l 1,1,-1
 52 574 l 1,2,-1
 170 574 l 1,3,-1
 243 152 l 1,4,-1
 461 574 l 1,5,-1
 578 574 l 1,6,-1
 288 0 l 1,0,-1
EndSplineSet
EndChar

StartChar: W.sc
Encoding: 65555 -1 259
Width: 816
Flags: W
LayerCount: 2
Back
Fore
SplineSet
558 0 m 1,0,-1
 465 0 l 1,1,-1
 408 360 l 1,2,-1
 227 0 l 1,3,-1
 126 0 l 1,4,-1
 69 574 l 1,5,-1
 187 574 l 1,6,-1
 224 187 l 1,7,-1
 410 577 l 1,8,-1
 482 577 l 1,9,-1
 539 200 l 1,10,-1
 705 574 l 1,11,-1
 822 574 l 1,12,-1
 558 0 l 1,0,-1
EndSplineSet
EndChar

StartChar: B.sc
Encoding: 65556 -1 260
Width: 546
Flags: W
LayerCount: 2
Back
Fore
SplineSet
21 0 m 1,0,-1
 122 574 l 1,1,-1
 283 574 l 2,2,3
 325 574 325 574 360.5 570 c 128,-1,4
 396 566 396 566 421.5 553 c 128,-1,5
 447 540 447 540 461 517 c 128,-1,6
 475 494 475 494 475 457 c 0,7,8
 475 401 475 401 452.5 364 c 128,-1,9
 430 327 430 327 403 307 c 1,10,11
 439 292 439 292 460 265.5 c 128,-1,12
 481 239 481 239 481 195 c 0,13,14
 481 139 481 139 459 102 c 128,-1,15
 437 65 437 65 403 42 c 128,-1,16
 369 19 369 19 327 9.5 c 128,-1,17
 285 0 285 0 246 0 c 2,18,-1
 136 0 l 1,19,-1
 21 0 l 1,0,-1
219 480 m 1,20,-1
 195 346 l 1,21,-1
 297 346 l 2,22,23
 306 346 306 346 318.5 350 c 128,-1,24
 331 354 331 354 342.5 363.5 c 128,-1,25
 354 373 354 373 361.5 389 c 128,-1,26
 369 405 369 405 369 429 c 0,27,28
 369 458 369 458 355.5 469 c 128,-1,29
 342 480 342 480 316 480 c 2,30,-1
 219 480 l 1,20,-1
180 260 m 1,31,-1
 151 95 l 1,32,-1
 261 95 l 2,33,34
 310 95 310 95 337 118.5 c 128,-1,35
 364 142 364 142 364 195 c 0,36,37
 364 231 364 231 341 245.5 c 128,-1,38
 318 260 318 260 280 260 c 2,39,-1
 180 260 l 1,31,-1
EndSplineSet
EndChar

StartChar: AE.sc
Encoding: 65557 -1 261
Width: 729
Flags: W
LayerCount: 2
Back
Fore
SplineSet
387 0 m 1,0,-1
 272 0 l 1,1,-1
 296 136 l 1,2,-1
 149 136 l 1,3,-1
 64 0 l 1,4,-1
 -56 0 l 1,5,-1
 316 574 l 1,6,-1
 712 574 l 1,7,-1
 693 464 l 1,8,-1
 464 464 l 1,9,-1
 444 354 l 1,10,-1
 621 354 l 1,11,-1
 602 245 l 1,12,-1
 425 245 l 1,13,-1
 401 110 l 1,14,-1
 638 110 l 1,15,-1
 618 0 l 1,16,-1
 387 0 l 1,0,-1
353 462 m 1,17,-1
 221 245 l 1,18,-1
 315 245 l 1,19,-1
 353 462 l 1,17,-1
EndSplineSet
EndChar

StartChar: X.sc
Encoding: 65558 -1 262
Width: 545
Flags: W
LayerCount: 2
Back
Fore
SplineSet
336 0 m 1,0,-1
 249 204 l 1,1,-1
 88 0 l 1,2,-1
 -45 0 l 1,3,-1
 206 287 l 1,4,-1
 69 574 l 1,5,-1
 200 574 l 1,6,-1
 287 378 l 1,7,-1
 423 574 l 1,8,-1
 556 574 l 1,9,-1
 332 298 l 1,10,-1
 471 0 l 1,11,-1
 336 0 l 1,0,-1
EndSplineSet
EndChar

StartChar: A.sc
Encoding: 65559 -1 263
Width: 530
Flags: W
LayerCount: 2
Back
Fore
SplineSet
340 0 m 1,0,-1
 318 134 l 1,1,-1
 145 134 l 1,2,-1
 77 0 l 1,3,-1
 -41 0 l 1,4,-1
 257 574 l 1,5,-1
 361 574 l 1,6,-1
 456 0 l 1,7,-1
 340 0 l 1,0,-1
276 393 m 1,8,-1
 204 244 l 1,9,-1
 298 244 l 1,10,-1
 276 393 l 1,8,-1
EndSplineSet
EndChar

StartChar: Y.sc
Encoding: 65560 -1 264
Width: 520
Flags: W
LayerCount: 2
Back
Fore
SplineSet
297 251 m 1,0,-1
 252 0 l 1,1,-1
 142 0 l 1,2,-1
 186 251 l 1,3,-1
 49 574 l 1,4,-1
 169 574 l 1,5,-1
 260 352 l 1,6,-1
 428 574 l 1,7,-1
 548 574 l 1,8,-1
 297 251 l 1,0,-1
EndSplineSet
EndChar

StartChar: Z.sc
Encoding: 65561 -1 265
Width: 472
Flags: W
LayerCount: 2
Back
Fore
SplineSet
171 110 m 1,0,-1
 372 110 l 1,1,-1
 353 0 l 1,2,-1
 -35 0 l 1,3,-1
 284 464 l 1,4,-1
 83 464 l 1,5,-1
 102 574 l 1,6,-1
 490 574 l 1,7,-1
 171 110 l 1,0,-1
EndSplineSet
EndChar

StartChar: U.sc
Encoding: 65562 -1 266
Width: 609
Flags: W
LayerCount: 2
Back
Fore
SplineSet
242 -12 m 0,0,1
 144 -12 144 -12 97.5 39 c 128,-1,2
 51 90 51 90 51 176 c 0,3,4
 51 193 51 193 53 210.5 c 128,-1,5
 55 228 55 228 58 247 c 2,6,-1
 115 574 l 1,7,-1
 228 574 l 1,8,-1
 176 282 l 2,9,10
 172 260 172 260 170 240.5 c 128,-1,11
 168 221 168 221 168 203 c 0,12,13
 168 155 168 155 188 126.5 c 128,-1,14
 208 98 208 98 261 98 c 0,15,16
 297 98 297 98 322.5 112 c 128,-1,17
 348 126 348 126 365 150.5 c 128,-1,18
 382 175 382 175 393 208.5 c 128,-1,19
 404 242 404 242 411 282 c 2,20,-1
 462 574 l 1,21,-1
 575 574 l 1,22,-1
 517 247 l 2,23,24
 506 189 506 189 484 141 c 128,-1,25
 462 93 462 93 428 59 c 128,-1,26
 394 25 394 25 347.5 6.5 c 128,-1,27
 301 -12 301 -12 242 -12 c 0,0,1
EndSplineSet
EndChar

StartChar: P.sc
Encoding: 65563 -1 267
Width: 519
Flags: W
LayerCount: 2
Back
Fore
SplineSet
165 185 m 1,0,-1
 133 0 l 1,1,-1
 21 0 l 1,2,-1
 122 574 l 1,3,-1
 271 574 l 2,4,5
 328 574 328 574 371.5 569 c 128,-1,6
 415 564 415 564 444 549.5 c 128,-1,7
 473 535 473 535 487.5 508 c 128,-1,8
 502 481 502 481 502 438 c 0,9,10
 502 360 502 360 476 311 c 128,-1,11
 450 262 450 262 412.5 234 c 128,-1,12
 375 206 375 206 332 195.5 c 128,-1,13
 289 185 289 185 255 185 c 2,14,-1
 165 185 l 1,0,-1
218 482 m 1,15,-1
 184 291 l 1,16,-1
 260 291 l 2,17,18
 297 291 297 291 321.5 298 c 128,-1,19
 346 305 346 305 360.5 320.5 c 128,-1,20
 375 336 375 336 380.5 360 c 128,-1,21
 386 384 386 384 386 418 c 0,22,23
 386 450 386 450 367.5 466 c 128,-1,24
 349 482 349 482 300 482 c 2,25,-1
 218 482 l 1,15,-1
EndSplineSet
EndChar

StartChar: T.sc
Encoding: 65564 -1 268
Width: 481
Flags: W
LayerCount: 2
Back
Fore
SplineSet
320 464 m 1,0,-1
 239 0 l 1,1,-1
 125 0 l 1,2,-1
 206 464 l 1,3,-1
 52 464 l 1,4,-1
 71 574 l 1,5,-1
 495 574 l 1,6,-1
 476 464 l 1,7,-1
 320 464 l 1,0,-1
EndSplineSet
EndChar
